<?xml version="1.0" standalone="no"?>
<!DOCTYPE svg PUBLIC "-//W3C//DTD SVG 20010904//EN"
 "http://www.w3.org/TR/2001/REC-SVG-20010904/DTD/svg10.dtd">
<svg version="1.0" xmlns="http://www.w3.org/2000/svg"
 width="2250.000000pt" height="2250.000000pt" viewBox="0 0 2250.000000 2250.000000"
 preserveAspectRatio="xMidYMid meet">
<metadata>
Created by potrace 1.11, written by Peter Selinger 2001-2013
</metadata>
<g transform="translate(0.000000,2250.000000) scale(0.100000,-0.100000)"
fill="#000000" stroke="none">
<path d="M5205 18566 c-2800 -865 -5107 -1580 -5127 -1589 -25 -10 -43 -28
-57 -56 -21 -40 -21 -51 -21 -782 0 -671 2 -744 17 -776 18 -39 61 -70 110
-79 22 -4 501 99 1605 347 1046 234 1583 350 1601 346 36 -10 87 -55 103 -94
12 -27 14 -1095 14 -6725 0 -6661 0 -6693 20 -6726 11 -18 34 -41 52 -52 33
-20 71 -20 9453 -20 9382 0 9420 0 9453 20 18 11 41 34 52 52 20 33 20 59 20
3893 0 3655 -1 3861 -18 3887 -9 15 -2710 2233 -6002 4929 -3292 2696 -6011
4924 -6043 4950 -51 42 -65 49 -100 48 -25 0 -2091 -634 -5132 -1573z m6129
-2310 c34 -19 2264 -1351 4956 -2959 4201 -2511 4897 -2930 4912 -2958 17 -31
18 -75 18 -575 l0 -541 -22 -33 c-33 -48 -83 -72 -138 -67 -63 6 -9894 3768
-9927 3799 -56 51 -53 -40 -53 1662 0 1091 3 1583 11 1603 22 60 83 102 148
103 21 0 58 -13 95 -34z m4879 -6141 c2712 -806 4943 -1473 4957 -1483 14 -10
33 -34 42 -53 17 -32 18 -95 18 -898 0 -854 0 -865 -21 -907 -25 -52 -77 -87
-127 -86 -35 1 -9851 2330 -9902 2350 -32 12 -66 49 -79 85 -8 20 -11 390 -11
1185 l0 1157 21 35 c34 55 72 78 132 79 22 1 2007 -584 4970 -1464z m-38
-3125 c2701 -490 4930 -898 4955 -908 27 -11 53 -30 67 -51 l23 -34 0 -686 c0
-667 -1 -687 -20 -719 -28 -46 -76 -72 -131 -72 -64 0 -9780 966 -9848 979
-61 12 -105 46 -127 98 -12 27 -14 215 -14 1095 0 1022 1 1065 19 1105 11 23
31 49 45 59 29 18 82 32 106 27 8 -1 2224 -403 4925 -893z m30 -2694 c2673
-212 4880 -390 4905 -396 49 -12 92 -47 110 -89 7 -18 10 -148 8 -417 l-3
-391 -27 -35 c-16 -21 -45 -43 -70 -52 -39 -15 -463 -16 -4990 -14 l-4947 3
-28 21 c-15 11 -38 36 -50 54 l-23 33 0 781 c0 886 -5 829 81 874 37 20 54 23
109 18 36 -3 2252 -179 4925 -390z"/>
</g>
</svg>
