<?xml version="1.0" encoding="utf-8"?>
<!-- Generator: Adobe Illustrator 21.1.0, SVG Export Plug-In . SVG Version: 6.00 Build 0)  -->
<svg version="1.1" id="Livello_1" xmlns="http://www.w3.org/2000/svg" xmlns:xlink="http://www.w3.org/1999/xlink" x="0px" y="0px"
	 viewBox="0 0 552.2 306.6" style="enable-background:new 0 0 552.2 306.6;" xml:space="preserve">
<style type="text/css">
	.st0{display:none;}
	.st1{display:inline;}
	.st2{font-family:'SanFranciscoText-Semibold';}
	.st3{font-size:11px;}
	.st4{font-size:9.5755px;}
	.st5{font-size:9.6569px;}
	.st6{fill:#FFFFFF;}
</style>
<g class="st0">
	<path class="st1" d="M215.7,148.8h2.7c0.1,0,0.2-0.1,0.2-0.2v-14.7c0-0.1-0.1-0.2-0.2-0.2h-2.7c-0.1,0-0.2,0.1-0.2,0.2v14.7
		C215.5,148.7,215.6,148.8,215.7,148.8z"/>
	<path class="st1" d="M219.7,136.4h4.1c0.1,0,0.2,0.1,0.2,0.2v11.9c0,0.1,0.1,0.2,0.2,0.2h3.3c0.1,0,0.2-0.1,0.2-0.2v-11.9
		c0-0.1,0.1-0.2,0.2-0.2h4.8c0.1,0,0.2-0.1,0.2-0.2v-2.4c0-0.1-0.1-0.2-0.2-0.2h-13.1c-0.1,0-0.2,0.1-0.2,0.2v2.4
		C219.5,136.3,219.6,136.4,219.7,136.4z"/>
	<path class="st1" d="M234.2,148.8h2.8c0.1,0,0.2-0.1,0.2-0.2v-14.7c0-0.1-0.1-0.2-0.2-0.2h-2.8c-0.1,0-0.2,0.1-0.2,0.2v14.7
		C233.9,148.7,234,148.8,234.2,148.8z"/>
	<path class="st1" d="M264.3,121l-15.9,4.9c-0.1,0-0.2,0.1-0.2,0.2v2.2c0,0.2,0.1,0.3,0.3,0.2l4.8-1.1c0.1,0,0.3,0.1,0.3,0.2v20.8
		c0,0.1,0.1,0.2,0.2,0.2h11.7h17.6c0.1,0,0.2-0.1,0.2-0.2v-11.9c0-0.1,0-0.1-0.1-0.2l-18.8-15.4C264.5,121,264.4,121,264.3,121z
		 M281.2,147.9h-15.4c-0.1,0-0.2-0.1-0.2-0.2v-2.3c0-0.1,0.1-0.2,0.3-0.2l15.4,1.2c0.1,0,0.2,0.1,0.2,0.2v1.1
		C281.4,147.8,281.3,147.9,281.2,147.9z M281.2,145.4l-15.4-1.5c-0.1,0-0.2-0.1-0.2-0.2v-3.3c0-0.1,0.1-0.3,0.3-0.2l15.4,2.8
		c0.1,0,0.2,0.1,0.2,0.2v2C281.4,145.3,281.3,145.4,281.2,145.4z M281.1,142l-15.4-3.7c-0.1,0-0.2-0.1-0.2-0.2v-3.5
		c0-0.2,0.2-0.3,0.3-0.2l15.4,4.6c0.1,0,0.2,0.1,0.2,0.2v2.6C281.4,141.9,281.3,142,281.1,142z M281.1,138.2l-15.4-5.9
		c-0.1,0-0.2-0.1-0.2-0.2v-4.9c0-0.2,0.2-0.3,0.4-0.2l15.4,9.2c0.1,0,0.1,0.1,0.1,0.2v1.6C281.4,138.1,281.2,138.2,281.1,138.2z"/>
	<path class="st1" d="M238.8,142.5l9.1-2.3c0.1,0,0.3,0.1,0.3,0.2v3.2c0,0.1-0.1,0.2-0.2,0.2l-9.3,2.4c-0.1,0-0.2,0.1-0.2,0.2
		l0.1,1.9c0,0.1,0.2,0.3,0.3,0.2l12-3.1c0.1,0,0.2-0.1,0.2-0.2v-8.8c0-0.2-0.1-0.3-0.3-0.2l-9.6,2.5c-0.2,0-0.3-0.1-0.3-0.2v-2.1
		c0-0.1,0.1-0.2,0.2-0.2l9.8-2.8c0.1,0,0.2-0.1,0.2-0.2v-3.3c0-0.2-0.2-0.3-0.3-0.2l-12.1,3.6c-0.1,0-0.2,0.1-0.2,0.2v8.5
		C238.5,142.5,238.7,142.6,238.8,142.5z"/>
</g>
<g class="st0">
	<text transform="matrix(1 0 0 1 214.7776 156.9891)" class="st1 st2 st3">En</text>
	<text transform="matrix(1 0 0 1 228.8826 156.9891)" class="st1 st2 st3">r</text>
	<text transform="matrix(1 0 0 1 234.2368 156.9887)" class="st1 st2 st4">i</text>
	<text transform="matrix(1 0 0 1 237.5774 156.9891)" class="st1 st2 st3">co</text>
</g>
<g class="st0">
	<text transform="matrix(1 0 0 1 253.0728 156.9891)" class="st1 st2 st3">Ferm</text>
	<text transform="matrix(1 0 0 1 281.7553 156.9897)" class="st1 st2 st5">i</text>
</g>
<g>
	<g>
		<path class="st6" d="M13.6,229.1h21.3c1,0,1.8-0.8,1.8-1.8V113c0-1-0.8-1.8-1.8-1.8H13.6c-1,0-1.8,0.8-1.8,1.8v114.3
			C11.8,228.3,12.6,229.1,13.6,229.1z"/>
		<path class="st6" d="M44.5,133.3h32.1c1,0,1.8,0.8,1.8,1.8v92.2c0,1,0.8,1.8,1.8,1.8h25.5c1,0,1.8-0.8,1.8-1.8v-92.1
			c0-1,0.8-1.8,1.8-1.8h36.9c1,0,1.8-0.8,1.8-1.8v-18.5c0-1-0.8-1.8-1.8-1.8H44.5c-1,0-1.8,0.8-1.8,1.8v18.5
			C42.7,132.5,43.5,133.3,44.5,133.3z"/>
		<path class="st6" d="M156.6,229.1h21.7c1,0,1.8-0.8,1.8-1.8V113c0-1-0.8-1.8-1.8-1.8h-21.7c-1,0-1.8,0.8-1.8,1.8v114.3
			C154.7,228.3,155.6,229.1,156.6,229.1z"/>
		<path class="st6" d="M390.8,13.2L267.1,51.4c-0.8,0.2-1.3,0.9-1.3,1.8v17.1c0,1.2,1.1,2,2.2,1.8l37.5-8.4c1.1-0.3,2.2,0.6,2.2,1.8
			v161.8c0,1,0.8,1.8,1.8,1.8h90.8h137c1,0,1.8-0.8,1.8-1.8v-92.7c0-0.6-0.2-1.1-0.7-1.4l-146-119.6C392,13.1,391.4,13,390.8,13.2z
			 M521.8,222.5H402.3c-1,0-1.8-0.8-1.8-1.8v-18.1c0-1.1,0.9-1.9,2-1.8l119.5,9.5c1,0.1,1.7,0.9,1.7,1.8v8.6
			C523.6,221.7,522.8,222.5,521.8,222.5z M521.6,202.9L402.1,191c-0.9-0.1-1.7-0.9-1.7-1.8v-25.4c0-1.1,1-2,2.2-1.8l119.5,21.7
			c0.9,0.2,1.5,0.9,1.5,1.8V201C523.6,202.1,522.7,203,521.6,202.9z M521.4,176.5l-119.5-28.4c-0.8-0.2-1.4-0.9-1.4-1.8v-27.4
			c0-1.2,1.2-2.1,2.4-1.8l119.5,35.5c0.8,0.2,1.3,0.9,1.3,1.8v20.3C523.6,175.9,522.5,176.8,521.4,176.5z M521.1,146.9l-119.5-45.7
			c-0.7-0.3-1.2-1-1.2-1.7V61.7c0-1.4,1.6-2.3,2.8-1.6l119.5,71.4c0.6,0.3,0.9,0.9,0.9,1.6v12.2
			C523.6,146.4,522.3,147.3,521.1,146.9z"/>
	</g>
	<g>
		<g>
			<path class="st6" d="M48.4,292.7H12.5v-56.9h35.9v8.6H22.5v15.4h24.4v8.2H22.5v16.1h25.9V292.7z"/>
			<path class="st6" d="M64.9,248.6h9.6v7.8h0.6c1.1-3.5,4.4-8.5,13.2-8.5c8.9,0,14.8,5,14.8,15.1v29.7h-9.8v-26.9
				c0-6.6-3.5-9.4-8.5-9.4c-6.5,0-10,4.8-10,11.7v24.6H65L64.9,248.6L64.9,248.6z"/>
			<path class="st6" d="M121.6,248.6h9.8v6.9h0.5c1-3,4.2-7.6,11.4-7.6c1.3,0,2.4,0.1,3.3,0.3v8.9c-0.8-0.3-2.5-0.3-4.1-0.3
				c-7.4,0-10.9,4.3-10.9,10.2v25.8h-10.1v-44.2L121.6,248.6L121.6,248.6z"/>
			<path class="st6" d="M158.4,254.3h8.6v38.4h-8.6V254.3z"/>
			<path class="st6" d="M182.4,267.5c0-11.9,7.3-19.8,19.3-19.8c11.4,0,17.6,7,17.8,15h-9.2c-0.4-2.8-2.4-6.8-8.3-6.8
				c-6.2,0-9.6,4.7-9.6,11.8v5.8c0,7.3,3.6,11.6,9.6,11.6c5.9,0,7.9-2.9,8.5-6.1h9.3c-0.3,8.6-6.7,14.5-18.1,14.5
				c-11.7,0-19.2-7.4-19.2-20v-6H182.4z"/>
			<path class="st6" d="M272.8,267.9v5.3c0,13-8.1,20.3-19.8,20.3c-11.8,0-19.9-7.2-19.9-20.3v-5.3c0-12.2,8.1-20.2,19.9-20.2
				C264.7,247.8,272.8,255.4,272.8,267.9z M243,268.2v4.8c0,7,3.3,12.4,9.9,12.4c6.6,0,9.8-5.5,9.8-12.4v-4.8c0-7-3.4-12.5-9.8-12.5
				C246.5,255.8,243,261.2,243,268.2z"/>
		</g>
		<g>
			<path class="st6" d="M315.9,292.4v-56.9h35.5v8.7H326v16.6h23.2v8.6H326v23.1h-10.1V292.4z"/>
			<path class="st6" d="M363,273v-5.6c0-12.8,8.3-20.1,19.2-20.1c11.2,0,19.1,7.7,19.1,20.1v5.1h-28.5v2.1c0,6,3.7,10.4,10,10.4
				c4.7,0,8-2.2,8.6-5h9.5c-0.5,5.3-5.9,12.9-18.1,12.9S363,285.8,363,273z M391.7,266.2v-0.5c0-6.3-3.8-10.5-9.4-10.5
				c-5.7,0-9.5,4.2-9.5,10.5v0.5H391.7z"/>
			<path class="st6" d="M417.7,248.2h9.8v6.9h0.5c1-3,4.2-7.6,11.4-7.6c1.3,0,2.4,0.1,3.3,0.3v8.9c-0.8-0.3-2.5-0.3-4.1-0.3
				c-7.4,0-10.9,4.3-10.9,10.2v25.8h-10.1v-44.2H417.7z"/>
			<path class="st6" d="M454.7,248.2h9.6v7.2h0.5c1-3.2,4-7.9,12-7.9c6.7,0,10.8,3.5,12.2,8.3h0.4c1.6-4.1,5.8-8.3,13.4-8.3
				c9,0,14.3,5.2,14.3,13.9v30.9h-9.8v-27.9c0-5.6-3-8.6-8.1-8.6c-4.8,0-8.5,3.5-8.5,9.3v27.2h-9.6v-27.7c0-5.7-3.4-8.8-8.3-8.8
				c-4.8,0-8.3,3.4-8.3,9.2v27.3h-9.8L454.7,248.2L454.7,248.2z"/>
			<path class="st6" d="M531.8,254h8.6v38.8h-8.6V254z"/>
		</g>
	</g>
	<path class="st6" d="M278.8,136.9l-63.1,16.3c-1.1,0.3-2.1-0.5-2.3-1.6v-15.2v-6c0-0.8,0.6-1.6,1.4-1.8l72.2-18.8
		c0.8-0.2,1.4-1,1.4-1.8V92.8c0-1.2-1.2-2.1-2.3-1.8l-89.5,23.2c-3.4,0.9-5.8,4-5.8,7.5V136l0,0v20.6v2.3v12.2
		c0,5.1,4.8,8.8,9.7,7.5l63.1-16.3c1.2-0.3,2.3,0.6,2.3,1.8v25.2c0,0.8-0.6,1.6-1.4,1.8L192.1,210c-0.8,0.2-1.4,1-1.4,1.8v15.1
		c0,1.2,1.2,2.1,2.3,1.8l89.6-23.2c3.4-0.9,5.8-4,5.8-7.5v-39.1v-2.3v-12.2C288.5,139.4,283.7,135.7,278.8,136.9z"/>
	<rect x="159.2" y="239.4" class="st6" width="8.5" height="8.5"/>
	<rect x="531.8" y="239.4" class="st6" width="8.5" height="8.5"/>
</g>
</svg>
