<svg xmlns="http://www.w3.org/2000/svg" width="1920" height="1080"><path d="M732,1326L466,1341L1216,1329Z" fill="#8fad6a" stroke="#8fad6a" stroke-width="1.51"/><path d="M842,-206L1152,-219L1325,-247Z" fill="#d9925f" stroke="#d9925f" stroke-width="1.51"/><path d="M396,-229L842,-206L1325,-247Z" fill="#e18e63" stroke="#e18e63" stroke-width="1.51"/><path d="M102,-247L396,-229L1325,-247Z" fill="#db794d" stroke="#db794d" stroke-width="1.51"/><path d="M102,-247L1325,-247L1518,-255Z" fill="#df936b" stroke="#df936b" stroke-width="1.51"/><path d="M1756,1257L1591,1285L1922,1286Z" fill="#359950" stroke="#359950" stroke-width="1.51"/><path d="M1591,1285L1497,1329L1922,1286Z" fill="#419c52" stroke="#419c52" stroke-width="1.51"/><path d="M2042,879L1945,971L2068,1032Z" fill="#53a656" stroke="#53a656" stroke-width="1.51"/><path d="M2062,1117L2061,1247L2068,1032Z" fill="#29914c" stroke="#29914c" stroke-width="1.51"/><path d="M1953,61L2056,108L2071,-56Z" fill="#9a7f43" stroke="#9a7f43" stroke-width="1.51"/><path d="M1956,-42L1953,61L2071,-56Z" fill="#9a7c40" stroke="#9a7c40" stroke-width="1.51"/><path d="M1518,-255L1894,-243L2083,-257Z" fill="#8e6f3d" stroke="#8e6f3d" stroke-width="1.51"/><path d="M1956,-42L2071,-56L2083,-257Z" fill="#906934" stroke="#906934" stroke-width="1.51"/><path d="M1894,-243L1956,-42L2083,-257Z" fill="#8b6a37" stroke="#8b6a37" stroke-width="1.51"/><path d="M2041,567L1956,671L2086,736Z" fill="#85ba6e" stroke="#85ba6e" stroke-width="1.51"/><path d="M2068,1032L2061,1247L2086,736Z" fill="#469d52" stroke="#469d52" stroke-width="1.51"/><path d="M2042,879L2068,1032L2086,736Z" fill="#61a855" stroke="#61a855" stroke-width="1.51"/><path d="M1954,341L2041,567L2088,373Z" fill="#95b66e" stroke="#95b66e" stroke-width="1.51"/><path d="M2041,567L2086,736L2088,373Z" fill="#8eba7a" stroke="#8eba7a" stroke-width="1.51"/><path d="M2056,108L1898,238L2103,239Z" fill="#9a9a52" stroke="#9a9a52" stroke-width="1.51"/><path d="M1898,238L1954,341L2103,239Z" fill="#9ba85c" stroke="#9ba85c" stroke-width="1.51"/><path d="M1954,341L2088,373L2103,239Z" fill="#95a85e" stroke="#95a85e" stroke-width="1.51"/><path d="M2071,-56L2056,108L2103,239Z" fill="#978446" stroke="#978446" stroke-width="1.51"/><path d="M2083,-257L2071,-56L2103,239Z" fill="#93713a" stroke="#93713a" stroke-width="1.51"/><path d="M2088,373L2086,736L2103,239Z" fill="#90b16e" stroke="#90b16e" stroke-width="1.51"/><path d="M1954,1107L2061,1247L2062,1117Z" fill="#24924d" stroke="#24924d" stroke-width="1.51"/><path d="M1916,863L2042,879L2086,736Z" fill="#6db15c" stroke="#6db15c" stroke-width="1.51"/><path d="M1956,671L1916,863L2086,736Z" fill="#7ab964" stroke="#7ab964" stroke-width="1.51"/><path d="M1954,341L1892,577L2041,567Z" fill="#97c37c" stroke="#97c37c" stroke-width="1.51"/><path d="M1518,-255L1767,-199L1894,-243Z" fill="#9c7841" stroke="#9c7841" stroke-width="1.51"/><path d="M1953,61L1898,238L2056,108Z" fill="#9f954f" stroke="#9f954f" stroke-width="1.51"/><path d="M1954,1107L1922,1286L2061,1247Z" fill="#16904c" stroke="#16904c" stroke-width="1.51"/><path d="M1954,1107L2062,1117L2068,1032Z" fill="#369a51" stroke="#369a51" stroke-width="1.51"/><path d="M1945,971L1954,1107L2068,1032Z" fill="#42a356" stroke="#42a356" stroke-width="1.51"/><path d="M1839,397L1892,577L1954,341Z" fill="#9ec577" stroke="#9ec577" stroke-width="1.51"/><path d="M1892,577L1956,671L2041,567Z" fill="#8fc479" stroke="#8fc479" stroke-width="1.51"/><path d="M1916,863L1945,971L2042,879Z" fill="#61b05a" stroke="#61b05a" stroke-width="1.51"/><path d="M1518,-255L1606,-204L1767,-199Z" fill="#a87f43" stroke="#a87f43" stroke-width="1.51"/><path d="M1767,-199L1776,-79L1894,-243Z" fill="#9b773e" stroke="#9b773e" stroke-width="1.51"/><path d="M1776,-79L1735,38L1953,61Z" fill="#aa8d49" stroke="#aa8d49" stroke-width="1.51"/><path d="M1760,217L1898,238L1953,61Z" fill="#a7a457" stroke="#a7a457" stroke-width="1.51"/><path d="M1735,38L1760,217L1953,61Z" fill="#ad9d53" stroke="#ad9d53" stroke-width="1.51"/><path d="M1898,238L1839,397L1954,341Z" fill="#a0b867" stroke="#a0b867" stroke-width="1.51"/><path d="M1945,971L1778,1041L1954,1107Z" fill="#49ac5a" stroke="#49ac5a" stroke-width="1.51"/><path d="M1778,1041L1802,1134L1954,1107Z" fill="#45aa59" stroke="#45aa59" stroke-width="1.51"/><path d="M1802,1134L1922,1286L1954,1107Z" fill="#299c52" stroke="#299c52" stroke-width="1.51"/><path d="M1892,577L1736,668L1956,671Z" fill="#94cb79" stroke="#94cb79" stroke-width="1.51"/><path d="M1736,668L1820,827L1956,671Z" fill="#8dc96e" stroke="#8dc96e" stroke-width="1.51"/><path d="M1820,827L1916,863L1956,671Z" fill="#7bbf66" stroke="#7bbf66" stroke-width="1.51"/><path d="M1776,-79L1953,61L1956,-42Z" fill="#a18444" stroke="#a18444" stroke-width="1.51"/><path d="M1894,-243L1776,-79L1956,-42Z" fill="#9d783b" stroke="#9d783b" stroke-width="1.51"/><path d="M1839,397L1768,506L1892,577Z" fill="#a4ce82" stroke="#a4ce82" stroke-width="1.51"/><path d="M1820,827L1778,1041L1916,863Z" fill="#6cbb5f" stroke="#6cbb5f" stroke-width="1.51"/><path d="M1802,1134L1756,1257L1922,1286Z" fill="#2d9b51" stroke="#2d9b51" stroke-width="1.51"/><path d="M1916,863L1778,1041L1945,971Z" fill="#5db45c" stroke="#5db45c" stroke-width="1.51"/><path d="M1760,217L1839,397L1898,238Z" fill="#a8b765" stroke="#a8b765" stroke-width="1.51"/><path d="M1768,506L1736,668L1892,577Z" fill="#a2d384" stroke="#a2d384" stroke-width="1.51"/><path d="M1672,792L1628,1031L1778,1041Z" fill="#75c364" stroke="#75c364" stroke-width="1.51"/><path d="M1672,792L1778,1041L1820,827Z" fill="#7bc363" stroke="#7bc363" stroke-width="1.51"/><path d="M1736,668L1672,792L1820,827Z" fill="#91cd6f" stroke="#91cd6f" stroke-width="1.51"/><path d="M1760,217L1650,232L1839,397Z" fill="#b1bd68" stroke="#b1bd68" stroke-width="1.51"/><path d="M1650,232L1596,381L1839,397Z" fill="#b6c971" stroke="#b6c971" stroke-width="1.51"/><path d="M1596,381L1768,506L1839,397Z" fill="#b0d07d" stroke="#b0d07d" stroke-width="1.51"/><path d="M1735,38L1636,71L1760,217Z" fill="#b8a557" stroke="#b8a557" stroke-width="1.51"/><path d="M1641,548L1736,668L1768,506Z" fill="#adda89" stroke="#adda89" stroke-width="1.51"/><path d="M1767,-199L1679,-112L1776,-79Z" fill="#a98141" stroke="#a98141" stroke-width="1.51"/><path d="M1778,1041L1666,1126L1802,1134Z" fill="#51b05c" stroke="#51b05c" stroke-width="1.51"/><path d="M1666,1126L1756,1257L1802,1134Z" fill="#43a858" stroke="#43a858" stroke-width="1.51"/><path d="M1636,71L1650,232L1760,217Z" fill="#bbb25e" stroke="#bbb25e" stroke-width="1.51"/><path d="M1596,381L1641,548L1768,506Z" fill="#b7d987" stroke="#b7d987" stroke-width="1.51"/><path d="M1679,-112L1735,38L1776,-79Z" fill="#b08b47" stroke="#b08b47" stroke-width="1.51"/><path d="M1628,1031L1666,1126L1778,1041Z" fill="#5fb860" stroke="#5fb860" stroke-width="1.51"/><path d="M1606,-204L1679,-112L1767,-199Z" fill="#a98043" stroke="#a98043" stroke-width="1.51"/><path d="M1641,548L1612,634L1736,668Z" fill="#aedc85" stroke="#aedc85" stroke-width="1.51"/><path d="M1666,1126L1591,1285L1756,1257Z" fill="#46a757" stroke="#46a757" stroke-width="1.51"/><path d="M1025,1291L732,1326L1216,1329Z" fill="#8cb878" stroke="#8cb878" stroke-width="1.51"/><path d="M1514,978L1628,1031L1672,792Z" fill="#85ca66" stroke="#85ca66" stroke-width="1.51"/><path d="M1504,846L1514,978L1672,792Z" fill="#96d268" stroke="#96d268" stroke-width="1.51"/><path d="M1679,-112L1636,71L1735,38Z" fill="#b8964e" stroke="#b8964e" stroke-width="1.51"/><path d="M1612,634L1672,792L1736,668Z" fill="#a3d778" stroke="#a3d778" stroke-width="1.51"/><path d="M1596,381L1525,431L1641,548Z" fill="#c1dc85" stroke="#c1dc85" stroke-width="1.51"/><path d="M1636,71L1525,121L1650,232Z" fill="#c4b15c" stroke="#c4b15c" stroke-width="1.51"/><path d="M1517,1117L1591,1285L1666,1126Z" fill="#59b25c" stroke="#59b25c" stroke-width="1.51"/><path d="M1612,634L1504,846L1672,792Z" fill="#a4d873" stroke="#a4d873" stroke-width="1.51"/><path d="M1451,-14L1636,71L1679,-112Z" fill="#c2984e" stroke="#c2984e" stroke-width="1.51"/><path d="M1606,-204L1451,-14L1679,-112Z" fill="#bd8c45" stroke="#bd8c45" stroke-width="1.51"/><path d="M1485,274L1596,381L1650,232Z" fill="#c5ca6e" stroke="#c5ca6e" stroke-width="1.51"/><path d="M1628,1031L1517,1117L1666,1126Z" fill="#67bb60" stroke="#67bb60" stroke-width="1.51"/><path d="M1433,649L1504,846L1612,634Z" fill="#b6df79" stroke="#b6df79" stroke-width="1.51"/><path d="M1525,121L1485,274L1650,232Z" fill="#c9bf64" stroke="#c9bf64" stroke-width="1.51"/><path d="M1451,-14L1525,121L1636,71Z" fill="#cba655" stroke="#cba655" stroke-width="1.51"/><path d="M1477,544L1612,634L1641,548Z" fill="#bee38d" stroke="#bee38d" stroke-width="1.51"/><path d="M1525,431L1477,544L1641,548Z" fill="#c5e38e" stroke="#c5e38e" stroke-width="1.51"/><path d="M1518,-255L1451,-14L1606,-204Z" fill="#bc8a45" stroke="#bc8a45" stroke-width="1.51"/><path d="M1514,978L1517,1117L1628,1031Z" fill="#77c365" stroke="#77c365" stroke-width="1.51"/><path d="M1477,544L1433,649L1612,634Z" fill="#c2e588" stroke="#c2e588" stroke-width="1.51"/><path d="M1517,1117L1497,1329L1591,1285Z" fill="#5aac58" stroke="#5aac58" stroke-width="1.51"/><path d="M1485,274L1525,431L1596,381Z" fill="#c8d677" stroke="#c8d677" stroke-width="1.51"/><path d="M1340,87L1321,255L1485,274Z" fill="#dcc769" stroke="#dcc769" stroke-width="1.51"/><path d="M1433,649L1372,700L1504,846Z" fill="#bce278" stroke="#bce278" stroke-width="1.51"/><path d="M1372,700L1361,783L1504,846Z" fill="#b8e175" stroke="#b8e175" stroke-width="1.51"/><path d="M1504,846L1331,1004L1514,978Z" fill="#98d369" stroke="#98d369" stroke-width="1.51"/><path d="M1514,978L1331,1004L1517,1117Z" fill="#86ca67" stroke="#86ca67" stroke-width="1.51"/><path d="M1336,1234L1497,1329L1517,1117Z" fill="#67b45b" stroke="#67b45b" stroke-width="1.51"/><path d="M1328,-113L1451,-14L1518,-255Z" fill="#cb9147" stroke="#cb9147" stroke-width="1.51"/><path d="M1325,-247L1328,-113L1518,-255Z" fill="#c38b49" stroke="#c38b49" stroke-width="1.51"/><path d="M1485,274L1361,427L1525,431Z" fill="#d1dc7b" stroke="#d1dc7b" stroke-width="1.51"/><path d="M1361,427L1477,544L1525,431Z" fill="#d1e489" stroke="#d1e489" stroke-width="1.51"/><path d="M1340,87L1485,274L1525,121Z" fill="#d5bc61" stroke="#d5bc61" stroke-width="1.51"/><path d="M1451,-14L1340,87L1525,121Z" fill="#d6ac57" stroke="#d6ac57" stroke-width="1.51"/><path d="M1288,1154L1336,1234L1517,1117Z" fill="#77bf63" stroke="#77bf63" stroke-width="1.51"/><path d="M1331,1004L1288,1154L1517,1117Z" fill="#84c767" stroke="#84c767" stroke-width="1.51"/><path d="M1361,783L1331,1004L1504,846Z" fill="#a9db6d" stroke="#a9db6d" stroke-width="1.51"/><path d="M1336,1234L1216,1329L1497,1329Z" fill="#6dad5b" stroke="#6dad5b" stroke-width="1.51"/><path d="M1321,255L1361,427L1485,274Z" fill="#dad776" stroke="#dad776" stroke-width="1.51"/><path d="M1352,565L1433,649L1477,544Z" fill="#d0eb8f" stroke="#d0eb8f" stroke-width="1.51"/><path d="M1361,427L1352,565L1477,544Z" fill="#d7ec93" stroke="#d7ec93" stroke-width="1.51"/><path d="M396,-229L728,-188L842,-206Z" fill="#e18151" stroke="#e18151" stroke-width="1.51"/><path d="M1328,-113L1340,87L1451,-14Z" fill="#d8a355" stroke="#d8a355" stroke-width="1.51"/><path d="M1352,565L1372,700L1433,649Z" fill="#ceea89" stroke="#ceea89" stroke-width="1.51"/><path d="M1205,828L1177,952L1331,1004Z" fill="#b1de77" stroke="#b1de77" stroke-width="1.51"/><path d="M1164,197L1321,255L1340,87Z" fill="#e7c76e" stroke="#e7c76e" stroke-width="1.51"/><path d="M1328,-113L1178,-33L1340,87Z" fill="#e1a55a" stroke="#e1a55a" stroke-width="1.51"/><path d="M1185,426L1163,519L1352,565Z" fill="#e9f29d" stroke="#e9f29d" stroke-width="1.51"/><path d="M1205,828L1331,1004L1361,783Z" fill="#b5e073" stroke="#b5e073" stroke-width="1.51"/><path d="M1185,426L1352,565L1361,427Z" fill="#e2ec94" stroke="#e2ec94" stroke-width="1.51"/><path d="M1321,255L1185,426L1361,427Z" fill="#e3e384" stroke="#e3e384" stroke-width="1.51"/><path d="M1227,738L1361,783L1372,700Z" fill="#c7e77f" stroke="#c7e77f" stroke-width="1.51"/><path d="M1352,565L1227,738L1372,700Z" fill="#d1ec89" stroke="#d1ec89" stroke-width="1.51"/><path d="M1163,519L1227,738L1352,565Z" fill="#e0f297" stroke="#e0f297" stroke-width="1.51"/><path d="M1227,738L1205,828L1361,783Z" fill="#c6e77e" stroke="#c6e77e" stroke-width="1.51"/><path d="M1145,127L1164,197L1340,87Z" fill="#edc26d" stroke="#edc26d" stroke-width="1.51"/><path d="M1325,-247L1152,-219L1328,-113Z" fill="#d09151" stroke="#d09151" stroke-width="1.51"/><path d="M1177,952L1288,1154L1331,1004Z" fill="#9ad372" stroke="#9ad372" stroke-width="1.51"/><path d="M1178,-33L1145,127L1340,87Z" fill="#ecb466" stroke="#ecb466" stroke-width="1.51"/><path d="M1177,952L1136,1135L1288,1154Z" fill="#9ad174" stroke="#9ad174" stroke-width="1.51"/><path d="M1288,1154L1216,1329L1336,1234Z" fill="#7aba64" stroke="#7aba64" stroke-width="1.51"/><path d="M1164,197L1185,426L1321,255Z" fill="#ebdb7f" stroke="#ebdb7f" stroke-width="1.51"/><path d="M1152,-219L1178,-33L1328,-113Z" fill="#e09955" stroke="#e09955" stroke-width="1.51"/><path d="M1164,197L1090,342L1185,426Z" fill="#f1e28a" stroke="#f1e28a" stroke-width="1.51"/><path d="M1136,1135L1216,1329L1288,1154Z" fill="#84c26b" stroke="#84c26b" stroke-width="1.51"/><path d="M1152,-219L1067,-61L1178,-33Z" fill="#e99e5f" stroke="#e99e5f" stroke-width="1.51"/><path d="M1136,1135L1025,1291L1216,1329Z" fill="#88be70" stroke="#88be70" stroke-width="1.51"/><path d="M1064,731L1205,828L1227,738Z" fill="#d3ec89" stroke="#d3ec89" stroke-width="1.51"/><path d="M1163,519L1064,731L1227,738Z" fill="#e2f397" stroke="#e2f397" stroke-width="1.51"/><path d="M842,-206L1028,-156L1152,-219Z" fill="#e59869" stroke="#e59869" stroke-width="1.51"/><path d="M1041,523L1064,731L1163,519Z" fill="#eff8a9" stroke="#eff8a9" stroke-width="1.51"/><path d="M928,1269L732,1326L1025,1291Z" fill="#91b977" stroke="#91b977" stroke-width="1.51"/><path d="M1028,-156L1067,-61L1152,-219Z" fill="#e79a62" stroke="#e79a62" stroke-width="1.51"/><path d="M987,844L1014,956L1177,952Z" fill="#c2e589" stroke="#c2e589" stroke-width="1.51"/><path d="M1014,956L1136,1135L1177,952Z" fill="#addb81" stroke="#addb81" stroke-width="1.51"/><path d="M987,844L1177,952L1205,828Z" fill="#c5e683" stroke="#c5e683" stroke-width="1.51"/><path d="M1064,731L987,844L1205,828Z" fill="#d3ed8e" stroke="#d3ed8e" stroke-width="1.51"/><path d="M1067,-61L1005,117L1145,127Z" fill="#f7b875" stroke="#f7b875" stroke-width="1.51"/><path d="M1059,215L1090,342L1164,197Z" fill="#f5d885" stroke="#f5d885" stroke-width="1.51"/><path d="M1067,-61L1145,127L1178,-33Z" fill="#f0af6a" stroke="#f0af6a" stroke-width="1.51"/><path d="M1041,523L1163,519L1185,426Z" fill="#f2f5a5" stroke="#f2f5a5" stroke-width="1.51"/><path d="M1090,342L1041,523L1185,426Z" fill="#f4f09e" stroke="#f4f09e" stroke-width="1.51"/><path d="M102,-247L308,-224L396,-229Z" fill="#d54b36" stroke="#d54b36" stroke-width="1.51"/><path d="M992,1188L1025,1291L1136,1135Z" fill="#92c87c" stroke="#92c87c" stroke-width="1.51"/><path d="M1145,127L1059,215L1164,197Z" fill="#f4cc7b" stroke="#f4cc7b" stroke-width="1.51"/><path d="M1014,956L992,1188L1136,1135Z" fill="#a4d583" stroke="#a4d583" stroke-width="1.51"/><path d="M1005,117L1059,215L1145,127Z" fill="#f9c97e" stroke="#f9c97e" stroke-width="1.51"/><path d="M1041,523L932,531L1064,731Z" fill="#f5fbb1" stroke="#f5fbb1" stroke-width="1.51"/><path d="M932,531L837,657L1064,731Z" fill="#f4f9ae" stroke="#f4f9ae" stroke-width="1.51"/><path d="M897,382L1041,523L1090,342Z" fill="#fbf2a6" stroke="#fbf2a6" stroke-width="1.51"/><path d="M1059,215L924,265L1090,342Z" fill="#fbdf91" stroke="#fbdf91" stroke-width="1.51"/><path d="M924,265L897,382L1090,342Z" fill="#ffe89e" stroke="#ffe89e" stroke-width="1.51"/><path d="M914,941L992,1188L1014,956Z" fill="#b5de8f" stroke="#b5de8f" stroke-width="1.51"/><path d="M897,382L932,531L1041,523Z" fill="#fff9b5" stroke="#fff9b5" stroke-width="1.51"/><path d="M1028,-156L856,-66L1067,-61Z" fill="#f5a36f" stroke="#f5a36f" stroke-width="1.51"/><path d="M856,-66L1005,117L1067,-61Z" fill="#fcb179" stroke="#fcb179" stroke-width="1.51"/><path d="M837,657L987,844L1064,731Z" fill="#e6f5a1" stroke="#e6f5a1" stroke-width="1.51"/><path d="M914,941L857,1180L992,1188Z" fill="#aad488" stroke="#aad488" stroke-width="1.51"/><path d="M1005,117L924,265L1059,215Z" fill="#fed48a" stroke="#fed48a" stroke-width="1.51"/><path d="M992,1188L928,1269L1025,1291Z" fill="#93c37f" stroke="#93c37f" stroke-width="1.51"/><path d="M856,-66L846,132L1005,117Z" fill="#ffb87a" stroke="#ffb87a" stroke-width="1.51"/><path d="M987,844L914,941L1014,956Z" fill="#cae892" stroke="#cae892" stroke-width="1.51"/><path d="M842,-206L856,-66L1028,-156Z" fill="#f09a69" stroke="#f09a69" stroke-width="1.51"/><path d="M837,657L832,868L987,844Z" fill="#dfed95" stroke="#dfed95" stroke-width="1.51"/><path d="M846,132L924,265L1005,117Z" fill="#ffcd88" stroke="#ffcd88" stroke-width="1.51"/><path d="M857,1180L928,1269L992,1188Z" fill="#98c881" stroke="#98c881" stroke-width="1.51"/><path d="M744,1024L857,1180L914,941Z" fill="#b4d582" stroke="#b4d582" stroke-width="1.51"/><path d="M832,868L914,941L987,844Z" fill="#d1e88e" stroke="#d1e88e" stroke-width="1.51"/><path d="M396,-229L532,-174L728,-188Z" fill="#e17648" stroke="#e17648" stroke-width="1.51"/><path d="M790,849L832,868L837,657Z" fill="#dfe98e" stroke="#dfe98e" stroke-width="1.51"/><path d="M707,532L837,657L932,531Z" fill="#fbf5ab" stroke="#fbf5ab" stroke-width="1.51"/><path d="M897,382L742,411L932,531Z" fill="#ffefa4" stroke="#ffefa4" stroke-width="1.51"/><path d="M742,411L707,532L932,531Z" fill="#ffefa5" stroke="#ffefa5" stroke-width="1.51"/><path d="M775,-53L846,132L856,-66Z" fill="#fbaa6d" stroke="#fbaa6d" stroke-width="1.51"/><path d="M739,204L897,382L924,265Z" fill="#ffda8e" stroke="#ffda8e" stroke-width="1.51"/><path d="M846,132L739,204L924,265Z" fill="#ffcd81" stroke="#ffcd81" stroke-width="1.51"/><path d="M857,1180L732,1326L928,1269Z" fill="#96bb74" stroke="#96bb74" stroke-width="1.51"/><path d="M775,-53L721,49L846,132Z" fill="#feac6c" stroke="#feac6c" stroke-width="1.51"/><path d="M744,1024L722,1095L857,1180Z" fill="#accc78" stroke="#accc78" stroke-width="1.51"/><path d="M739,204L742,411L897,382Z" fill="#ffde8d" stroke="#ffde8d" stroke-width="1.51"/><path d="M832,868L744,1024L914,941Z" fill="#c6de85" stroke="#c6de85" stroke-width="1.51"/><path d="M721,701L790,849L837,657Z" fill="#e8ea8f" stroke="#e8ea8f" stroke-width="1.51"/><path d="M790,849L744,1024L832,868Z" fill="#ccde81" stroke="#ccde81" stroke-width="1.51"/><path d="M728,-188L775,-53L842,-206Z" fill="#ed925c" stroke="#ed925c" stroke-width="1.51"/><path d="M842,-206L775,-53L856,-66Z" fill="#f39862" stroke="#f39862" stroke-width="1.51"/><path d="M722,1095L732,1326L857,1180Z" fill="#9cc072" stroke="#9cc072" stroke-width="1.51"/><path d="M707,532L721,701L837,657Z" fill="#f4ed9b" stroke="#f4ed9b" stroke-width="1.51"/><path d="M721,49L739,204L846,132Z" fill="#febb73" stroke="#febb73" stroke-width="1.51"/><path d="M722,1095L590,1276L732,1326Z" fill="#9ab467" stroke="#9ab467" stroke-width="1.51"/><path d="M739,204L635,193L742,411Z" fill="#fecf7c" stroke="#fecf7c" stroke-width="1.51"/><path d="M721,701L583,823L790,849Z" fill="#e0e080" stroke="#e0e080" stroke-width="1.51"/><path d="M563,945L744,1024L790,849Z" fill="#c7d577" stroke="#c7d577" stroke-width="1.51"/><path d="M583,823L563,945L790,849Z" fill="#d4d674" stroke="#d4d674" stroke-width="1.51"/><path d="M590,1276L466,1341L732,1326Z" fill="#949f59" stroke="#949f59" stroke-width="1.51"/><path d="M721,49L635,193L739,204Z" fill="#fdba6e" stroke="#fdba6e" stroke-width="1.51"/><path d="M635,193L560,398L742,411Z" fill="#fed37f" stroke="#fed37f" stroke-width="1.51"/><path d="M728,-188L615,-10L775,-53Z" fill="#f39459" stroke="#f39459" stroke-width="1.51"/><path d="M615,-10L721,49L775,-53Z" fill="#f8a060" stroke="#f8a060" stroke-width="1.51"/><path d="M707,532L606,557L721,701Z" fill="#f9e998" stroke="#f9e998" stroke-width="1.51"/><path d="M570,736L583,823L721,701Z" fill="#e6db7d" stroke="#e6db7d" stroke-width="1.51"/><path d="M603,49L635,193L721,49Z" fill="#fdab65" stroke="#fdab65" stroke-width="1.51"/><path d="M541,1119L590,1276L722,1095Z" fill="#a4b866" stroke="#a4b866" stroke-width="1.51"/><path d="M532,-174L615,-10L728,-188Z" fill="#ee854e" stroke="#ee854e" stroke-width="1.51"/><path d="M560,398L707,532L742,411Z" fill="#ffe192" stroke="#ffe192" stroke-width="1.51"/><path d="M563,945L722,1095L744,1024Z" fill="#bacc73" stroke="#bacc73" stroke-width="1.51"/><path d="M560,398L606,557L707,532Z" fill="#ffe195" stroke="#ffe195" stroke-width="1.51"/><path d="M606,557L570,736L721,701Z" fill="#f1e189" stroke="#f1e189" stroke-width="1.51"/><path d="M563,945L541,1119L722,1095Z" fill="#b5c36c" stroke="#b5c36c" stroke-width="1.51"/><path d="M615,-10L603,49L721,49Z" fill="#fa9f5e" stroke="#fa9f5e" stroke-width="1.51"/><path d="M532,-174L453,-113L615,-10Z" fill="#ef7f49" stroke="#ef7f49" stroke-width="1.51"/><path d="M603,49L397,106L635,193Z" fill="#fca35e" stroke="#fca35e" stroke-width="1.51"/><path d="M397,106L446,264L635,193Z" fill="#fdac60" stroke="#fdac60" stroke-width="1.51"/><path d="M446,264L560,398L635,193Z" fill="#fec170" stroke="#fec170" stroke-width="1.51"/><path d="M431,1017L541,1119L563,945Z" fill="#bbbc64" stroke="#bbbc64" stroke-width="1.51"/><path d="M560,398L438,414L606,557Z" fill="#ffd587" stroke="#ffd587" stroke-width="1.51"/><path d="M397,691L570,736L606,557Z" fill="#f3d681" stroke="#f3d681" stroke-width="1.51"/><path d="M390,580L397,691L606,557Z" fill="#f9d183" stroke="#f9d183" stroke-width="1.51"/><path d="M453,-113L603,49L615,-10Z" fill="#f58d52" stroke="#f58d52" stroke-width="1.51"/><path d="M453,-113L397,106L603,49Z" fill="#f78b50" stroke="#f78b50" stroke-width="1.51"/><path d="M438,414L390,580L606,557Z" fill="#ffd48c" stroke="#ffd48c" stroke-width="1.51"/><path d="M462,829L563,945L583,823Z" fill="#d6cc6b" stroke="#d6cc6b" stroke-width="1.51"/><path d="M570,736L462,829L583,823Z" fill="#e0d072" stroke="#e0d072" stroke-width="1.51"/><path d="M541,1119L466,1341L590,1276Z" fill="#9ca459" stroke="#9ca459" stroke-width="1.51"/><path d="M383,1111L466,1341L541,1119Z" fill="#a2a658" stroke="#a2a658" stroke-width="1.51"/><path d="M446,264L438,414L560,398Z" fill="#fec574" stroke="#fec574" stroke-width="1.51"/><path d="M397,691L462,829L570,736Z" fill="#e7cc71" stroke="#e7cc71" stroke-width="1.51"/><path d="M243,1298L160,1339L466,1341Z" fill="#957e43" stroke="#957e43" stroke-width="1.51"/><path d="M462,829L431,1017L563,945Z" fill="#ccc164" stroke="#ccc164" stroke-width="1.51"/><path d="M329,-53L397,106L453,-113Z" fill="#f37847" stroke="#f37847" stroke-width="1.51"/><path d="M431,1017L383,1111L541,1119Z" fill="#b3b05d" stroke="#b3b05d" stroke-width="1.51"/><path d="M396,-229L453,-113L532,-174Z" fill="#e46e41" stroke="#e46e41" stroke-width="1.51"/><path d="M324,488L390,580L438,414Z" fill="#ffc682" stroke="#ffc682" stroke-width="1.51"/><path d="M397,106L310,199L446,264Z" fill="#fb9e59" stroke="#fb9e59" stroke-width="1.51"/><path d="M281,387L438,414L446,264Z" fill="#fdb86d" stroke="#fdb86d" stroke-width="1.51"/><path d="M397,691L333,712L462,829Z" fill="#e9c36c" stroke="#e9c36c" stroke-width="1.51"/><path d="M269,888L431,1017L462,829Z" fill="#cfb75e" stroke="#cfb75e" stroke-width="1.51"/><path d="M383,1111L274,1169L466,1341Z" fill="#a19951" stroke="#a19951" stroke-width="1.51"/><path d="M274,1169L243,1298L466,1341Z" fill="#9b8b49" stroke="#9b8b49" stroke-width="1.51"/><path d="M333,712L269,888L462,829Z" fill="#dfba63" stroke="#dfba63" stroke-width="1.51"/><path d="M396,-229L329,-53L453,-113Z" fill="#e8683e" stroke="#e8683e" stroke-width="1.51"/><path d="M308,-224L329,-53L396,-229Z" fill="#e15d3b" stroke="#e15d3b" stroke-width="1.51"/><path d="M269,888L242,990L431,1017Z" fill="#c6aa58" stroke="#c6aa58" stroke-width="1.51"/><path d="M310,199L281,387L446,264Z" fill="#fca861" stroke="#fca861" stroke-width="1.51"/><path d="M281,387L324,488L438,414Z" fill="#ffbb75" stroke="#ffbb75" stroke-width="1.51"/><path d="M242,990L383,1111L431,1017Z" fill="#baa959" stroke="#baa959" stroke-width="1.51"/><path d="M390,580L333,712L397,691Z" fill="#f3c475" stroke="#f3c475" stroke-width="1.51"/><path d="M329,-53L246,109L397,106Z" fill="#f77b49" stroke="#f77b49" stroke-width="1.51"/><path d="M246,109L310,199L397,106Z" fill="#f98b50" stroke="#f98b50" stroke-width="1.51"/><path d="M242,990L274,1169L383,1111Z" fill="#b39e53" stroke="#b39e53" stroke-width="1.51"/><path d="M324,488L333,712L390,580Z" fill="#fbc47e" stroke="#fbc47e" stroke-width="1.51"/><path d="M324,488L174,722L333,712Z" fill="#f5b972" stroke="#f5b972" stroke-width="1.51"/><path d="M153,235L281,387L310,199Z" fill="#fb995a" stroke="#fb995a" stroke-width="1.51"/><path d="M114,499L174,722L324,488Z" fill="#fbb378" stroke="#fbb378" stroke-width="1.51"/><path d="M308,-224L177,-74L329,-53Z" fill="#e75737" stroke="#e75737" stroke-width="1.51"/><path d="M177,-74L246,109L329,-53Z" fill="#f0663f" stroke="#f0663f" stroke-width="1.51"/><path d="M181,811L269,888L333,712Z" fill="#e0af5e" stroke="#e0af5e" stroke-width="1.51"/><path d="M174,722L181,811L333,712Z" fill="#e7ae61" stroke="#e7ae61" stroke-width="1.51"/><path d="M281,387L114,499L324,488Z" fill="#feb172" stroke="#feb172" stroke-width="1.51"/><path d="M242,990L143,1010L274,1169Z" fill="#b89850" stroke="#b89850" stroke-width="1.51"/><path d="M102,-247L177,-74L308,-224Z" fill="#da4632" stroke="#da4632" stroke-width="1.51"/><path d="M246,109L153,235L310,199Z" fill="#f9884f" stroke="#f9884f" stroke-width="1.51"/><path d="M177,-74L119,102L246,109Z" fill="#f1673f" stroke="#f1673f" stroke-width="1.51"/><path d="M143,1010L104,1191L274,1169Z" fill="#ab8d49" stroke="#ab8d49" stroke-width="1.51"/><path d="M104,1191L243,1298L274,1169Z" fill="#9f8545" stroke="#9f8545" stroke-width="1.51"/><path d="M153,235L88,396L281,387Z" fill="#f89c5d" stroke="#f89c5d" stroke-width="1.51"/><path d="M88,396L114,499L281,387Z" fill="#faa668" stroke="#faa668" stroke-width="1.51"/><path d="M143,1010L242,990L269,888Z" fill="#c69f52" stroke="#c69f52" stroke-width="1.51"/><path d="M181,811L143,1010L269,888Z" fill="#cfa252" stroke="#cfa252" stroke-width="1.51"/><path d="M104,1191L160,1339L243,1298Z" fill="#98793e" stroke="#98793e" stroke-width="1.51"/><path d="M119,102L153,235L246,109Z" fill="#f47c48" stroke="#f47c48" stroke-width="1.51"/><path d="M38,885L143,1010L181,811Z" fill="#cb9b4d" stroke="#cb9b4d" stroke-width="1.51"/><path d="M-205,-198L-63,-171L102,-247Z" fill="#c42227" stroke="#c42227" stroke-width="1.51"/><path d="M18,1096L104,1191L143,1010Z" fill="#ac8845" stroke="#ac8845" stroke-width="1.51"/><path d="M16,362L88,396L153,235Z" fill="#f49257" stroke="#f49257" stroke-width="1.51"/><path d="M114,499L5,710L174,722Z" fill="#eda665" stroke="#eda665" stroke-width="1.51"/><path d="M102,-247L-63,-171L177,-74Z" fill="#d4372b" stroke="#d4372b" stroke-width="1.51"/><path d="M-63,-171L-42,-38L177,-74Z" fill="#db3a2a" stroke="#db3a2a" stroke-width="1.51"/><path d="M40,93L119,102L177,-74Z" fill="#ec5d3b" stroke="#ec5d3b" stroke-width="1.51"/><path d="M-42,-38L40,93L177,-74Z" fill="#e54f34" stroke="#e54f34" stroke-width="1.51"/><path d="M174,722L5,710L181,811Z" fill="#e2a35a" stroke="#e2a35a" stroke-width="1.51"/><path d="M5,710L38,885L181,811Z" fill="#d89c51" stroke="#d89c51" stroke-width="1.51"/><path d="M1,245L16,362L153,235Z" fill="#f1874e" stroke="#f1874e" stroke-width="1.51"/><path d="M-70,1237L-172,1325L160,1339Z" fill="#8b6433" stroke="#8b6433" stroke-width="1.51"/><path d="M40,93L1,245L119,102Z" fill="#ed6e40" stroke="#ed6e40" stroke-width="1.51"/><path d="M38,885L2,940L143,1010Z" fill="#c29249" stroke="#c29249" stroke-width="1.51"/><path d="M119,102L1,245L153,235Z" fill="#f07c47" stroke="#f07c47" stroke-width="1.51"/><path d="M104,1191L-70,1237L160,1339Z" fill="#95733a" stroke="#95733a" stroke-width="1.51"/><path d="M-47,508L5,710L114,499Z" fill="#f2a16c" stroke="#f2a16c" stroke-width="1.51"/><path d="M2,940L18,1096L143,1010Z" fill="#b78c47" stroke="#b78c47" stroke-width="1.51"/><path d="M88,396L-47,508L114,499Z" fill="#f59e68" stroke="#f59e68" stroke-width="1.51"/><path d="M16,362L-47,508L88,396Z" fill="#f2975f" stroke="#f2975f" stroke-width="1.51"/><path d="M18,1096L-70,1237L104,1191Z" fill="#9d793c" stroke="#9d793c" stroke-width="1.51"/><path d="M-180,38L-196,229L1,245Z" fill="#dd653f" stroke="#dd653f" stroke-width="1.51"/><path d="M-47,508L-135,575L5,710Z" fill="#e89a66" stroke="#e89a66" stroke-width="1.51"/><path d="M-146,725L-145,868L5,710Z" fill="#cf9050" stroke="#cf9050" stroke-width="1.51"/><path d="M2,940L-129,1095L18,1096Z" fill="#ac8242" stroke="#ac8242" stroke-width="1.51"/><path d="M5,710L-145,868L38,885Z" fill="#ce924b" stroke="#ce924b" stroke-width="1.51"/><path d="M-145,868L2,940L38,885Z" fill="#c38d46" stroke="#c38d46" stroke-width="1.51"/><path d="M-180,38L1,245L40,93Z" fill="#e4613b" stroke="#e4613b" stroke-width="1.51"/><path d="M-42,-38L-180,38L40,93Z" fill="#de4b34" stroke="#de4b34" stroke-width="1.51"/><path d="M-193,1018L-129,1095L2,940Z" fill="#a98043" stroke="#a98043" stroke-width="1.51"/><path d="M-135,575L-146,725L5,710Z" fill="#dc955b" stroke="#dc955b" stroke-width="1.51"/><path d="M1,245L-174,349L16,362Z" fill="#e9844f" stroke="#e9844f" stroke-width="1.51"/><path d="M-174,349L-47,508L16,362Z" fill="#ea8f5b" stroke="#ea8f5b" stroke-width="1.51"/><path d="M-129,1095L-70,1237L18,1096Z" fill="#9b773d" stroke="#9b773d" stroke-width="1.51"/><path d="M-196,229L-174,349L1,245Z" fill="#e0784a" stroke="#e0784a" stroke-width="1.51"/><path d="M-145,868L-193,1018L2,940Z" fill="#b48545" stroke="#b48545" stroke-width="1.51"/><path d="M-174,349L-135,575L-47,508Z" fill="#e69265" stroke="#e69265" stroke-width="1.51"/><path d="M-63,-171L-188,-30L-42,-38Z" fill="#d0322a" stroke="#d0322a" stroke-width="1.51"/><path d="M-188,-30L-180,38L-42,-38Z" fill="#d23e30" stroke="#d23e30" stroke-width="1.51"/><path d="M-205,-198L-188,-30L-63,-171Z" fill="#c52227" stroke="#c52227" stroke-width="1.51"/><path d="M-129,1095L-172,1325L-70,1237Z" fill="#8a6a38" stroke="#8a6a38" stroke-width="1.51"/><path d="M-193,1018L-172,1325L-129,1095Z" fill="#8f703d" stroke="#8f703d" stroke-width="1.51"/><path d="M-174,349L-146,725L-135,575Z" fill="#e3956c" stroke="#e3956c" stroke-width="1.51"/><path d="M-174,349L-193,1018L-146,725Z" fill="#d08f57" stroke="#d08f57" stroke-width="1.51"/><path d="M-146,725L-193,1018L-145,868Z" fill="#ba8746" stroke="#ba8746" stroke-width="1.51"/><path d="M-196,229L-193,1018L-174,349Z" fill="#e0926c" stroke="#e0926c" stroke-width="1.51"/><path d="M-188,-30L-196,229L-180,38Z" fill="#d34d37" stroke="#d34d37" stroke-width="1.51"/><path d="M-205,-198L-196,229L-188,-30Z" fill="#cd3c30" stroke="#cd3c30" stroke-width="1.51"/></svg>