<svg xmlns="http://www.w3.org/2000/svg" width="1920" height="1080"><path d="M389,1309L-37,1317L564,1331Z" fill="#718f8e" stroke="#718f8e" stroke-width="1.51"/><path d="M-37,1317L-120,1321L564,1331Z" fill="#799490" stroke="#799490" stroke-width="1.51"/><path d="M597,-261L875,-256L1325,-259Z" fill="#b9cfe5" stroke="#b9cfe5" stroke-width="1.51"/><path d="M875,-256L1040,-235L1325,-259Z" fill="#afc8e1" stroke="#afc8e1" stroke-width="1.51"/><path d="M1432,1302L1201,1305L1635,1344Z" fill="#156b6e" stroke="#156b6e" stroke-width="1.51"/><path d="M1201,1305L907,1337L1635,1344Z" fill="#226e7c" stroke="#226e7c" stroke-width="1.51"/><path d="M597,-261L1325,-259L1804,-264Z" fill="#a6c2de" stroke="#a6c2de" stroke-width="1.51"/><path d="M1962,-62L1976,85L2043,-110Z" fill="#7c9b97" stroke="#7c9b97" stroke-width="1.51"/><path d="M1743,1335L1635,1344L2055,1320Z" fill="#025d4e" stroke="#025d4e" stroke-width="1.51"/><path d="M1947,1289L1743,1335L2055,1320Z" fill="#015a48" stroke="#015a48" stroke-width="1.51"/><path d="M2043,-110L1976,85L2062,145Z" fill="#769593" stroke="#769593" stroke-width="1.51"/><path d="M1907,661L2081,731L2100,528Z" fill="#307984" stroke="#307984" stroke-width="1.51"/><path d="M1898,593L1907,661L2100,528Z" fill="#368089" stroke="#368089" stroke-width="1.51"/><path d="M2075,269L2064,380L2100,528Z" fill="#518288" stroke="#518288" stroke-width="1.51"/><path d="M2062,145L2075,269L2123,-175Z" fill="#72908e" stroke="#72908e" stroke-width="1.51"/><path d="M2043,-110L2062,145L2123,-175Z" fill="#7b9592" stroke="#7b9592" stroke-width="1.51"/><path d="M2075,269L2100,528L2123,-175Z" fill="#66898b" stroke="#66898b" stroke-width="1.51"/><path d="M2034,1152L2055,1320L2131,817Z" fill="#036154" stroke="#036154" stroke-width="1.51"/><path d="M2047,965L2034,1152L2131,817Z" fill="#046761" stroke="#046761" stroke-width="1.51"/><path d="M2081,731L1911,828L2131,817Z" fill="#1d717a" stroke="#1d717a" stroke-width="1.51"/><path d="M1911,828L2047,965L2131,817Z" fill="#146e71" stroke="#146e71" stroke-width="1.51"/><path d="M2100,528L2081,731L2131,817Z" fill="#28717d" stroke="#28717d" stroke-width="1.51"/><path d="M2123,-175L2100,528L2131,817Z" fill="#518085" stroke="#518085" stroke-width="1.51"/><path d="M2034,1152L1973,1187L2055,1320Z" fill="#015b4a" stroke="#015b4a" stroke-width="1.51"/><path d="M1938,-251L2043,-110L2123,-175Z" fill="#829f98" stroke="#829f98" stroke-width="1.51"/><path d="M2062,145L1984,188L2075,269Z" fill="#698e8f" stroke="#698e8f" stroke-width="1.51"/><path d="M2064,380L1937,445L2100,528Z" fill="#4a8389" stroke="#4a8389" stroke-width="1.51"/><path d="M1937,445L1898,593L2100,528Z" fill="#3f838b" stroke="#3f838b" stroke-width="1.51"/><path d="M1892,967L2034,1152L2047,965Z" fill="#046a60" stroke="#046a60" stroke-width="1.51"/><path d="M1973,1187L1947,1289L2055,1320Z" fill="#015948" stroke="#015948" stroke-width="1.51"/><path d="M1984,188L1937,445L2064,380Z" fill="#5c8b8f" stroke="#5c8b8f" stroke-width="1.51"/><path d="M1984,188L2064,380L2075,269Z" fill="#618a8d" stroke="#618a8d" stroke-width="1.51"/><path d="M1907,661L1911,828L2081,731Z" fill="#247784" stroke="#247784" stroke-width="1.51"/><path d="M1892,967L1973,1187L2034,1152Z" fill="#036859" stroke="#036859" stroke-width="1.51"/><path d="M1911,828L1892,967L2047,965Z" fill="#0c716f" stroke="#0c716f" stroke-width="1.51"/><path d="M1976,85L1984,188L2062,145Z" fill="#709392" stroke="#709392" stroke-width="1.51"/><path d="M1325,-259L1467,-209L1804,-264Z" fill="#95bac3" stroke="#95bac3" stroke-width="1.51"/><path d="M1938,-251L1962,-62L2043,-110Z" fill="#83a09b" stroke="#83a09b" stroke-width="1.51"/><path d="M1738,362L1937,445L1984,188Z" fill="#609396" stroke="#609396" stroke-width="1.51"/><path d="M1938,-251L1806,-109L1962,-62Z" fill="#86a6a0" stroke="#86a6a0" stroke-width="1.51"/><path d="M1892,967L1769,1091L1973,1187Z" fill="#036f61" stroke="#036f61" stroke-width="1.51"/><path d="M1962,-62L1791,81L1976,85Z" fill="#7b9f9b" stroke="#7b9f9b" stroke-width="1.51"/><path d="M1753,185L1738,362L1984,188Z" fill="#6a9a9d" stroke="#6a9a9d" stroke-width="1.51"/><path d="M1976,85L1791,81L1984,188Z" fill="#759b99" stroke="#759b99" stroke-width="1.51"/><path d="M1791,81L1753,185L1984,188Z" fill="#749e9e" stroke="#749e9e" stroke-width="1.51"/><path d="M1806,-109L1791,81L1962,-62Z" fill="#81a4a1" stroke="#81a4a1" stroke-width="1.51"/><path d="M1769,1091L1947,1289L1973,1187Z" fill="#016654" stroke="#016654" stroke-width="1.51"/><path d="M1769,1091L1743,1335L1947,1289Z" fill="#026655" stroke="#026655" stroke-width="1.51"/><path d="M1907,661L1746,712L1911,828Z" fill="#267f8c" stroke="#267f8c" stroke-width="1.51"/><path d="M1730,513L1898,593L1937,445Z" fill="#428b93" stroke="#428b93" stroke-width="1.51"/><path d="M1804,-264L1806,-109L1938,-251Z" fill="#8aada6" stroke="#8aada6" stroke-width="1.51"/><path d="M1738,362L1730,513L1937,445Z" fill="#51919a" stroke="#51919a" stroke-width="1.51"/><path d="M1743,837L1734,956L1892,967Z" fill="#0c7a7b" stroke="#0c7a7b" stroke-width="1.51"/><path d="M1743,837L1892,967L1911,828Z" fill="#147a7b" stroke="#147a7b" stroke-width="1.51"/><path d="M1746,712L1743,837L1911,828Z" fill="#1f7e8b" stroke="#1f7e8b" stroke-width="1.51"/><path d="M1898,593L1746,712L1907,661Z" fill="#318490" stroke="#318490" stroke-width="1.51"/><path d="M1734,956L1769,1091L1892,967Z" fill="#047670" stroke="#047670" stroke-width="1.51"/><path d="M1730,513L1746,712L1898,593Z" fill="#378996" stroke="#378996" stroke-width="1.51"/><path d="M-61,-250L314,-222L597,-261Z" fill="#e9e4f1" stroke="#e9e4f1" stroke-width="1.51"/><path d="M1631,1097L1635,1344L1743,1335Z" fill="#046960" stroke="#046960" stroke-width="1.51"/><path d="M1631,1097L1743,1335L1769,1091Z" fill="#046f63" stroke="#046f63" stroke-width="1.51"/><path d="M1675,-110L1638,104L1791,81Z" fill="#81a8ad" stroke="#81a8ad" stroke-width="1.51"/><path d="M1467,-209L1665,-164L1804,-264Z" fill="#90b5b8" stroke="#90b5b8" stroke-width="1.51"/><path d="M1675,-110L1791,81L1806,-109Z" fill="#85a9a9" stroke="#85a9a9" stroke-width="1.51"/><path d="M1804,-264L1665,-164L1806,-109Z" fill="#8bafac" stroke="#8bafac" stroke-width="1.51"/><path d="M1665,-164L1675,-110L1806,-109Z" fill="#8aaeaf" stroke="#8aaeaf" stroke-width="1.51"/><path d="M1730,513L1646,724L1746,712Z" fill="#32899c" stroke="#32899c" stroke-width="1.51"/><path d="M1666,371L1738,362L1753,185Z" fill="#679ba4" stroke="#679ba4" stroke-width="1.51"/><path d="M1638,104L1753,185L1791,81Z" fill="#7aa3a8" stroke="#7aa3a8" stroke-width="1.51"/><path d="M1631,1097L1530,1191L1635,1344Z" fill="#04706a" stroke="#04706a" stroke-width="1.51"/><path d="M1608,495L1646,724L1730,513Z" fill="#3c8fa2" stroke="#3c8fa2" stroke-width="1.51"/><path d="M1621,988L1631,1097L1734,956Z" fill="#057a7a" stroke="#057a7a" stroke-width="1.51"/><path d="M1666,371L1730,513L1738,362Z" fill="#5795a2" stroke="#5795a2" stroke-width="1.51"/><path d="M1646,724L1743,837L1746,712Z" fill="#238396" stroke="#238396" stroke-width="1.51"/><path d="M1585,227L1666,371L1753,185Z" fill="#6d9eaa" stroke="#6d9eaa" stroke-width="1.51"/><path d="M1734,956L1631,1097L1769,1091Z" fill="#057672" stroke="#057672" stroke-width="1.51"/><path d="M1666,371L1608,495L1730,513Z" fill="#4f95a5" stroke="#4f95a5" stroke-width="1.51"/><path d="M1620,800L1621,988L1734,956Z" fill="#0d7f87" stroke="#0d7f87" stroke-width="1.51"/><path d="M1620,800L1734,956L1743,837Z" fill="#167f8a" stroke="#167f8a" stroke-width="1.51"/><path d="M1646,724L1620,800L1743,837Z" fill="#208396" stroke="#208396" stroke-width="1.51"/><path d="M1638,104L1585,227L1753,185Z" fill="#76a3ad" stroke="#76a3ad" stroke-width="1.51"/><path d="M1514,-12L1638,104L1675,-110Z" fill="#86adb6" stroke="#86adb6" stroke-width="1.51"/><path d="M1620,800L1480,950L1621,988Z" fill="#0d828e" stroke="#0d828e" stroke-width="1.51"/><path d="M1608,495L1485,652L1646,724Z" fill="#3690a7" stroke="#3690a7" stroke-width="1.51"/><path d="M1585,227L1531,237L1666,371Z" fill="#6ca1b0" stroke="#6ca1b0" stroke-width="1.51"/><path d="M1665,-164L1514,-12L1675,-110Z" fill="#8cb0b7" stroke="#8cb0b7" stroke-width="1.51"/><path d="M1459,887L1480,950L1620,800Z" fill="#178597" stroke="#178597" stroke-width="1.51"/><path d="M1467,-209L1514,-12L1665,-164Z" fill="#8fb4be" stroke="#8fb4be" stroke-width="1.51"/><path d="M1531,237L1463,340L1666,371Z" fill="#69a0b3" stroke="#69a0b3" stroke-width="1.51"/><path d="M1463,340L1608,495L1666,371Z" fill="#5b9bae" stroke="#5b9bae" stroke-width="1.51"/><path d="M1458,581L1485,652L1608,495Z" fill="#3f94af" stroke="#3f94af" stroke-width="1.51"/><path d="M1485,652L1620,800L1646,724Z" fill="#2789a4" stroke="#2789a4" stroke-width="1.51"/><path d="M1621,988L1480,950L1631,1097Z" fill="#047d81" stroke="#047d81" stroke-width="1.51"/><path d="M1530,1191L1432,1302L1635,1344Z" fill="#086b68" stroke="#086b68" stroke-width="1.51"/><path d="M1531,237L1585,227L1638,104Z" fill="#76a5b3" stroke="#76a5b3" stroke-width="1.51"/><path d="M1458,53L1531,237L1638,104Z" fill="#7ea9b8" stroke="#7ea9b8" stroke-width="1.51"/><path d="M1514,-12L1458,53L1638,104Z" fill="#85acbb" stroke="#85acbb" stroke-width="1.51"/><path d="M1480,950L1530,1191L1631,1097Z" fill="#067b7c" stroke="#067b7c" stroke-width="1.51"/><path d="M1485,652L1459,887L1620,800Z" fill="#2389a4" stroke="#2389a4" stroke-width="1.51"/><path d="M1480,950L1377,1130L1530,1191Z" fill="#137c82" stroke="#137c82" stroke-width="1.51"/><path d="M1463,340L1386,497L1608,495Z" fill="#589bb5" stroke="#589bb5" stroke-width="1.51"/><path d="M1386,497L1458,581L1608,495Z" fill="#4898b3" stroke="#4898b3" stroke-width="1.51"/><path d="M1373,430L1386,497L1463,340Z" fill="#609ebd" stroke="#609ebd" stroke-width="1.51"/><path d="M1344,874L1459,887L1485,652Z" fill="#278aa9" stroke="#278aa9" stroke-width="1.51"/><path d="M1297,682L1344,874L1485,652Z" fill="#318eb6" stroke="#318eb6" stroke-width="1.51"/><path d="M1467,-209L1293,-96L1514,-12Z" fill="#94b6c9" stroke="#94b6c9" stroke-width="1.51"/><path d="M1350,1246L1432,1302L1530,1191Z" fill="#157174" stroke="#157174" stroke-width="1.51"/><path d="M1377,1130L1350,1246L1530,1191Z" fill="#17777b" stroke="#17777b" stroke-width="1.51"/><path d="M1458,53L1313,131L1531,237Z" fill="#82abc2" stroke="#82abc2" stroke-width="1.51"/><path d="M1308,288L1463,340L1531,237Z" fill="#72a4be" stroke="#72a4be" stroke-width="1.51"/><path d="M1313,131L1308,288L1531,237Z" fill="#7da9c5" stroke="#7da9c5" stroke-width="1.51"/><path d="M1293,-96L1458,53L1514,-12Z" fill="#8fb2c7" stroke="#8fb2c7" stroke-width="1.51"/><path d="M1333,940L1377,1130L1480,950Z" fill="#198292" stroke="#198292" stroke-width="1.51"/><path d="M1458,581L1297,682L1485,652Z" fill="#3d92b6" stroke="#3d92b6" stroke-width="1.51"/><path d="M1459,887L1333,940L1480,950Z" fill="#1a8699" stroke="#1a8699" stroke-width="1.51"/><path d="M1325,-259L1293,-96L1467,-209Z" fill="#9cbbd1" stroke="#9cbbd1" stroke-width="1.51"/><path d="M1293,-96L1313,131L1458,53Z" fill="#8fb2cd" stroke="#8fb2cd" stroke-width="1.51"/><path d="M1344,874L1333,940L1459,887Z" fill="#2088a0" stroke="#2088a0" stroke-width="1.51"/><path d="M1308,288L1373,430L1463,340Z" fill="#6da2c2" stroke="#6da2c2" stroke-width="1.51"/><path d="M1386,497L1297,682L1458,581Z" fill="#4596bb" stroke="#4596bb" stroke-width="1.51"/><path d="M1040,-235L1168,-207L1325,-259Z" fill="#a8c4de" stroke="#a8c4de" stroke-width="1.51"/><path d="M1350,1246L1201,1305L1432,1302Z" fill="#1d717a" stroke="#1d717a" stroke-width="1.51"/><path d="M1172,-7L1216,108L1293,-96Z" fill="#98b6d7" stroke="#98b6d7" stroke-width="1.51"/><path d="M1293,-96L1216,108L1313,131Z" fill="#92b3d3" stroke="#92b3d3" stroke-width="1.51"/><path d="M1237,199L1308,288L1313,131Z" fill="#83acce" stroke="#83acce" stroke-width="1.51"/><path d="M1297,682L1219,825L1344,874Z" fill="#318eb7" stroke="#318eb7" stroke-width="1.51"/><path d="M1333,940L1130,1097L1377,1130Z" fill="#238396" stroke="#238396" stroke-width="1.51"/><path d="M1373,430L1199,547L1386,497Z" fill="#579dc3" stroke="#579dc3" stroke-width="1.51"/><path d="M1199,547L1297,682L1386,497Z" fill="#4b99c3" stroke="#4b99c3" stroke-width="1.51"/><path d="M1146,964L1130,1097L1333,940Z" fill="#2a89a0" stroke="#2a89a0" stroke-width="1.51"/><path d="M1308,288L1195,390L1373,430Z" fill="#6ea4c9" stroke="#6ea4c9" stroke-width="1.51"/><path d="M1195,390L1199,547L1373,430Z" fill="#61a0ca" stroke="#61a0ca" stroke-width="1.51"/><path d="M1130,1097L1350,1246L1377,1130Z" fill="#237d89" stroke="#237d89" stroke-width="1.51"/><path d="M1047,1279L907,1337L1201,1305Z" fill="#337882" stroke="#337882" stroke-width="1.51"/><path d="M1168,-207L1293,-96L1325,-259Z" fill="#a1bedb" stroke="#a1bedb" stroke-width="1.51"/><path d="M1130,1097L1201,1305L1350,1246Z" fill="#277a87" stroke="#277a87" stroke-width="1.51"/><path d="M1219,825L1333,940L1344,874Z" fill="#288aab" stroke="#288aab" stroke-width="1.51"/><path d="M1174,734L1219,825L1297,682Z" fill="#3991c1" stroke="#3991c1" stroke-width="1.51"/><path d="M1219,825L1146,964L1333,940Z" fill="#2b8bab" stroke="#2b8bab" stroke-width="1.51"/><path d="M1216,108L1237,199L1313,131Z" fill="#8bafd3" stroke="#8bafd3" stroke-width="1.51"/><path d="M1237,199L1195,390L1308,288Z" fill="#7ca9cf" stroke="#7ca9cf" stroke-width="1.51"/><path d="M1130,1097L1075,1181L1201,1305Z" fill="#2f7f8b" stroke="#2f7f8b" stroke-width="1.51"/><path d="M1199,547L1174,734L1297,682Z" fill="#4697c4" stroke="#4697c4" stroke-width="1.51"/><path d="M1168,-207L1172,-7L1293,-96Z" fill="#a0bbda" stroke="#a0bbda" stroke-width="1.51"/><path d="M1030,664L1174,734L1199,547Z" fill="#4f9bc7" stroke="#4f9bc7" stroke-width="1.51"/><path d="M1216,108L1048,207L1237,199Z" fill="#8eb2d5" stroke="#8eb2d5" stroke-width="1.51"/><path d="M1048,207L1195,390L1237,199Z" fill="#84aed2" stroke="#84aed2" stroke-width="1.51"/><path d="M1078,784L1077,955L1146,964Z" fill="#3991af" stroke="#3991af" stroke-width="1.51"/><path d="M1195,390L998,427L1199,547Z" fill="#6aa6cd" stroke="#6aa6cd" stroke-width="1.51"/><path d="M1075,1181L1047,1279L1201,1305Z" fill="#307b86" stroke="#307b86" stroke-width="1.51"/><path d="M1172,-7L1062,66L1216,108Z" fill="#99b8d7" stroke="#99b8d7" stroke-width="1.51"/><path d="M1062,66L1048,207L1216,108Z" fill="#96b7d7" stroke="#96b7d7" stroke-width="1.51"/><path d="M1174,734L1078,784L1219,825Z" fill="#3d93be" stroke="#3d93be" stroke-width="1.51"/><path d="M1078,784L1146,964L1219,825Z" fill="#3991b4" stroke="#3991b4" stroke-width="1.51"/><path d="M1168,-207L1009,-9L1172,-7Z" fill="#a4bfdc" stroke="#a4bfdc" stroke-width="1.51"/><path d="M1040,-235L1009,-9L1168,-207Z" fill="#abc4de" stroke="#abc4de" stroke-width="1.51"/><path d="M1048,207L998,427L1195,390Z" fill="#80add2" stroke="#80add2" stroke-width="1.51"/><path d="M1001,595L1030,664L1199,547Z" fill="#58a0ca" stroke="#58a0ca" stroke-width="1.51"/><path d="M998,427L1001,595L1199,547Z" fill="#63a5cd" stroke="#63a5cd" stroke-width="1.51"/><path d="M1077,955L1130,1097L1146,964Z" fill="#338ca1" stroke="#338ca1" stroke-width="1.51"/><path d="M1030,664L1078,784L1174,734Z" fill="#4898c4" stroke="#4898c4" stroke-width="1.51"/><path d="M1009,-9L1062,66L1172,-7Z" fill="#a0bcda" stroke="#a0bcda" stroke-width="1.51"/><path d="M1077,955L1075,1181L1130,1097Z" fill="#348999" stroke="#348999" stroke-width="1.51"/><path d="M883,703L903,827L1030,664Z" fill="#559ec8" stroke="#559ec8" stroke-width="1.51"/><path d="M899,-67L1009,-9L1040,-235Z" fill="#adc6e0" stroke="#adc6e0" stroke-width="1.51"/><path d="M875,286L998,427L1048,207Z" fill="#8bb4d5" stroke="#8bb4d5" stroke-width="1.51"/><path d="M886,41L1048,207L1062,66Z" fill="#9ebcda" stroke="#9ebcda" stroke-width="1.51"/><path d="M837,1032L835,1150L1075,1181Z" fill="#448e98" stroke="#448e98" stroke-width="1.51"/><path d="M837,1032L1075,1181L1077,955Z" fill="#3d8e9e" stroke="#3d8e9e" stroke-width="1.51"/><path d="M903,827L1077,955L1078,784Z" fill="#4496b7" stroke="#4496b7" stroke-width="1.51"/><path d="M1030,664L903,827L1078,784Z" fill="#4d9ac5" stroke="#4d9ac5" stroke-width="1.51"/><path d="M903,827L837,1032L1077,955Z" fill="#4596ae" stroke="#4596ae" stroke-width="1.51"/><path d="M835,1150L1047,1279L1075,1181Z" fill="#3b858d" stroke="#3b858d" stroke-width="1.51"/><path d="M835,1150L907,1337L1047,1279Z" fill="#3f8289" stroke="#3f8289" stroke-width="1.51"/><path d="M1009,-9L886,41L1062,66Z" fill="#a4c0dd" stroke="#a4c0dd" stroke-width="1.51"/><path d="M998,427L865,486L1001,595Z" fill="#6eabd0" stroke="#6eabd0" stroke-width="1.51"/><path d="M875,-256L899,-67L1040,-235Z" fill="#b5cbe3" stroke="#b5cbe3" stroke-width="1.51"/><path d="M886,41L875,286L1048,207Z" fill="#9cbbda" stroke="#9cbbda" stroke-width="1.51"/><path d="M1001,595L883,703L1030,664Z" fill="#5aa1cb" stroke="#5aa1cb" stroke-width="1.51"/><path d="M875,286L844,379L998,427Z" fill="#8ab4d5" stroke="#8ab4d5" stroke-width="1.51"/><path d="M899,-67L886,41L1009,-9Z" fill="#acc3df" stroke="#acc3df" stroke-width="1.51"/><path d="M865,486L883,703L1001,595Z" fill="#67a7ce" stroke="#67a7ce" stroke-width="1.51"/><path d="M844,379L865,486L998,427Z" fill="#7fb1d3" stroke="#7fb1d3" stroke-width="1.51"/><path d="M865,486L719,530L883,703Z" fill="#74abd1" stroke="#74abd1" stroke-width="1.51"/><path d="M719,530L778,742L883,703Z" fill="#6fa7ce" stroke="#6fa7ce" stroke-width="1.51"/><path d="M705,226L875,286L886,41Z" fill="#a7bedc" stroke="#a7bedc" stroke-width="1.51"/><path d="M715,59L705,226L886,41Z" fill="#b3c4df" stroke="#b3c4df" stroke-width="1.51"/><path d="M875,-256L761,-187L899,-67Z" fill="#bccee5" stroke="#bccee5" stroke-width="1.51"/><path d="M734,-21L886,41L899,-67Z" fill="#b4c7e1" stroke="#b4c7e1" stroke-width="1.51"/><path d="M774,859L837,1032L903,827Z" fill="#569ab4" stroke="#569ab4" stroke-width="1.51"/><path d="M883,703L778,742L903,827Z" fill="#5e9fc8" stroke="#5e9fc8" stroke-width="1.51"/><path d="M835,1150L752,1335L907,1337Z" fill="#4a8389" stroke="#4a8389" stroke-width="1.51"/><path d="M774,859L742,1002L837,1032Z" fill="#589bae" stroke="#589bae" stroke-width="1.51"/><path d="M597,-261L761,-187L875,-256Z" fill="#c9d4e8" stroke="#c9d4e8" stroke-width="1.51"/><path d="M778,742L774,859L903,827Z" fill="#5f9ec2" stroke="#5f9ec2" stroke-width="1.51"/><path d="M761,-187L734,-21L899,-67Z" fill="#bdcbe3" stroke="#bdcbe3" stroke-width="1.51"/><path d="M734,-21L715,59L886,41Z" fill="#b8c7e1" stroke="#b8c7e1" stroke-width="1.51"/><path d="M750,367L844,379L875,286Z" fill="#95b7d7" stroke="#95b7d7" stroke-width="1.51"/><path d="M705,226L750,367L875,286Z" fill="#9fbbda" stroke="#9fbbda" stroke-width="1.51"/><path d="M723,1110L835,1150L837,1032Z" fill="#53939c" stroke="#53939c" stroke-width="1.51"/><path d="M844,379L750,367L865,486Z" fill="#8bb4d6" stroke="#8bb4d6" stroke-width="1.51"/><path d="M750,367L719,530L865,486Z" fill="#88b3d5" stroke="#88b3d5" stroke-width="1.51"/><path d="M314,-222L444,-217L597,-261Z" fill="#dfdeee" stroke="#dfdeee" stroke-width="1.51"/><path d="M723,1110L752,1335L835,1150Z" fill="#538d92" stroke="#538d92" stroke-width="1.51"/><path d="M742,1002L723,1110L837,1032Z" fill="#5896a4" stroke="#5896a4" stroke-width="1.51"/><path d="M637,77L705,226L715,59Z" fill="#b9c6e0" stroke="#b9c6e0" stroke-width="1.51"/><path d="M638,533L598,745L719,530Z" fill="#83afd3" stroke="#83afd3" stroke-width="1.51"/><path d="M705,226L625,282L750,367Z" fill="#a8bedc" stroke="#a8bedc" stroke-width="1.51"/><path d="M619,374L719,530L750,367Z" fill="#96b7d8" stroke="#96b7d8" stroke-width="1.51"/><path d="M723,1110L559,1180L752,1335Z" fill="#5d8f92" stroke="#5d8f92" stroke-width="1.51"/><path d="M559,1180L564,1331L752,1335Z" fill="#5e898c" stroke="#5e898c" stroke-width="1.51"/><path d="M559,-84L734,-21L761,-187Z" fill="#c8cfe6" stroke="#c8cfe6" stroke-width="1.51"/><path d="M574,860L742,1002L774,859Z" fill="#669fb7" stroke="#669fb7" stroke-width="1.51"/><path d="M598,745L574,860L774,859Z" fill="#71a4c3" stroke="#71a4c3" stroke-width="1.51"/><path d="M598,745L774,859L778,742Z" fill="#6ca3c7" stroke="#6ca3c7" stroke-width="1.51"/><path d="M719,530L598,745L778,742Z" fill="#78a9cf" stroke="#78a9cf" stroke-width="1.51"/><path d="M619,374L638,533L719,530Z" fill="#91b6d7" stroke="#91b6d7" stroke-width="1.51"/><path d="M597,-261L559,-84L761,-187Z" fill="#cfd5e9" stroke="#cfd5e9" stroke-width="1.51"/><path d="M574,860L570,1041L742,1002Z" fill="#689fb0" stroke="#689fb0" stroke-width="1.51"/><path d="M625,282L619,374L750,367Z" fill="#a5bcdb" stroke="#a5bcdb" stroke-width="1.51"/><path d="M570,1041L723,1110L742,1002Z" fill="#6199a5" stroke="#6199a5" stroke-width="1.51"/><path d="M637,77L715,59L734,-21Z" fill="#bec9e2" stroke="#bec9e2" stroke-width="1.51"/><path d="M559,-84L637,77L734,-21Z" fill="#c6cde5" stroke="#c6cde5" stroke-width="1.51"/><path d="M570,1041L559,1180L723,1110Z" fill="#65989e" stroke="#65989e" stroke-width="1.51"/><path d="M637,77L625,282L705,226Z" fill="#b5c3df" stroke="#b5c3df" stroke-width="1.51"/><path d="M-61,-250L136,-202L314,-222Z" fill="#efe7f3" stroke="#efe7f3" stroke-width="1.51"/><path d="M447,342L475,571L619,374Z" fill="#a4bddb" stroke="#a4bddb" stroke-width="1.51"/><path d="M441,130L411,186L625,282Z" fill="#c0c9e2" stroke="#c0c9e2" stroke-width="1.51"/><path d="M441,130L625,282L637,77Z" fill="#bec8e1" stroke="#bec8e1" stroke-width="1.51"/><path d="M559,-84L441,130L637,77Z" fill="#c9cee5" stroke="#c9cee5" stroke-width="1.51"/><path d="M461,645L598,745L638,533Z" fill="#86b0d3" stroke="#86b0d3" stroke-width="1.51"/><path d="M475,571L461,645L638,533Z" fill="#8fb5d6" stroke="#8fb5d6" stroke-width="1.51"/><path d="M619,374L475,571L638,533Z" fill="#96b8d8" stroke="#96b8d8" stroke-width="1.51"/><path d="M455,990L570,1041L574,860Z" fill="#70a3b2" stroke="#70a3b2" stroke-width="1.51"/><path d="M80,1271L-37,1317L389,1309Z" fill="#799692" stroke="#799692" stroke-width="1.51"/><path d="M444,-217L559,-84L597,-261Z" fill="#d7d9eb" stroke="#d7d9eb" stroke-width="1.51"/><path d="M447,342L619,374L625,282Z" fill="#adc0dd" stroke="#adc0dd" stroke-width="1.51"/><path d="M411,186L447,342L625,282Z" fill="#b8c5df" stroke="#b8c5df" stroke-width="1.51"/><path d="M457,-91L441,130L559,-84Z" fill="#d1d3e7" stroke="#d1d3e7" stroke-width="1.51"/><path d="M444,-217L457,-91L559,-84Z" fill="#d8d8ea" stroke="#d8d8ea" stroke-width="1.51"/><path d="M459,1092L559,1180L570,1041Z" fill="#6c9ba1" stroke="#6c9ba1" stroke-width="1.51"/><path d="M429,817L574,860L598,745Z" fill="#7ba8c8" stroke="#7ba8c8" stroke-width="1.51"/><path d="M461,645L429,817L598,745Z" fill="#83acd1" stroke="#83acd1" stroke-width="1.51"/><path d="M559,1180L389,1309L564,1331Z" fill="#678e8f" stroke="#678e8f" stroke-width="1.51"/><path d="M429,817L455,990L574,860Z" fill="#79a7bd" stroke="#79a7bd" stroke-width="1.51"/><path d="M455,990L459,1092L570,1041Z" fill="#70a0a9" stroke="#70a0a9" stroke-width="1.51"/><path d="M459,1092L389,1309L559,1180Z" fill="#6d9797" stroke="#6d9797" stroke-width="1.51"/><path d="M251,1243L80,1271L389,1309Z" fill="#769593" stroke="#769593" stroke-width="1.51"/><path d="M276,1110L251,1243L389,1309Z" fill="#769997" stroke="#769997" stroke-width="1.51"/><path d="M230,-16L278,141L441,130Z" fill="#d5d3e7" stroke="#d5d3e7" stroke-width="1.51"/><path d="M240,393L326,582L447,342Z" fill="#aec2de" stroke="#aec2de" stroke-width="1.51"/><path d="M230,-16L441,130L457,-91Z" fill="#d7d5e8" stroke="#d7d5e8" stroke-width="1.51"/><path d="M276,1110L389,1309L459,1092Z" fill="#759d9b" stroke="#759d9b" stroke-width="1.51"/><path d="M273,704L429,817L461,645Z" fill="#8db1d4" stroke="#8db1d4" stroke-width="1.51"/><path d="M326,582L461,645L475,571Z" fill="#96b7d8" stroke="#96b7d8" stroke-width="1.51"/><path d="M447,342L326,582L475,571Z" fill="#a0bddb" stroke="#a0bddb" stroke-width="1.51"/><path d="M411,186L282,205L447,342Z" fill="#c3cbe3" stroke="#c3cbe3" stroke-width="1.51"/><path d="M429,817L236,820L455,990Z" fill="#82abc1" stroke="#82abc1" stroke-width="1.51"/><path d="M236,820L230,1034L455,990Z" fill="#80aab8" stroke="#80aab8" stroke-width="1.51"/><path d="M444,-217L314,-222L457,-91Z" fill="#e0ddec" stroke="#e0ddec" stroke-width="1.51"/><path d="M455,990L276,1110L459,1092Z" fill="#77a2a8" stroke="#77a2a8" stroke-width="1.51"/><path d="M326,582L273,704L461,645Z" fill="#97b6d7" stroke="#97b6d7" stroke-width="1.51"/><path d="M230,1034L276,1110L455,990Z" fill="#7da5ac" stroke="#7da5ac" stroke-width="1.51"/><path d="M314,-222L230,-16L457,-91Z" fill="#e1dbec" stroke="#e1dbec" stroke-width="1.51"/><path d="M282,205L240,393L447,342Z" fill="#bfc9e2" stroke="#bfc9e2" stroke-width="1.51"/><path d="M278,141L411,186L441,130Z" fill="#cdcfe5" stroke="#cdcfe5" stroke-width="1.51"/><path d="M273,704L236,820L429,817Z" fill="#8db1cf" stroke="#8db1cf" stroke-width="1.51"/><path d="M278,141L282,205L411,186Z" fill="#cdcfe5" stroke="#cdcfe5" stroke-width="1.51"/><path d="M230,-16L181,80L278,141Z" fill="#dad7ea" stroke="#dad7ea" stroke-width="1.51"/><path d="M174,340L240,393L282,205Z" fill="#c3cbe3" stroke="#c3cbe3" stroke-width="1.51"/><path d="M136,-202L230,-16L314,-222Z" fill="#e7e1ef" stroke="#e7e1ef" stroke-width="1.51"/><path d="M240,393L147,486L326,582Z" fill="#acc3de" stroke="#acc3de" stroke-width="1.51"/><path d="M162,684L273,704L326,582Z" fill="#9ab9d9" stroke="#9ab9d9" stroke-width="1.51"/><path d="M147,486L162,684L326,582Z" fill="#a3bedc" stroke="#a3bedc" stroke-width="1.51"/><path d="M180,1154L251,1243L276,1110Z" fill="#7ca09d" stroke="#7ca09d" stroke-width="1.51"/><path d="M187,198L174,340L282,205Z" fill="#cbcfe6" stroke="#cbcfe6" stroke-width="1.51"/><path d="M88,851L159,1043L230,1034Z" fill="#87adb7" stroke="#87adb7" stroke-width="1.51"/><path d="M88,851L230,1034L236,820Z" fill="#8ab0c1" stroke="#8ab0c1" stroke-width="1.51"/><path d="M162,684L236,820L273,704Z" fill="#95b4d6" stroke="#95b4d6" stroke-width="1.51"/><path d="M278,141L187,198L282,205Z" fill="#d0d1e6" stroke="#d0d1e6" stroke-width="1.51"/><path d="M181,80L187,198L278,141Z" fill="#d6d4e8" stroke="#d6d4e8" stroke-width="1.51"/><path d="M230,1034L180,1154L276,1110Z" fill="#7fa5a6" stroke="#7fa5a6" stroke-width="1.51"/><path d="M136,-202L109,-7L230,-16Z" fill="#e7dfef" stroke="#e7dfef" stroke-width="1.51"/><path d="M159,1043L180,1154L230,1034Z" fill="#81a7aa" stroke="#81a7aa" stroke-width="1.51"/><path d="M180,1154L80,1271L251,1243Z" fill="#7c9d99" stroke="#7c9d99" stroke-width="1.51"/><path d="M162,684L88,851L236,820Z" fill="#94b4d1" stroke="#94b4d1" stroke-width="1.51"/><path d="M174,340L147,486L240,393Z" fill="#b9c8e2" stroke="#b9c8e2" stroke-width="1.51"/><path d="M109,-7L181,80L230,-16Z" fill="#e0dbec" stroke="#e0dbec" stroke-width="1.51"/><path d="M88,851L-47,973L159,1043Z" fill="#8cb1bb" stroke="#8cb1bb" stroke-width="1.51"/><path d="M147,486L-66,586L162,684Z" fill="#a9c2de" stroke="#a9c2de" stroke-width="1.51"/><path d="M-48,397L147,486L174,340Z" fill="#becbe3" stroke="#becbe3" stroke-width="1.51"/><path d="M-44,281L174,340L187,198Z" fill="#ced1e6" stroke="#ced1e6" stroke-width="1.51"/><path d="M181,80L-48,141L187,198Z" fill="#dbd7e9" stroke="#dbd7e9" stroke-width="1.51"/><path d="M-48,141L-44,281L187,198Z" fill="#d7d6ea" stroke="#d7d6ea" stroke-width="1.51"/><path d="M-17,721L88,851L162,684Z" fill="#9ab8d6" stroke="#9ab8d6" stroke-width="1.51"/><path d="M159,1043L-42,1109L180,1154Z" fill="#84a9a8" stroke="#84a9a8" stroke-width="1.51"/><path d="M109,-7L-48,141L181,80Z" fill="#e1dbec" stroke="#e1dbec" stroke-width="1.51"/><path d="M13,-13L109,-7L136,-202Z" fill="#eae1ef" stroke="#eae1ef" stroke-width="1.51"/><path d="M-66,586L-17,721L162,684Z" fill="#a4bedc" stroke="#a4bedc" stroke-width="1.51"/><path d="M-42,1109L80,1271L180,1154Z" fill="#83a4a0" stroke="#83a4a0" stroke-width="1.51"/><path d="M-44,281L-48,397L174,340Z" fill="#c9d0e6" stroke="#c9d0e6" stroke-width="1.51"/><path d="M13,-13L-48,141L109,-7Z" fill="#e5deed" stroke="#e5deed" stroke-width="1.51"/><path d="M-47,973L-42,1109L159,1043Z" fill="#8aaeb1" stroke="#8aaeb1" stroke-width="1.51"/><path d="M-61,-250L13,-13L136,-202Z" fill="#f0e7f2" stroke="#f0e7f2" stroke-width="1.51"/><path d="M-48,397L-66,586L147,486Z" fill="#b6c9e2" stroke="#b6c9e2" stroke-width="1.51"/><path d="M-17,721L-59,811L88,851Z" fill="#9ab9d2" stroke="#9ab9d2" stroke-width="1.51"/><path d="M-61,-250L-126,-55L13,-13Z" fill="#f1e7f2" stroke="#f1e7f2" stroke-width="1.51"/><path d="M-42,1109L-37,1317L80,1271Z" fill="#82a19b" stroke="#82a19b" stroke-width="1.51"/><path d="M-59,811L-47,973L88,851Z" fill="#94b6c7" stroke="#94b6c7" stroke-width="1.51"/><path d="M-113,-244L-126,-55L-61,-250Z" fill="#f6edf6" stroke="#f6edf6" stroke-width="1.51"/><path d="M-126,-55L-192,71L-48,141Z" fill="#e9e3f0" stroke="#e9e3f0" stroke-width="1.51"/><path d="M-148,551L-66,586L-48,397Z" fill="#b6cce3" stroke="#b6cce3" stroke-width="1.51"/><path d="M-42,1109L-120,1321L-37,1317Z" fill="#83a19b" stroke="#83a19b" stroke-width="1.51"/><path d="M-126,-55L-48,141L13,-13Z" fill="#e8e1ef" stroke="#e8e1ef" stroke-width="1.51"/><path d="M-59,811L-176,965L-47,973Z" fill="#94b8c3" stroke="#94b8c3" stroke-width="1.51"/><path d="M-48,141L-174,222L-44,281Z" fill="#dadaeb" stroke="#dadaeb" stroke-width="1.51"/><path d="M-47,973L-197,1096L-42,1109Z" fill="#8db1b1" stroke="#8db1b1" stroke-width="1.51"/><path d="M-197,1096L-120,1321L-42,1109Z" fill="#88aba3" stroke="#88aba3" stroke-width="1.51"/><path d="M-200,677L-59,811L-17,721Z" fill="#a2bedc" stroke="#a2bedc" stroke-width="1.51"/><path d="M-66,586L-200,677L-17,721Z" fill="#a8c3de" stroke="#a8c3de" stroke-width="1.51"/><path d="M-201,817L-176,965L-59,811Z" fill="#99bbcc" stroke="#99bbcc" stroke-width="1.51"/><path d="M-200,677L-201,817L-59,811Z" fill="#a1bed9" stroke="#a1bed9" stroke-width="1.51"/><path d="M-171,393L-148,551L-48,397Z" fill="#c0d0e6" stroke="#c0d0e6" stroke-width="1.51"/><path d="M-176,965L-197,1096L-47,973Z" fill="#90b5b8" stroke="#90b5b8" stroke-width="1.51"/><path d="M-171,393L-48,397L-44,281Z" fill="#cbd3e8" stroke="#cbd3e8" stroke-width="1.51"/><path d="M-174,222L-171,393L-44,281Z" fill="#d3d7ea" stroke="#d3d7ea" stroke-width="1.51"/><path d="M-192,71L-174,222L-48,141Z" fill="#e3dfee" stroke="#e3dfee" stroke-width="1.51"/><path d="M-148,551L-200,677L-66,586Z" fill="#aec8e1" stroke="#aec8e1" stroke-width="1.51"/><path d="M-192,71L-126,-55L-113,-244Z" fill="#f2e9f3" stroke="#f2e9f3" stroke-width="1.51"/><path d="M-171,393L-200,677L-148,551Z" fill="#b5cde4" stroke="#b5cde4" stroke-width="1.51"/><path d="M-174,222L-192,71L-171,393Z" fill="#dcdded" stroke="#dcdded" stroke-width="1.51"/><path d="M-192,71L-200,677L-171,393Z" fill="#cbd5e9" stroke="#cbd5e9" stroke-width="1.51"/><path d="M-201,817L-197,1096L-176,965Z" fill="#93b9bf" stroke="#93b9bf" stroke-width="1.51"/></svg>