<?xml version="1.0" encoding="utf-8"?>
<!-- Generator: Adobe Illustrator 21.1.0, SVG Export Plug-In . SVG Version: 6.00 Build 0)  -->
<svg version="1.1" id="Livello_1" xmlns="http://www.w3.org/2000/svg" xmlns:xlink="http://www.w3.org/1999/xlink" x="0px" y="0px"
	 viewBox="0 0 600 600" style="enable-background:new 0 0 600 600;" xml:space="preserve">
<style type="text/css">
	.st0{fill:#209B60;}
</style>
<path class="st0" d="M277,86.8L32.6,162.3c-1.6,0.4-2.6,1.8-2.6,3.6v33.8c0,2.4,2.2,4,4.3,3.6l74.1-16.6c2.2-0.6,4.3,1.2,4.3,3.6
	v319.7c0,2,1.6,3.6,3.6,3.6h179.4h270.7c2,0,3.6-1.6,3.6-3.6V326.7c0-1.2-0.4-2.2-1.4-2.8L280.1,87.6
	C279.4,86.6,278.2,86.4,277,86.8z M535.8,500.3H299.7c-2,0-3.6-1.6-3.6-3.6V461c0-2.2,1.8-3.8,4-3.6l236.1,18.8
	c2,0.2,3.4,1.8,3.4,3.6v17C539.4,498.8,537.8,500.3,535.8,500.3z M535.4,461.6l-236.1-23.5c-1.8-0.2-3.4-1.8-3.4-3.6v-50.2
	c0-2.2,2-4,4.3-3.6l236.1,42.9c1.8,0.4,3,1.8,3,3.6v30.6C539.4,460,537.6,461.8,535.4,461.6z M535,409.5l-236.1-56.1
	c-1.6-0.4-2.8-1.8-2.8-3.6v-54.1c0-2.4,2.4-4.1,4.7-3.6L537,362.2c1.6,0.4,2.6,1.8,2.6,3.6v40.1C539.4,408.3,537.2,410.1,535,409.5z
	 M534.4,351l-236.1-90.3c-1.4-0.6-2.4-2-2.4-3.4v-74.7c0-2.8,3.2-4.5,5.5-3.2l236.1,141.1c1.2,0.6,1.8,1.8,1.8,3.2v24.1
	C539.4,350,536.8,351.8,534.4,351z"/>
</svg>
