<?xml version="1.0" encoding="utf-8"?>
<!-- Generator: Adobe Illustrator 22.1.0, SVG Export Plug-In . SVG Version: 6.00 Build 0)  -->
<svg version="1.1" id="unknown" xmlns:sketch="http://www.bohemiancoding.com/sketch/ns"
	 xmlns="http://www.w3.org/2000/svg" xmlns:xlink="http://www.w3.org/1999/xlink" x="0px" y="0px" viewBox="0 0 1200 1200"
	 style="enable-background:new 0 0 1200 1200;" xml:space="preserve">
<style type="text/css">
	.st0{fill:#F5EEE5;}
	.st1{fill:#E6C19C;}
	.st2{clip-path:url(#SVGID_2_);fill:#D4B08C;}
	.st3{fill:#F2CEA5;}
</style>
<g>
	<g>
		<rect y="0" class="st0" width="1200" height="1200"/>
		<g>
			<g>
				<path id="shoulders" class="st1" d="M756,862.8c0,48,56.4,62.4,85.2,69.6c91.2,24,273.6,70.8,273.6,70.8
					c38.4,13.2,68.4,42,85.2,79.2V1200H0v-117.6c15.6-37.2,46.8-66,85.2-79.2c0,0,182.4-46.8,273.6-70.8
					c28.8-7.2,85.2-21.6,85.2-69.6s0-130.8,0-130.8h312C756,732,756,814.8,756,862.8z"/>
			</g>
			<g>
				<defs>
					<path id="SVGID_1_" d="M756,862.8c0,48,56.4,62.4,85.2,69.6c91.2,24,273.6,70.8,273.6,70.8c38.4,13.2,68.4,42,85.2,79.2V1200H0
						v-117.6c15.6-37.2,46.8-66,85.2-79.2c0,0,182.4-46.8,273.6-70.8c28.8-7.2,85.2-21.6,85.2-69.6s0-130.8,0-130.8h312
						C756,732,756,814.8,756,862.8z"/>
				</defs>
				<clipPath id="SVGID_2_">
					<use xlink:href="#SVGID_1_"  style="overflow:visible;"/>
				</clipPath>
				<path id="head-shadow" class="st2" d="M602.4,132c1.2,0,1.2,0,2.4,0l0,0c39.6,0,98.4,2.4,136.8,24
					c39.6,22.8,87.6,67.2,102,145.2C872.4,465.6,818.4,726,768,810c-48,80.4-117.6,110.4-162,112.8h-1.2c-1.2,0-1.2,0-2.4,0
					s-1.2,0-2.4,0h-1.2c-44.4-2.4-114-32.4-162-112.8c-50.4-84-104.4-344.4-75.6-508.8c14.4-78,62.4-122.4,102-145.2
					c38.4-21.6,97.2-24,136.8-24l0,0C601.2,132,601.2,132,602.4,132L602.4,132z"/>
			</g>
		</g>
	</g>
	<path id="head" class="st3" d="M595.2,192c229.2,0,248.4,165.6,249.6,181.2c13.2,142.8-36,337.2-81.6,404.4
		c-48,70.8-117.6,97.2-162,99.6c-2.4,0-2.4,0-3.6,0s-1.2,0-2.4,0c-45.6-3.6-115.2-30-163.2-100.8c-45.6-67.2-94.8-261.6-81.6-405.6
		C351.6,356.4,366,192,595.2,192z"/>
</g>
</svg>
