<svg xmlns="http://www.w3.org/2000/svg" width="1920" height="1080"><path d="M389,1309L-37,1317L564,1331Z" fill="#749c66" stroke="#749c66" stroke-width="1.51"/><path d="M-37,1317L-120,1321L564,1331Z" fill="#7c9f6c" stroke="#7c9f6c" stroke-width="1.51"/><path d="M597,-261L875,-256L1325,-259Z" fill="#bfe4ac" stroke="#bfe4ac" stroke-width="1.51"/><path d="M875,-256L1040,-235L1325,-259Z" fill="#b3dda5" stroke="#b3dda5" stroke-width="1.51"/><path d="M1432,1302L1201,1305L1635,1344Z" fill="#1a703d" stroke="#1a703d" stroke-width="1.51"/><path d="M1201,1305L907,1337L1635,1344Z" fill="#247a44" stroke="#247a44" stroke-width="1.51"/><path d="M597,-261L1325,-259L1804,-264Z" fill="#a6d79e" stroke="#a6d79e" stroke-width="1.51"/><path d="M1962,-62L1976,85L2043,-110Z" fill="#7fa66f" stroke="#7fa66f" stroke-width="1.51"/><path d="M1743,1335L1635,1344L2055,1320Z" fill="#035b32" stroke="#035b32" stroke-width="1.51"/><path d="M1947,1289L1743,1335L2055,1320Z" fill="#005730" stroke="#005730" stroke-width="1.51"/><path d="M2043,-110L1976,85L2062,145Z" fill="#79a26a" stroke="#79a26a" stroke-width="1.51"/><path d="M1907,661L2081,731L2100,528Z" fill="#34854c" stroke="#34854c" stroke-width="1.51"/><path d="M1898,593L1907,661L2100,528Z" fill="#3b8b51" stroke="#3b8b51" stroke-width="1.51"/><path d="M2075,269L2064,380L2100,528Z" fill="#548f58" stroke="#548f58" stroke-width="1.51"/><path d="M2062,145L2075,269L2123,-175Z" fill="#759d67" stroke="#759d67" stroke-width="1.51"/><path d="M2043,-110L2062,145L2123,-175Z" fill="#7ea16e" stroke="#7ea16e" stroke-width="1.51"/><path d="M2075,269L2100,528L2123,-175Z" fill="#699761" stroke="#699761" stroke-width="1.51"/><path d="M2034,1152L2055,1320L2131,817Z" fill="#055f34" stroke="#055f34" stroke-width="1.51"/><path d="M2047,965L2034,1152L2131,817Z" fill="#106737" stroke="#106737" stroke-width="1.51"/><path d="M2081,731L1911,828L2131,817Z" fill="#1f7943" stroke="#1f7943" stroke-width="1.51"/><path d="M1911,828L2047,965L2131,817Z" fill="#19733e" stroke="#19733e" stroke-width="1.51"/><path d="M2100,528L2081,731L2131,817Z" fill="#2b7d47" stroke="#2b7d47" stroke-width="1.51"/><path d="M2123,-175L2100,528L2131,817Z" fill="#548d57" stroke="#548d57" stroke-width="1.51"/><path d="M2034,1152L1973,1187L2055,1320Z" fill="#005931" stroke="#005931" stroke-width="1.51"/><path d="M1938,-251L2043,-110L2123,-175Z" fill="#83a57a" stroke="#83a57a" stroke-width="1.51"/><path d="M2062,145L1984,188L2075,269Z" fill="#6b9b62" stroke="#6b9b62" stroke-width="1.51"/><path d="M2064,380L1937,445L2100,528Z" fill="#4d8f57" stroke="#4d8f57" stroke-width="1.51"/><path d="M1937,445L1898,593L2100,528Z" fill="#458f55" stroke="#458f55" stroke-width="1.51"/><path d="M1892,967L2034,1152L2047,965Z" fill="#0d6938" stroke="#0d6938" stroke-width="1.51"/><path d="M1973,1187L1947,1289L2055,1320Z" fill="#005730" stroke="#005730" stroke-width="1.51"/><path d="M1984,188L1937,445L2064,380Z" fill="#5d985d" stroke="#5d985d" stroke-width="1.51"/><path d="M1984,188L2064,380L2075,269Z" fill="#63985f" stroke="#63985f" stroke-width="1.51"/><path d="M1907,661L1911,828L2081,731Z" fill="#258247" stroke="#258247" stroke-width="1.51"/><path d="M1892,967L1973,1187L2034,1152Z" fill="#056536" stroke="#056536" stroke-width="1.51"/><path d="M1911,828L1892,967L2047,965Z" fill="#16733d" stroke="#16733d" stroke-width="1.51"/><path d="M1976,85L1984,188L2062,145Z" fill="#72a066" stroke="#72a066" stroke-width="1.51"/><path d="M1325,-259L1467,-209L1804,-264Z" fill="#97c38e" stroke="#97c38e" stroke-width="1.51"/><path d="M1938,-251L1962,-62L2043,-110Z" fill="#84a977" stroke="#84a977" stroke-width="1.51"/><path d="M1738,362L1937,445L1984,188Z" fill="#619f60" stroke="#619f60" stroke-width="1.51"/><path d="M1938,-251L1806,-109L1962,-62Z" fill="#87ae7a" stroke="#87ae7a" stroke-width="1.51"/><path d="M1892,967L1769,1091L1973,1187Z" fill="#086c38" stroke="#086c38" stroke-width="1.51"/><path d="M1962,-62L1791,81L1976,85Z" fill="#7da96e" stroke="#7da96e" stroke-width="1.51"/><path d="M1753,185L1738,362L1984,188Z" fill="#6ca666" stroke="#6ca666" stroke-width="1.51"/><path d="M1976,85L1791,81L1984,188Z" fill="#77a769" stroke="#77a769" stroke-width="1.51"/><path d="M1791,81L1753,185L1984,188Z" fill="#76aa6a" stroke="#76aa6a" stroke-width="1.51"/><path d="M1806,-109L1791,81L1962,-62Z" fill="#84af72" stroke="#84af72" stroke-width="1.51"/><path d="M1769,1091L1947,1289L1973,1187Z" fill="#006335" stroke="#006335" stroke-width="1.51"/><path d="M1769,1091L1743,1335L1947,1289Z" fill="#036335" stroke="#036335" stroke-width="1.51"/><path d="M1907,661L1746,712L1911,828Z" fill="#288a4b" stroke="#288a4b" stroke-width="1.51"/><path d="M1730,513L1898,593L1937,445Z" fill="#489758" stroke="#489758" stroke-width="1.51"/><path d="M1804,-264L1806,-109L1938,-251Z" fill="#89b282" stroke="#89b282" stroke-width="1.51"/><path d="M1738,362L1730,513L1937,445Z" fill="#559e5d" stroke="#559e5d" stroke-width="1.51"/><path d="M1743,837L1734,956L1892,967Z" fill="#1b7c40" stroke="#1b7c40" stroke-width="1.51"/><path d="M1743,837L1892,967L1911,828Z" fill="#1b7d41" stroke="#1b7d41" stroke-width="1.51"/><path d="M1746,712L1743,837L1911,828Z" fill="#248848" stroke="#248848" stroke-width="1.51"/><path d="M1898,593L1746,712L1907,661Z" fill="#358f4f" stroke="#358f4f" stroke-width="1.51"/><path d="M1734,956L1769,1091L1892,967Z" fill="#14753c" stroke="#14753c" stroke-width="1.51"/><path d="M1730,513L1746,712L1898,593Z" fill="#3f9554" stroke="#3f9554" stroke-width="1.51"/><path d="M-61,-250L314,-222L597,-261Z" fill="#f0f9c2" stroke="#f0f9c2" stroke-width="1.51"/><path d="M1631,1097L1635,1344L1743,1335Z" fill="#0d6837" stroke="#0d6837" stroke-width="1.51"/><path d="M1631,1097L1743,1335L1769,1091Z" fill="#0a6d39" stroke="#0a6d39" stroke-width="1.51"/><path d="M1675,-110L1638,104L1791,81Z" fill="#85b573" stroke="#85b573" stroke-width="1.51"/><path d="M1467,-209L1665,-164L1804,-264Z" fill="#91bc88" stroke="#91bc88" stroke-width="1.51"/><path d="M1675,-110L1791,81L1806,-109Z" fill="#88b475" stroke="#88b475" stroke-width="1.51"/><path d="M1804,-264L1665,-164L1806,-109Z" fill="#8cb681" stroke="#8cb681" stroke-width="1.51"/><path d="M1665,-164L1675,-110L1806,-109Z" fill="#8db87d" stroke="#8db87d" stroke-width="1.51"/><path d="M1730,513L1646,724L1746,712Z" fill="#3b9653" stroke="#3b9653" stroke-width="1.51"/><path d="M1666,371L1738,362L1753,185Z" fill="#6aa965" stroke="#6aa965" stroke-width="1.51"/><path d="M1638,104L1753,185L1791,81Z" fill="#7db16d" stroke="#7db16d" stroke-width="1.51"/><path d="M1631,1097L1530,1191L1635,1344Z" fill="#116f3a" stroke="#116f3a" stroke-width="1.51"/><path d="M1608,495L1646,724L1730,513Z" fill="#479d59" stroke="#479d59" stroke-width="1.51"/><path d="M1621,988L1631,1097L1734,956Z" fill="#1a7b3f" stroke="#1a7b3f" stroke-width="1.51"/><path d="M1666,371L1730,513L1738,362Z" fill="#5ca460" stroke="#5ca460" stroke-width="1.51"/><path d="M1646,724L1743,837L1746,712Z" fill="#2b8f4c" stroke="#2b8f4c" stroke-width="1.51"/><path d="M1585,227L1666,371L1753,185Z" fill="#71ae68" stroke="#71ae68" stroke-width="1.51"/><path d="M1734,956L1631,1097L1769,1091Z" fill="#15763d" stroke="#15763d" stroke-width="1.51"/><path d="M1666,371L1608,495L1730,513Z" fill="#57a45f" stroke="#57a45f" stroke-width="1.51"/><path d="M1620,800L1621,988L1734,956Z" fill="#228343" stroke="#228343" stroke-width="1.51"/><path d="M1620,800L1734,956L1743,837Z" fill="#238545" stroke="#238545" stroke-width="1.51"/><path d="M1646,724L1620,800L1743,837Z" fill="#2b8e4b" stroke="#2b8e4b" stroke-width="1.51"/><path d="M1638,104L1585,227L1753,185Z" fill="#7bb36d" stroke="#7bb36d" stroke-width="1.51"/><path d="M1514,-12L1638,104L1675,-110Z" fill="#8bbb77" stroke="#8bbb77" stroke-width="1.51"/><path d="M1620,800L1480,950L1621,988Z" fill="#268745" stroke="#268745" stroke-width="1.51"/><path d="M1608,495L1485,652L1646,724Z" fill="#449e58" stroke="#449e58" stroke-width="1.51"/><path d="M1585,227L1531,237L1666,371Z" fill="#71b16a" stroke="#71b16a" stroke-width="1.51"/><path d="M1665,-164L1514,-12L1675,-110Z" fill="#91bc7c" stroke="#91bc7c" stroke-width="1.51"/><path d="M1459,887L1480,950L1620,800Z" fill="#2b8d49" stroke="#2b8d49" stroke-width="1.51"/><path d="M1467,-209L1514,-12L1665,-164Z" fill="#94c082" stroke="#94c082" stroke-width="1.51"/><path d="M1531,237L1463,340L1666,371Z" fill="#6fb169" stroke="#6fb169" stroke-width="1.51"/><path d="M1463,340L1608,495L1666,371Z" fill="#63ab64" stroke="#63ab64" stroke-width="1.51"/><path d="M1458,581L1485,652L1608,495Z" fill="#4da55d" stroke="#4da55d" stroke-width="1.51"/><path d="M1485,652L1620,800L1646,724Z" fill="#359851" stroke="#359851" stroke-width="1.51"/><path d="M1621,988L1480,950L1631,1097Z" fill="#1e7f41" stroke="#1e7f41" stroke-width="1.51"/><path d="M1530,1191L1432,1302L1635,1344Z" fill="#146d3a" stroke="#146d3a" stroke-width="1.51"/><path d="M1531,237L1585,227L1638,104Z" fill="#7cb56e" stroke="#7cb56e" stroke-width="1.51"/><path d="M1458,53L1531,237L1638,104Z" fill="#84ba72" stroke="#84ba72" stroke-width="1.51"/><path d="M1514,-12L1458,53L1638,104Z" fill="#8abd76" stroke="#8abd76" stroke-width="1.51"/><path d="M1480,950L1530,1191L1631,1097Z" fill="#1b7c40" stroke="#1b7c40" stroke-width="1.51"/><path d="M1485,652L1459,887L1620,800Z" fill="#32974f" stroke="#32974f" stroke-width="1.51"/><path d="M1480,950L1377,1130L1530,1191Z" fill="#1f8043" stroke="#1f8043" stroke-width="1.51"/><path d="M1463,340L1386,497L1608,495Z" fill="#61af65" stroke="#61af65" stroke-width="1.51"/><path d="M1386,497L1458,581L1608,495Z" fill="#56ab62" stroke="#56ab62" stroke-width="1.51"/><path d="M1373,430L1386,497L1463,340Z" fill="#68b56a" stroke="#68b56a" stroke-width="1.51"/><path d="M1344,874L1459,887L1485,652Z" fill="#359a52" stroke="#359a52" stroke-width="1.51"/><path d="M1297,682L1344,874L1485,652Z" fill="#3da458" stroke="#3da458" stroke-width="1.51"/><path d="M1467,-209L1293,-96L1514,-12Z" fill="#9ac885" stroke="#9ac885" stroke-width="1.51"/><path d="M1350,1246L1432,1302L1530,1191Z" fill="#1a763f" stroke="#1a763f" stroke-width="1.51"/><path d="M1377,1130L1350,1246L1530,1191Z" fill="#1c7c42" stroke="#1c7c42" stroke-width="1.51"/><path d="M1458,53L1313,131L1531,237Z" fill="#88c177" stroke="#88c177" stroke-width="1.51"/><path d="M1308,288L1463,340L1531,237Z" fill="#78ba70" stroke="#78ba70" stroke-width="1.51"/><path d="M1313,131L1308,288L1531,237Z" fill="#82c175" stroke="#82c175" stroke-width="1.51"/><path d="M1293,-96L1458,53L1514,-12Z" fill="#95c77f" stroke="#95c77f" stroke-width="1.51"/><path d="M1333,940L1377,1130L1480,950Z" fill="#288b48" stroke="#288b48" stroke-width="1.51"/><path d="M1458,581L1297,682L1485,652Z" fill="#49a85e" stroke="#49a85e" stroke-width="1.51"/><path d="M1459,887L1333,940L1480,950Z" fill="#2c8f4a" stroke="#2c8f4a" stroke-width="1.51"/><path d="M1325,-259L1293,-96L1467,-209Z" fill="#9fce90" stroke="#9fce90" stroke-width="1.51"/><path d="M1293,-96L1313,131L1458,53Z" fill="#95ca80" stroke="#95ca80" stroke-width="1.51"/><path d="M1344,874L1333,940L1459,887Z" fill="#30944e" stroke="#30944e" stroke-width="1.51"/><path d="M1308,288L1373,430L1463,340Z" fill="#72bb6e" stroke="#72bb6e" stroke-width="1.51"/><path d="M1386,497L1297,682L1458,581Z" fill="#52ad62" stroke="#52ad62" stroke-width="1.51"/><path d="M1040,-235L1168,-207L1325,-259Z" fill="#abd89e" stroke="#abd89e" stroke-width="1.51"/><path d="M1350,1246L1201,1305L1432,1302Z" fill="#1f7942" stroke="#1f7942" stroke-width="1.51"/><path d="M1172,-7L1216,108L1293,-96Z" fill="#9ed387" stroke="#9ed387" stroke-width="1.51"/><path d="M1293,-96L1216,108L1313,131Z" fill="#98cf83" stroke="#98cf83" stroke-width="1.51"/><path d="M1237,199L1308,288L1313,131Z" fill="#88c97a" stroke="#88c97a" stroke-width="1.51"/><path d="M1297,682L1219,825L1344,874Z" fill="#3ca459" stroke="#3ca459" stroke-width="1.51"/><path d="M1333,940L1130,1097L1377,1130Z" fill="#2b8f4c" stroke="#2b8f4c" stroke-width="1.51"/><path d="M1373,430L1199,547L1386,497Z" fill="#62b76b" stroke="#62b76b" stroke-width="1.51"/><path d="M1199,547L1297,682L1386,497Z" fill="#58b367" stroke="#58b367" stroke-width="1.51"/><path d="M1146,964L1130,1097L1333,940Z" fill="#369651" stroke="#369651" stroke-width="1.51"/><path d="M1308,288L1195,390L1373,430Z" fill="#74c072" stroke="#74c072" stroke-width="1.51"/><path d="M1195,390L1199,547L1373,430Z" fill="#6abd6f" stroke="#6abd6f" stroke-width="1.51"/><path d="M1130,1097L1350,1246L1377,1130Z" fill="#238749" stroke="#238749" stroke-width="1.51"/><path d="M1047,1279L907,1337L1201,1305Z" fill="#38844d" stroke="#38844d" stroke-width="1.51"/><path d="M1168,-207L1293,-96L1325,-259Z" fill="#a4d595" stroke="#a4d595" stroke-width="1.51"/><path d="M1130,1097L1201,1305L1350,1246Z" fill="#288549" stroke="#288549" stroke-width="1.51"/><path d="M1219,825L1333,940L1344,874Z" fill="#369c53" stroke="#369c53" stroke-width="1.51"/><path d="M1174,734L1219,825L1297,682Z" fill="#44ac5e" stroke="#44ac5e" stroke-width="1.51"/><path d="M1219,825L1146,964L1333,940Z" fill="#389c54" stroke="#389c54" stroke-width="1.51"/><path d="M1216,108L1237,199L1313,131Z" fill="#90cd7e" stroke="#90cd7e" stroke-width="1.51"/><path d="M1237,199L1195,390L1308,288Z" fill="#81c778" stroke="#81c778" stroke-width="1.51"/><path d="M1130,1097L1075,1181L1201,1305Z" fill="#328b4e" stroke="#328b4e" stroke-width="1.51"/><path d="M1199,547L1174,734L1297,682Z" fill="#52b264" stroke="#52b264" stroke-width="1.51"/><path d="M1168,-207L1172,-7L1293,-96Z" fill="#a6d68f" stroke="#a6d68f" stroke-width="1.51"/><path d="M1030,664L1174,734L1199,547Z" fill="#5cb769" stroke="#5cb769" stroke-width="1.51"/><path d="M1216,108L1048,207L1237,199Z" fill="#95d081" stroke="#95d081" stroke-width="1.51"/><path d="M1048,207L1195,390L1237,199Z" fill="#8bcc7d" stroke="#8bcc7d" stroke-width="1.51"/><path d="M1078,784L1077,955L1146,964Z" fill="#47a35a" stroke="#47a35a" stroke-width="1.51"/><path d="M1195,390L998,427L1199,547Z" fill="#75c475" stroke="#75c475" stroke-width="1.51"/><path d="M1075,1181L1047,1279L1201,1305Z" fill="#34864d" stroke="#34864d" stroke-width="1.51"/><path d="M1172,-7L1062,66L1216,108Z" fill="#a0d588" stroke="#a0d588" stroke-width="1.51"/><path d="M1062,66L1048,207L1216,108Z" fill="#9ed587" stroke="#9ed587" stroke-width="1.51"/><path d="M1174,734L1078,784L1219,825Z" fill="#49ac60" stroke="#49ac60" stroke-width="1.51"/><path d="M1078,784L1146,964L1219,825Z" fill="#45a55b" stroke="#45a55b" stroke-width="1.51"/><path d="M1168,-207L1009,-9L1172,-7Z" fill="#acda91" stroke="#acda91" stroke-width="1.51"/><path d="M1040,-235L1009,-9L1168,-207Z" fill="#b2dd9a" stroke="#b2dd9a" stroke-width="1.51"/><path d="M1048,207L998,427L1195,390Z" fill="#88cc7d" stroke="#88cc7d" stroke-width="1.51"/><path d="M1001,595L1030,664L1199,547Z" fill="#67bc6f" stroke="#67bc6f" stroke-width="1.51"/><path d="M998,427L1001,595L1199,547Z" fill="#72c275" stroke="#72c275" stroke-width="1.51"/><path d="M1077,955L1130,1097L1146,964Z" fill="#3e9a55" stroke="#3e9a55" stroke-width="1.51"/><path d="M1030,664L1078,784L1174,734Z" fill="#54b366" stroke="#54b366" stroke-width="1.51"/><path d="M1009,-9L1062,66L1172,-7Z" fill="#a8d98e" stroke="#a8d98e" stroke-width="1.51"/><path d="M1077,955L1075,1181L1130,1097Z" fill="#3c9653" stroke="#3c9653" stroke-width="1.51"/><path d="M883,703L903,827L1030,664Z" fill="#62ba6c" stroke="#62ba6c" stroke-width="1.51"/><path d="M899,-67L1009,-9L1040,-235Z" fill="#b8e09a" stroke="#b8e09a" stroke-width="1.51"/><path d="M875,286L998,427L1048,207Z" fill="#95d384" stroke="#95d384" stroke-width="1.51"/><path d="M886,41L1048,207L1062,66Z" fill="#a8da8d" stroke="#a8da8d" stroke-width="1.51"/><path d="M837,1032L835,1150L1075,1181Z" fill="#4b9a59" stroke="#4b9a59" stroke-width="1.51"/><path d="M837,1032L1075,1181L1077,955Z" fill="#479c59" stroke="#479c59" stroke-width="1.51"/><path d="M903,827L1077,955L1078,784Z" fill="#51ab61" stroke="#51ab61" stroke-width="1.51"/><path d="M1030,664L903,827L1078,784Z" fill="#59b568" stroke="#59b568" stroke-width="1.51"/><path d="M903,827L837,1032L1077,955Z" fill="#53a75f" stroke="#53a75f" stroke-width="1.51"/><path d="M835,1150L1047,1279L1075,1181Z" fill="#419154" stroke="#419154" stroke-width="1.51"/><path d="M835,1150L907,1337L1047,1279Z" fill="#458e54" stroke="#458e54" stroke-width="1.51"/><path d="M1009,-9L886,41L1062,66Z" fill="#afdd92" stroke="#afdd92" stroke-width="1.51"/><path d="M998,427L865,486L1001,595Z" fill="#7ec87b" stroke="#7ec87b" stroke-width="1.51"/><path d="M875,-256L899,-67L1040,-235Z" fill="#bde3a5" stroke="#bde3a5" stroke-width="1.51"/><path d="M886,41L875,286L1048,207Z" fill="#a6da8c" stroke="#a6da8c" stroke-width="1.51"/><path d="M1001,595L883,703L1030,664Z" fill="#69be70" stroke="#69be70" stroke-width="1.51"/><path d="M875,286L844,379L998,427Z" fill="#94d284" stroke="#94d284" stroke-width="1.51"/><path d="M899,-67L886,41L1009,-9Z" fill="#b6e096" stroke="#b6e096" stroke-width="1.51"/><path d="M865,486L883,703L1001,595Z" fill="#75c476" stroke="#75c476" stroke-width="1.51"/><path d="M844,379L865,486L998,427Z" fill="#8cce80" stroke="#8cce80" stroke-width="1.51"/><path d="M865,486L719,530L883,703Z" fill="#81ca7b" stroke="#81ca7b" stroke-width="1.51"/><path d="M719,530L778,742L883,703Z" fill="#79c577" stroke="#79c577" stroke-width="1.51"/><path d="M705,226L875,286L886,41Z" fill="#afde90" stroke="#afde90" stroke-width="1.51"/><path d="M715,59L705,226L886,41Z" fill="#bbe395" stroke="#bbe395" stroke-width="1.51"/><path d="M875,-256L761,-187L899,-67Z" fill="#c5e6a6" stroke="#c5e6a6" stroke-width="1.51"/><path d="M734,-21L886,41L899,-67Z" fill="#bfe499" stroke="#bfe499" stroke-width="1.51"/><path d="M774,859L837,1032L903,827Z" fill="#5fae64" stroke="#5fae64" stroke-width="1.51"/><path d="M883,703L778,742L903,827Z" fill="#67bb6e" stroke="#67bb6e" stroke-width="1.51"/><path d="M835,1150L752,1335L907,1337Z" fill="#4d9057" stroke="#4d9057" stroke-width="1.51"/><path d="M774,859L742,1002L837,1032Z" fill="#61aa63" stroke="#61aa63" stroke-width="1.51"/><path d="M597,-261L761,-187L875,-256Z" fill="#ceebb1" stroke="#ceebb1" stroke-width="1.51"/><path d="M778,742L774,859L903,827Z" fill="#68b86c" stroke="#68b86c" stroke-width="1.51"/><path d="M761,-187L734,-21L899,-67Z" fill="#c7e7a0" stroke="#c7e7a0" stroke-width="1.51"/><path d="M734,-21L715,59L886,41Z" fill="#c1e59a" stroke="#c1e59a" stroke-width="1.51"/><path d="M750,367L844,379L875,286Z" fill="#9ed788" stroke="#9ed788" stroke-width="1.51"/><path d="M705,226L750,367L875,286Z" fill="#a8db8c" stroke="#a8db8c" stroke-width="1.51"/><path d="M723,1110L835,1150L837,1032Z" fill="#58a05e" stroke="#58a05e" stroke-width="1.51"/><path d="M844,379L750,367L865,486Z" fill="#96d384" stroke="#96d384" stroke-width="1.51"/><path d="M750,367L719,530L865,486Z" fill="#93d283" stroke="#93d283" stroke-width="1.51"/><path d="M314,-222L444,-217L597,-261Z" fill="#e5f4bb" stroke="#e5f4bb" stroke-width="1.51"/><path d="M723,1110L752,1335L835,1150Z" fill="#56995b" stroke="#56995b" stroke-width="1.51"/><path d="M742,1002L723,1110L837,1032Z" fill="#5ea560" stroke="#5ea560" stroke-width="1.51"/><path d="M637,77L705,226L715,59Z" fill="#c2e698" stroke="#c2e698" stroke-width="1.51"/><path d="M638,533L598,745L719,530Z" fill="#8cce7f" stroke="#8cce7f" stroke-width="1.51"/><path d="M705,226L625,282L750,367Z" fill="#afde8f" stroke="#afde8f" stroke-width="1.51"/><path d="M619,374L719,530L750,367Z" fill="#9fd788" stroke="#9fd788" stroke-width="1.51"/><path d="M723,1110L559,1180L752,1335Z" fill="#5e9c5f" stroke="#5e9c5f" stroke-width="1.51"/><path d="M559,1180L564,1331L752,1335Z" fill="#5f965d" stroke="#5f965d" stroke-width="1.51"/><path d="M559,-84L734,-21L761,-187Z" fill="#d1eca4" stroke="#d1eca4" stroke-width="1.51"/><path d="M574,860L742,1002L774,859Z" fill="#6cb369" stroke="#6cb369" stroke-width="1.51"/><path d="M598,745L574,860L774,859Z" fill="#76bd70" stroke="#76bd70" stroke-width="1.51"/><path d="M598,745L774,859L778,742Z" fill="#73be71" stroke="#73be71" stroke-width="1.51"/><path d="M719,530L598,745L778,742Z" fill="#80c879" stroke="#80c879" stroke-width="1.51"/><path d="M619,374L638,533L719,530Z" fill="#9bd586" stroke="#9bd586" stroke-width="1.51"/><path d="M597,-261L559,-84L761,-187Z" fill="#d6eeae" stroke="#d6eeae" stroke-width="1.51"/><path d="M574,860L570,1041L742,1002Z" fill="#6eb068" stroke="#6eb068" stroke-width="1.51"/><path d="M625,282L619,374L750,367Z" fill="#abdc8d" stroke="#abdc8d" stroke-width="1.51"/><path d="M570,1041L723,1110L742,1002Z" fill="#65a864" stroke="#65a864" stroke-width="1.51"/><path d="M637,77L715,59L734,-21Z" fill="#c7e89b" stroke="#c7e89b" stroke-width="1.51"/><path d="M559,-84L637,77L734,-21Z" fill="#ceeba0" stroke="#ceeba0" stroke-width="1.51"/><path d="M570,1041L559,1180L723,1110Z" fill="#67a664" stroke="#67a664" stroke-width="1.51"/><path d="M637,77L625,282L705,226Z" fill="#bde495" stroke="#bde495" stroke-width="1.51"/><path d="M-61,-250L136,-202L314,-222Z" fill="#f7fcc6" stroke="#f7fcc6" stroke-width="1.51"/><path d="M447,342L475,571L619,374Z" fill="#acdc8e" stroke="#acdc8e" stroke-width="1.51"/><path d="M441,130L411,186L625,282Z" fill="#c8e99b" stroke="#c8e99b" stroke-width="1.51"/><path d="M441,130L625,282L637,77Z" fill="#c6e899" stroke="#c6e899" stroke-width="1.51"/><path d="M559,-84L441,130L637,77Z" fill="#d2eda1" stroke="#d2eda1" stroke-width="1.51"/><path d="M461,645L598,745L638,533Z" fill="#8fce80" stroke="#8fce80" stroke-width="1.51"/><path d="M475,571L461,645L638,533Z" fill="#98d385" stroke="#98d385" stroke-width="1.51"/><path d="M619,374L475,571L638,533Z" fill="#9fd789" stroke="#9fd789" stroke-width="1.51"/><path d="M455,990L570,1041L574,860Z" fill="#76b36b" stroke="#76b36b" stroke-width="1.51"/><path d="M80,1271L-37,1317L389,1309Z" fill="#7da16c" stroke="#7da16c" stroke-width="1.51"/><path d="M444,-217L559,-84L597,-261Z" fill="#def2b3" stroke="#def2b3" stroke-width="1.51"/><path d="M447,342L619,374L625,282Z" fill="#b4e091" stroke="#b4e091" stroke-width="1.51"/><path d="M411,186L447,342L625,282Z" fill="#c0e697" stroke="#c0e697" stroke-width="1.51"/><path d="M457,-91L441,130L559,-84Z" fill="#dbf0a6" stroke="#dbf0a6" stroke-width="1.51"/><path d="M444,-217L457,-91L559,-84Z" fill="#e0f3af" stroke="#e0f3af" stroke-width="1.51"/><path d="M459,1092L559,1180L570,1041Z" fill="#6ea967" stroke="#6ea967" stroke-width="1.51"/><path d="M429,817L574,860L598,745Z" fill="#80c275" stroke="#80c275" stroke-width="1.51"/><path d="M461,645L429,817L598,745Z" fill="#89ca7b" stroke="#89ca7b" stroke-width="1.51"/><path d="M559,1180L389,1309L564,1331Z" fill="#699b61" stroke="#699b61" stroke-width="1.51"/><path d="M429,817L455,990L574,860Z" fill="#7ebc71" stroke="#7ebc71" stroke-width="1.51"/><path d="M455,990L459,1092L570,1041Z" fill="#74ae6a" stroke="#74ae6a" stroke-width="1.51"/><path d="M459,1092L389,1309L559,1180Z" fill="#6ea466" stroke="#6ea466" stroke-width="1.51"/><path d="M251,1243L80,1271L389,1309Z" fill="#79a16a" stroke="#79a16a" stroke-width="1.51"/><path d="M276,1110L251,1243L389,1309Z" fill="#78a56a" stroke="#78a56a" stroke-width="1.51"/><path d="M230,-16L278,141L441,130Z" fill="#def2a7" stroke="#def2a7" stroke-width="1.51"/><path d="M240,393L326,582L447,342Z" fill="#b7e194" stroke="#b7e194" stroke-width="1.51"/><path d="M230,-16L441,130L457,-91Z" fill="#e1f3a9" stroke="#e1f3a9" stroke-width="1.51"/><path d="M276,1110L389,1309L459,1092Z" fill="#76a96a" stroke="#76a96a" stroke-width="1.51"/><path d="M273,704L429,817L461,645Z" fill="#93ce80" stroke="#93ce80" stroke-width="1.51"/><path d="M326,582L461,645L475,571Z" fill="#9ed588" stroke="#9ed588" stroke-width="1.51"/><path d="M447,342L326,582L475,571Z" fill="#abdc8e" stroke="#abdc8e" stroke-width="1.51"/><path d="M411,186L282,205L447,342Z" fill="#cbea9c" stroke="#cbea9c" stroke-width="1.51"/><path d="M429,817L236,820L455,990Z" fill="#87c076" stroke="#87c076" stroke-width="1.51"/><path d="M236,820L230,1034L455,990Z" fill="#86bb74" stroke="#86bb74" stroke-width="1.51"/><path d="M444,-217L314,-222L457,-91Z" fill="#e7f5b7" stroke="#e7f5b7" stroke-width="1.51"/><path d="M455,990L276,1110L459,1092Z" fill="#7bb06c" stroke="#7bb06c" stroke-width="1.51"/><path d="M326,582L273,704L461,645Z" fill="#9ed487" stroke="#9ed487" stroke-width="1.51"/><path d="M230,1034L276,1110L455,990Z" fill="#80b370" stroke="#80b370" stroke-width="1.51"/><path d="M314,-222L230,-16L457,-91Z" fill="#eaf7b2" stroke="#eaf7b2" stroke-width="1.51"/><path d="M282,205L240,393L447,342Z" fill="#c7e89b" stroke="#c7e89b" stroke-width="1.51"/><path d="M278,141L411,186L441,130Z" fill="#d6efa1" stroke="#d6efa1" stroke-width="1.51"/><path d="M273,704L236,820L429,817Z" fill="#92cb7f" stroke="#92cb7f" stroke-width="1.51"/><path d="M278,141L282,205L411,186Z" fill="#d6eea2" stroke="#d6eea2" stroke-width="1.51"/><path d="M230,-16L181,80L278,141Z" fill="#e4f4ab" stroke="#e4f4ab" stroke-width="1.51"/><path d="M174,340L240,393L282,205Z" fill="#ccea9e" stroke="#ccea9e" stroke-width="1.51"/><path d="M136,-202L230,-16L314,-222Z" fill="#f0f9ba" stroke="#f0f9ba" stroke-width="1.51"/><path d="M240,393L147,486L326,582Z" fill="#b6e195" stroke="#b6e195" stroke-width="1.51"/><path d="M162,684L273,704L326,582Z" fill="#a2d689" stroke="#a2d689" stroke-width="1.51"/><path d="M147,486L162,684L326,582Z" fill="#acdb90" stroke="#acdb90" stroke-width="1.51"/><path d="M180,1154L251,1243L276,1110Z" fill="#7dac6e" stroke="#7dac6e" stroke-width="1.51"/><path d="M187,198L174,340L282,205Z" fill="#d4eea2" stroke="#d4eea2" stroke-width="1.51"/><path d="M88,851L159,1043L230,1034Z" fill="#8cbc78" stroke="#8cbc78" stroke-width="1.51"/><path d="M88,851L230,1034L236,820Z" fill="#90c27b" stroke="#90c27b" stroke-width="1.51"/><path d="M162,684L236,820L273,704Z" fill="#9ad185" stroke="#9ad185" stroke-width="1.51"/><path d="M278,141L187,198L282,205Z" fill="#d9f0a4" stroke="#d9f0a4" stroke-width="1.51"/><path d="M181,80L187,198L278,141Z" fill="#dff3a8" stroke="#dff3a8" stroke-width="1.51"/><path d="M230,1034L180,1154L276,1110Z" fill="#82b171" stroke="#82b171" stroke-width="1.51"/><path d="M136,-202L109,-7L230,-16Z" fill="#f1fab5" stroke="#f1fab5" stroke-width="1.51"/><path d="M159,1043L180,1154L230,1034Z" fill="#85b473" stroke="#85b473" stroke-width="1.51"/><path d="M180,1154L80,1271L251,1243Z" fill="#7ea86f" stroke="#7ea86f" stroke-width="1.51"/><path d="M162,684L88,851L236,820Z" fill="#99ce83" stroke="#99ce83" stroke-width="1.51"/><path d="M174,340L147,486L240,393Z" fill="#c3e69b" stroke="#c3e69b" stroke-width="1.51"/><path d="M109,-7L181,80L230,-16Z" fill="#ebf7b0" stroke="#ebf7b0" stroke-width="1.51"/><path d="M88,851L-47,973L159,1043Z" fill="#92bf7c" stroke="#92bf7c" stroke-width="1.51"/><path d="M147,486L-66,586L162,684Z" fill="#b3de94" stroke="#b3de94" stroke-width="1.51"/><path d="M-48,397L147,486L174,340Z" fill="#c7e89e" stroke="#c7e89e" stroke-width="1.51"/><path d="M-44,281L174,340L187,198Z" fill="#d6efa5" stroke="#d6efa5" stroke-width="1.51"/><path d="M181,80L-48,141L187,198Z" fill="#e4f5ac" stroke="#e4f5ac" stroke-width="1.51"/><path d="M-48,141L-44,281L187,198Z" fill="#e0f3ac" stroke="#e0f3ac" stroke-width="1.51"/><path d="M-17,721L88,851L162,684Z" fill="#a0d389" stroke="#a0d389" stroke-width="1.51"/><path d="M159,1043L-42,1109L180,1154Z" fill="#88b475" stroke="#88b475" stroke-width="1.51"/><path d="M109,-7L-48,141L181,80Z" fill="#ebf7b0" stroke="#ebf7b0" stroke-width="1.51"/><path d="M13,-13L109,-7L136,-202Z" fill="#f5fcb7" stroke="#f5fcb7" stroke-width="1.51"/><path d="M-66,586L-17,721L162,684Z" fill="#abd992" stroke="#abd992" stroke-width="1.51"/><path d="M-42,1109L80,1271L180,1154Z" fill="#85ae74" stroke="#85ae74" stroke-width="1.51"/><path d="M-44,281L-48,397L174,340Z" fill="#d2eca5" stroke="#d2eca5" stroke-width="1.51"/><path d="M13,-13L-48,141L109,-7Z" fill="#eff9b5" stroke="#eff9b5" stroke-width="1.51"/><path d="M-47,973L-42,1109L159,1043Z" fill="#8eb97b" stroke="#8eb97b" stroke-width="1.51"/><path d="M-61,-250L13,-13L136,-202Z" fill="#f9fcc4" stroke="#f9fcc4" stroke-width="1.51"/><path d="M-48,397L-66,586L147,486Z" fill="#bfe49f" stroke="#bfe49f" stroke-width="1.51"/><path d="M-17,721L-59,811L88,851Z" fill="#9fd08a" stroke="#9fd08a" stroke-width="1.51"/><path d="M-61,-250L-126,-55L13,-13Z" fill="#f9fcc5" stroke="#f9fcc5" stroke-width="1.51"/><path d="M-42,1109L-37,1317L80,1271Z" fill="#84a976" stroke="#84a976" stroke-width="1.51"/><path d="M-59,811L-47,973L88,851Z" fill="#99c785" stroke="#99c785" stroke-width="1.51"/><path d="M-113,-244L-126,-55L-61,-250Z" fill="#fcfed0" stroke="#fcfed0" stroke-width="1.51"/><path d="M-126,-55L-192,71L-48,141Z" fill="#f0f9bf" stroke="#f0f9bf" stroke-width="1.51"/><path d="M-148,551L-66,586L-48,397Z" fill="#bfe3a5" stroke="#bfe3a5" stroke-width="1.51"/><path d="M-42,1109L-120,1321L-37,1317Z" fill="#84a87a" stroke="#84a87a" stroke-width="1.51"/><path d="M-126,-55L-48,141L13,-13Z" fill="#f1fabc" stroke="#f1fabc" stroke-width="1.51"/><path d="M-59,811L-176,965L-47,973Z" fill="#97c489" stroke="#97c489" stroke-width="1.51"/><path d="M-48,141L-174,222L-44,281Z" fill="#e1f3b4" stroke="#e1f3b4" stroke-width="1.51"/><path d="M-47,973L-197,1096L-42,1109Z" fill="#8eb883" stroke="#8eb883" stroke-width="1.51"/><path d="M-197,1096L-120,1321L-42,1109Z" fill="#88b080" stroke="#88b080" stroke-width="1.51"/><path d="M-200,677L-59,811L-17,721Z" fill="#a4d595" stroke="#a4d595" stroke-width="1.51"/><path d="M-66,586L-200,677L-17,721Z" fill="#adda9b" stroke="#adda9b" stroke-width="1.51"/><path d="M-201,817L-176,965L-59,811Z" fill="#9cc990" stroke="#9cc990" stroke-width="1.51"/><path d="M-200,677L-201,817L-59,811Z" fill="#a3d397" stroke="#a3d397" stroke-width="1.51"/><path d="M-171,393L-148,551L-48,397Z" fill="#c7e7aa" stroke="#c7e7aa" stroke-width="1.51"/><path d="M-176,965L-197,1096L-47,973Z" fill="#92bc88" stroke="#92bc88" stroke-width="1.51"/><path d="M-171,393L-48,397L-44,281Z" fill="#d1ecad" stroke="#d1ecad" stroke-width="1.51"/><path d="M-174,222L-171,393L-44,281Z" fill="#d9efb3" stroke="#d9efb3" stroke-width="1.51"/><path d="M-192,71L-174,222L-48,141Z" fill="#e9f6bb" stroke="#e9f6bb" stroke-width="1.51"/><path d="M-148,551L-200,677L-66,586Z" fill="#b5dea2" stroke="#b5dea2" stroke-width="1.51"/><path d="M-192,71L-126,-55L-113,-244Z" fill="#fafdc8" stroke="#fafdc8" stroke-width="1.51"/><path d="M-171,393L-200,677L-148,551Z" fill="#bce2a9" stroke="#bce2a9" stroke-width="1.51"/><path d="M-174,222L-192,71L-171,393Z" fill="#e1f3ba" stroke="#e1f3ba" stroke-width="1.51"/><path d="M-192,71L-200,677L-171,393Z" fill="#d0ebb3" stroke="#d0ebb3" stroke-width="1.51"/><path d="M-201,817L-197,1096L-176,965Z" fill="#95c08d" stroke="#95c08d" stroke-width="1.51"/></svg>