<?xml version="1.0" ?><svg baseProfile="tiny" id="Layer_1" version="1.2" viewBox="0 0 512 512" xml:space="preserve" xmlns="http://www.w3.org/2000/svg" xmlns:xlink="http://www.w3.org/1999/xlink"><g id="XMLID_1712_"><g id="XMLID_370_"><path d="M432.8,506H98.4c-8.3,0-15-6.7-15-15V21c0-8.3,6.7-15,15-15h334.4c8.3,0,15,6.7,15,15v470    C447.9,499.3,441.1,506,432.8,506z" fill="#3DA7E3" id="XMLID_401_"/><rect fill="#FFFFFF" height="469.3" id="XMLID_400_" width="333.8" x="98.7" y="21.3"/><g id="XMLID_393_"><polygon fill="#2A68A6" id="XMLID_397_" points="352.4,180.6 64.1,180.6 64.1,64.9 352.4,64.9 288.6,122.8    "/><polygon fill="#114D7F" id="XMLID_394_" points="64.1,180.6 83.4,194.9 83.4,180.6    "/></g><g id="XMLID_371_"><path d="M402.2,234.4H129.1c-4.4,0-8-3.6-8-8V226c0-4.4,3.6-8,8-8h273.1c4.4,0,8,3.6,8,8v0.4     C410.1,230.8,406.6,234.4,402.2,234.4z" fill="#2A68A6" id="XMLID_390_"/><path d="M402.2,269.3H129.1c-4.4,0-8-3.6-8-8V261c0-4.4,3.6-8,8-8h273.1c4.4,0,8,3.6,8,8v0.4     C410.1,265.8,406.6,269.3,402.2,269.3z" fill="#2A68A6" id="XMLID_387_"/><path d="M402.2,304.2H129.1c-4.4,0-8-3.6-8-8v-0.4c0-4.4,3.6-8,8-8h273.1c4.4,0,8,3.6,8,8v0.4     C410.1,300.7,406.6,304.2,402.2,304.2z" fill="#2A68A6" id="XMLID_384_"/><path d="M402.2,339.2H129.1c-4.4,0-8-3.6-8-8v-0.4c0-4.4,3.6-8,8-8h273.1c4.4,0,8,3.6,8,8v0.4     C410.1,335.6,406.6,339.2,402.2,339.2z" fill="#2A68A6" id="XMLID_381_"/><path d="M402.2,374.1H129.1c-4.4,0-8-3.6-8-8v-0.4c0-4.4,3.6-8,8-8h273.1c4.4,0,8,3.6,8,8v0.4     C410.1,370.5,406.6,374.1,402.2,374.1z" fill="#2A68A6" id="XMLID_378_"/><path d="M402.2,409H129.1c-4.4,0-8-3.6-8-8v-0.4c0-4.4,3.6-8,8-8h273.1c4.4,0,8,3.6,8,8v0.4     C410.1,405.5,406.6,409,402.2,409z" fill="#2A68A6" id="XMLID_375_"/><path d="M337,444H129.1c-4.4,0-8-3.6-8-8v-0.4c0-4.4,3.6-8,8-8H337c4.4,0,8,3.6,8,8v0.4     C344.9,440.4,341.4,444,337,444z" fill="#2A68A6" id="XMLID_372_"/></g></g><g id="XMLID_3279_"><path d="M141.1,137.7h-19.8l-4.3,13.1h-9.7l19.5-56h8.9l19.3,56h-9.7L141.1,137.7z M123.8,129.9    h14.7l-7.2-22.1h-0.2L123.8,129.9z" fill="#FFFFFF" id="XMLID_3285_"/><path d="M193.5,137.7h-19.8l-4.3,13.1h-9.7l19.5-56h8.9l19.3,56h-9.7L193.5,137.7z M176.2,129.9    h14.7l-7.2-22.1h-0.2L176.2,129.9z" fill="#FFFFFF" id="XMLID_3282_"/><path d="M257.2,132.4l0.1,0.2c0.1,5.6-1.7,10.2-5.5,13.7c-3.8,3.5-8.9,5.2-15.3,5.2    c-6.5,0-11.8-2.2-15.8-6.6c-4.1-4.4-6.1-10-6.1-16.9v-10.7c0-6.8,2-12.4,6-16.9s9.2-6.6,15.7-6.6c6.6,0,11.8,1.7,15.6,5    c3.8,3.4,5.6,8,5.5,13.8l-0.1,0.2h-9c0-3.7-1-6.6-3-8.6c-2-2-5-3-8.9-3c-3.8,0-6.8,1.5-9,4.5c-2.2,3-3.3,6.8-3.3,11.4v10.7    c0,4.6,1.1,8.5,3.4,11.5c2.3,3,5.3,4.5,9.2,4.5c3.8,0,6.7-1,8.7-3c2-2,3-4.9,3-8.7H257.2z" fill="#FFFFFF" id="XMLID_3280_"/></g></g></svg>