<?xml version="1.0" ?><svg baseProfile="tiny" id="Layer_1" version="1.2" viewBox="0 0 512 512" xml:space="preserve" xmlns="http://www.w3.org/2000/svg" xmlns:xlink="http://www.w3.org/1999/xlink"><g id="XMLID_1727_"><g id="XMLID_820_"><path d="M432.8,506H98.4c-8.3,0-15-6.7-15-15V21c0-8.3,6.7-15,15-15h334.4c8.3,0,15,6.7,15,15v470    C447.9,499.3,441.1,506,432.8,506z" fill="#3DA7E3" id="XMLID_851_"/><rect fill="#FFFFFF" height="469.3" id="XMLID_850_" width="333.8" x="98.7" y="21.3"/><g id="XMLID_843_"><polygon fill="#2A68A6" id="XMLID_847_" points="352.4,180.6 64.1,180.6 64.1,64.9 352.4,64.9 288.6,122.8    "/><polygon fill="#114D7F" id="XMLID_844_" points="64.1,180.6 83.4,194.9 83.4,180.6    "/></g><g id="XMLID_821_"><path d="M402.2,234.4H129.1c-4.4,0-8-3.6-8-8V226c0-4.4,3.6-8,8-8h273.1c4.4,0,8,3.6,8,8v0.4     C410.1,230.8,406.6,234.4,402.2,234.4z" fill="#2A68A6" id="XMLID_840_"/><path d="M402.2,269.3H129.1c-4.4,0-8-3.6-8-8V261c0-4.4,3.6-8,8-8h273.1c4.4,0,8,3.6,8,8v0.4     C410.1,265.8,406.6,269.3,402.2,269.3z" fill="#2A68A6" id="XMLID_837_"/><path d="M402.2,304.2H129.1c-4.4,0-8-3.6-8-8v-0.4c0-4.4,3.6-8,8-8h273.1c4.4,0,8,3.6,8,8v0.4     C410.1,300.7,406.6,304.2,402.2,304.2z" fill="#2A68A6" id="XMLID_834_"/><path d="M402.2,339.2H129.1c-4.4,0-8-3.6-8-8v-0.4c0-4.4,3.6-8,8-8h273.1c4.4,0,8,3.6,8,8v0.4     C410.1,335.6,406.6,339.2,402.2,339.2z" fill="#2A68A6" id="XMLID_831_"/><path d="M402.2,374.1H129.1c-4.4,0-8-3.6-8-8v-0.4c0-4.4,3.6-8,8-8h273.1c4.4,0,8,3.6,8,8v0.4     C410.1,370.5,406.6,374.1,402.2,374.1z" fill="#2A68A6" id="XMLID_828_"/><path d="M402.2,409H129.1c-4.4,0-8-3.6-8-8v-0.4c0-4.4,3.6-8,8-8h273.1c4.4,0,8,3.6,8,8v0.4     C410.1,405.5,406.6,409,402.2,409z" fill="#2A68A6" id="XMLID_825_"/><path d="M337,444H129.1c-4.4,0-8-3.6-8-8v-0.4c0-4.4,3.6-8,8-8H337c4.4,0,8,3.6,8,8v0.4     C344.9,440.4,341.4,444,337,444z" fill="#2A68A6" id="XMLID_822_"/></g></g><g id="XMLID_2621_"><path d="M138.5,138.3h-20.7l-4.5,13.6h-10l20.3-58.3h9.2l20.1,58.3h-10L138.5,138.3z     M120.5,130.2h15.3l-7.5-23h-0.2L120.5,130.2z" fill="#FFFFFF" id="XMLID_2626_"/><path d="M204.8,132.8l0.1,0.2c0.1,5.9-1.8,10.6-5.7,14.2c-3.9,3.6-9.2,5.4-15.9,5.4    c-6.8,0-12.3-2.3-16.5-6.9c-4.2-4.6-6.3-10.4-6.3-17.5v-11.1c0-7.1,2.1-12.9,6.2-17.5c4.2-4.6,9.6-6.9,16.3-6.9    c6.9,0,12.3,1.7,16.2,5.2c3.9,3.5,5.8,8.3,5.7,14.4l-0.1,0.2h-9.4c0-3.9-1.1-6.9-3.2-8.9c-2.1-2.1-5.2-3.1-9.3-3.1    c-3.9,0-7.1,1.6-9.4,4.7c-2.3,3.1-3.5,7.1-3.5,11.9v11.2c0,4.8,1.2,8.8,3.5,11.9c2.3,3.1,5.5,4.7,9.6,4.7c4,0,7-1,9.1-3.1    c2.1-2.1,3.1-5.1,3.1-9H204.8z" fill="#FFFFFF" id="XMLID_2624_"/><path d="M249.2,125.7h-22.8v18.5h26.9v7.8h-36.6V93.6H253v7.8h-26.6v16.4h22.8V125.7z" fill="#FFFFFF" id="XMLID_2622_"/></g></g></svg>