<?xml version="1.0" ?><svg baseProfile="tiny" id="Layer_1" version="1.2" viewBox="0 0 512 512" xml:space="preserve" xmlns="http://www.w3.org/2000/svg" xmlns:xlink="http://www.w3.org/1999/xlink"><g id="XMLID_1716_"><g id="XMLID_486_"><path d="M432.8,506H98.4c-8.3,0-15-6.7-15-15V21c0-8.3,6.7-15,15-15h334.4c8.3,0,15,6.7,15,15v470    C447.9,499.3,441.1,506,432.8,506z" fill="#FCE379" id="XMLID_517_"/><rect fill="#FFFFFF" height="469.3" id="XMLID_516_" width="333.8" x="98.7" y="21.3"/><g id="XMLID_509_"><polygon fill="#FFC42E" id="XMLID_513_" points="352.4,180.6 64.1,180.6 64.1,64.9 352.4,64.9 288.6,122.8    "/><polygon fill="#FAAA20" id="XMLID_510_" points="64.1,180.6 83.4,194.9 83.4,180.6    "/></g><g id="XMLID_487_"><path d="M402.1,234.4h-273c-4.4,0-8-3.6-8-8v-0.3c0-4.4,3.6-8,8-8h273c4.4,0,8,3.6,8,8v0.3     C410.1,230.8,406.5,234.4,402.1,234.4z" fill="#FFC42E" id="XMLID_506_"/><path d="M402.1,269.3h-273c-4.4,0-8-3.6-8-8V261c0-4.4,3.6-8,8-8h273c4.4,0,8,3.6,8,8v0.3     C410.1,265.7,406.5,269.3,402.1,269.3z" fill="#FFC42E" id="XMLID_503_"/><path d="M402.1,304.2h-273c-4.4,0-8-3.6-8-8v-0.3c0-4.4,3.6-8,8-8h273c4.4,0,8,3.6,8,8v0.3     C410.1,300.7,406.5,304.2,402.1,304.2z" fill="#FFC42E" id="XMLID_500_"/><path d="M402.1,339.2h-273c-4.4,0-8-3.6-8-8v-0.3c0-4.4,3.6-8,8-8h273c4.4,0,8,3.6,8,8v0.3     C410.1,335.6,406.5,339.2,402.1,339.2z" fill="#FFC42E" id="XMLID_497_"/><path d="M402.1,374.1h-273c-4.4,0-8-3.6-8-8v-0.3c0-4.4,3.6-8,8-8h273c4.4,0,8,3.6,8,8v0.3     C410.1,370.5,406.5,374.1,402.1,374.1z" fill="#FFC42E" id="XMLID_494_"/><path d="M402.1,409h-273c-4.4,0-8-3.6-8-8v-0.3c0-4.4,3.6-8,8-8h273c4.4,0,8,3.6,8,8v0.3     C410.1,405.5,406.5,409,402.1,409z" fill="#FFC42E" id="XMLID_491_"/><path d="M336.9,444H129.1c-4.4,0-8-3.6-8-8v-0.3c0-4.4,3.6-8,8-8h207.8c4.4,0,8,3.6,8,8v0.3     C344.9,440.4,341.3,444,336.9,444z" fill="#FFC42E" id="XMLID_488_"/></g></g><g id="XMLID_2564_"><path d="M144.7,137.1h-19.6l-4.3,12.9h-9.6l19.3-55.4h8.8l19.1,55.4H149L144.7,137.1z     M127.7,129.4h14.6l-7.1-21.9h-0.2L127.7,129.4z" fill="#FFFFFF" id="XMLID_2569_"/><path d="M209.4,94.6v36.5c0,6.2-2,11-6.1,14.5c-4,3.5-9.3,5.2-15.7,5.2c-6.3,0-11.4-1.7-15.4-5.2    c-4-3.5-5.9-8.3-5.9-14.5V94.6h9.3v36.5c0,3.9,1.1,7,3.3,9.1c2.2,2.1,5.1,3.2,8.8,3.2c3.8,0,6.8-1.1,9.1-3.2    c2.3-2.1,3.4-5.2,3.4-9.1V94.6H209.4z" fill="#FFFFFF" id="XMLID_2567_"/><path d="M261.3,102.1h-17.1v48h-9.3v-48H218v-7.4h43.3V102.1z" fill="#FFFFFF" id="XMLID_2565_"/></g></g></svg>