<?xml version="1.0" ?><svg baseProfile="tiny" id="Layer_1" version="1.2" viewBox="0 0 512 512" xml:space="preserve" xmlns="http://www.w3.org/2000/svg" xmlns:xlink="http://www.w3.org/1999/xlink"><g id="XMLID_56_"><g id="XMLID_1004_"><path d="M432.8,506H98.4c-8.3,0-15-6.7-15-15V21c0-8.3,6.7-15,15-15h334.4c8.3,0,15,6.7,15,15    v470C447.9,499.3,441.1,506,432.8,506z" fill="#475563" id="XMLID_1035_"/><rect fill="#FFFFFF" height="469.3" id="XMLID_1034_" width="333.8" x="98.7" y="21.3"/><g id="XMLID_1027_"><polygon fill="#24323D" id="XMLID_1031_" points="352.4,180.6 64.1,180.6 64.1,64.9 352.4,64.9 288.6,122.8    "/><polygon fill="#151F26" id="XMLID_1028_" points="64.1,180.6 83.4,194.9 83.4,180.6    "/></g><g id="XMLID_1005_"><path d="M402.1,234.4h-273c-4.4,0-8-3.6-8-8v-0.3c0-4.4,3.6-8,8-8h273c4.4,0,8,3.6,8,8v0.3     C410.1,230.8,406.5,234.4,402.1,234.4z" fill="#24323D" id="XMLID_1024_"/><path d="M402.1,269.3h-273c-4.4,0-8-3.6-8-8V261c0-4.4,3.6-8,8-8h273c4.4,0,8,3.6,8,8v0.3     C410.1,265.7,406.5,269.3,402.1,269.3z" fill="#24323D" id="XMLID_1021_"/><path d="M402.1,304.2h-273c-4.4,0-8-3.6-8-8v-0.3c0-4.4,3.6-8,8-8h273c4.4,0,8,3.6,8,8v0.3     C410.1,300.7,406.5,304.2,402.1,304.2z" fill="#24323D" id="XMLID_1018_"/><path d="M402.1,339.2h-273c-4.4,0-8-3.6-8-8v-0.3c0-4.4,3.6-8,8-8h273c4.4,0,8,3.6,8,8v0.3     C410.1,335.6,406.5,339.2,402.1,339.2z" fill="#24323D" id="XMLID_1015_"/><path d="M402.1,374.1h-273c-4.4,0-8-3.6-8-8v-0.3c0-4.4,3.6-8,8-8h273c4.4,0,8,3.6,8,8v0.3     C410.1,370.5,406.5,374.1,402.1,374.1z" fill="#24323D" id="XMLID_1012_"/><path d="M402.1,409h-273c-4.4,0-8-3.6-8-8v-0.3c0-4.4,3.6-8,8-8h273c4.4,0,8,3.6,8,8v0.3     C410.1,405.5,406.5,409,402.1,409z" fill="#24323D" id="XMLID_1009_"/><path d="M336.9,444H129.1c-4.4,0-8-3.6-8-8v-0.3c0-4.4,3.6-8,8-8h207.8c4.4,0,8,3.6,8,8v0.3     C344.9,440.4,341.3,444,336.9,444z" fill="#24323D" id="XMLID_1006_"/></g></g><g id="XMLID_2430_"><path d="M145.8,142h-25.5l-5.5,16.8h-12.4l25.1-72.1h11.4l24.9,72.1h-12.4L145.8,142z     M123.6,131.9h19l-9.3-28.4H133L123.6,131.9z" fill="#FFFFFF" id="XMLID_2435_"/><path d="M195,139.2l1.3,5.2h0.3l1.2-5.1l17.2-52.6h12.8l-25.7,72.1h-11.4L165,86.7h12.8    L195,139.2z" fill="#FFFFFF" id="XMLID_2433_"/><path d="M252.3,158.8h-12V86.7h12V158.8z" fill="#FFFFFF" id="XMLID_2431_"/></g></g></svg>