<?xml version="1.0" ?><svg baseProfile="tiny" id="Layer_1" version="1.2" viewBox="0 0 512 512" xml:space="preserve" xmlns="http://www.w3.org/2000/svg" xmlns:xlink="http://www.w3.org/1999/xlink"><g id="XMLID_1740_"><g id="XMLID_1488_"><path d="M432.8,506H98.4c-8.3,0-15-6.7-15-15V21c0-8.3,6.7-15,15-15h334.4c8.3,0,15,6.7,15,15    v470C447.9,499.3,441.1,506,432.8,506z" fill="#16896B" id="XMLID_1501_"/><rect fill="#FFFFFF" height="469.3" id="XMLID_1500_" width="333.8" x="98.7" y="21.3"/><g id="XMLID_1497_"><polygon fill="#2EBC9A" id="XMLID_1499_" points="352.4,180.6 64.1,180.6 64.1,64.9 352.4,64.9 288.6,122.8    "/><polygon fill="#10644C" id="XMLID_1498_" points="64.1,180.6 83.4,194.9 83.4,180.6    "/></g><g id="XMLID_1489_"><path d="M402.1,234.4h-273c-4.4,0-8-3.6-8-8v-0.3c0-4.4,3.6-8,8-8h273c4.4,0,8,3.6,8,8v0.3     C410.1,230.8,406.5,234.4,402.1,234.4z" fill="#2EBC9A" id="XMLID_1496_"/><path d="M402.1,269.3h-273c-4.4,0-8-3.6-8-8V261c0-4.4,3.6-8,8-8h273c4.4,0,8,3.6,8,8v0.3     C410.1,265.7,406.5,269.3,402.1,269.3z" fill="#2EBC9A" id="XMLID_1495_"/><path d="M402.1,304.2h-273c-4.4,0-8-3.6-8-8v-0.3c0-4.4,3.6-8,8-8h273c4.4,0,8,3.6,8,8v0.3     C410.1,300.7,406.5,304.2,402.1,304.2z" fill="#2EBC9A" id="XMLID_1494_"/><path d="M402.1,339.2h-273c-4.4,0-8-3.6-8-8v-0.3c0-4.4,3.6-8,8-8h273c4.4,0,8,3.6,8,8v0.3     C410.1,335.6,406.5,339.2,402.1,339.2z" fill="#2EBC9A" id="XMLID_1493_"/><path d="M402.1,374.1h-273c-4.4,0-8-3.6-8-8v-0.3c0-4.4,3.6-8,8-8h273c4.4,0,8,3.6,8,8v0.3     C410.1,370.5,406.5,374.1,402.1,374.1z" fill="#2EBC9A" id="XMLID_1492_"/><path d="M402.1,409h-273c-4.4,0-8-3.6-8-8v-0.3c0-4.4,3.6-8,8-8h273c4.4,0,8,3.6,8,8v0.3     C410.1,405.5,406.5,409,402.1,409z" fill="#2EBC9A" id="XMLID_1491_"/><path d="M336.9,444H129.1c-4.4,0-8-3.6-8-8v-0.3c0-4.4,3.6-8,8-8h207.8c4.4,0,8,3.6,8,8v0.3     C344.9,440.4,341.3,444,336.9,444z" fill="#2EBC9A" id="XMLID_1490_"/></g></g><g id="XMLID_1819_"><path d="M102.3,157.4V88.1H125c7.6,0,13.6,1.6,17.9,4.7c4.3,3.2,6.5,7.9,6.5,14.2    c0,3-0.9,5.8-2.6,8.2c-1.7,2.4-4.1,4.3-7.2,5.6c4.4,0.7,7.9,2.6,10.3,5.8c2.4,3.1,3.6,6.8,3.6,10.9c0,6.5-2.1,11.4-6.4,14.8    c-4.3,3.4-10.1,5.1-17.6,5.1H102.3z M113.8,117.3h12.4c3.6,0,6.4-0.8,8.5-2.5c2.1-1.7,3.1-4.1,3.1-7.2c0-3.4-1.1-6-3.3-7.6    s-5.4-2.5-9.6-2.5h-11.1V117.3z M113.8,125.9v22.3h15.6c4,0,7.1-0.9,9.2-2.7c2.2-1.8,3.2-4.5,3.2-7.9c0-3.5-1.1-6.3-3.2-8.3    c-2.1-2.1-5.1-3.2-8.9-3.3h-0.6H113.8z" fill="#FFFFFF" id="XMLID_1827_"/><path d="M179.8,157.4h-11.6V88.1h11.6V157.4z" fill="#FFFFFF" id="XMLID_1824_"/><path d="M252.3,157.4h-11.6L210,107.5l-0.3,0.1v49.8h-11.6V88.1h11.6l30.7,49.9l0.3-0.1V88.1    h11.6V157.4z" fill="#FFFFFF" id="XMLID_1821_"/></g></g></svg>