<?xml version="1.0" ?><svg baseProfile="tiny" id="Layer_1" version="1.2" viewBox="0 0 512 512" xml:space="preserve" xmlns="http://www.w3.org/2000/svg" xmlns:xlink="http://www.w3.org/1999/xlink"><g id="XMLID_1703_"><g id="XMLID_194_"><path d="M432.8,506H98.4c-8.3,0-15-6.7-15-15V21c0-8.3,6.7-15,15-15h334.4c8.3,0,15,6.7,15,15v470    C447.9,499.3,441.1,506,432.8,506z" fill="#FCE379" id="XMLID_288_"/><rect fill="#FFFFFF" height="469.3" id="XMLID_287_" width="333.8" x="98.7" y="21.3"/><g id="XMLID_280_"><polygon fill="#FFC42E" id="XMLID_284_" points="352.4,180.6 64.1,180.6 64.1,64.9 352.4,64.9 288.6,122.8    "/><polygon fill="#FAAA20" id="XMLID_281_" points="64.1,180.6 83.4,194.9 83.4,180.6    "/></g><g id="XMLID_195_"><path d="M402.1,234.4h-273c-4.4,0-8-3.6-8-8v-0.3c0-4.4,3.6-8,8-8h273c4.4,0,8,3.6,8,8v0.3     C410.1,230.8,406.5,234.4,402.1,234.4z" fill="#FFC42E" id="XMLID_277_"/><path d="M402.1,269.3h-273c-4.4,0-8-3.6-8-8V261c0-4.4,3.6-8,8-8h273c4.4,0,8,3.6,8,8v0.3     C410.1,265.7,406.5,269.3,402.1,269.3z" fill="#FFC42E" id="XMLID_274_"/><path d="M402.1,304.2h-273c-4.4,0-8-3.6-8-8v-0.3c0-4.4,3.6-8,8-8h273c4.4,0,8,3.6,8,8v0.3     C410.1,300.7,406.5,304.2,402.1,304.2z" fill="#FFC42E" id="XMLID_271_"/><path d="M402.1,339.2h-273c-4.4,0-8-3.6-8-8v-0.3c0-4.4,3.6-8,8-8h273c4.4,0,8,3.6,8,8v0.3     C410.1,335.6,406.5,339.2,402.1,339.2z" fill="#FFC42E" id="XMLID_268_"/><path d="M402.1,374.1h-273c-4.4,0-8-3.6-8-8v-0.3c0-4.4,3.6-8,8-8h273c4.4,0,8,3.6,8,8v0.3     C410.1,370.5,406.5,374.1,402.1,374.1z" fill="#FFC42E" id="XMLID_254_"/><path d="M402.1,409h-273c-4.4,0-8-3.6-8-8v-0.3c0-4.4,3.6-8,8-8h273c4.4,0,8,3.6,8,8v0.3     C410.1,405.5,406.5,409,402.1,409z" fill="#FFC42E" id="XMLID_221_"/><path d="M336.9,444H129.1c-4.4,0-8-3.6-8-8v-0.3c0-4.4,3.6-8,8-8h207.8c4.4,0,8,3.6,8,8v0.3     C344.9,440.4,341.3,444,336.9,444z" fill="#FFC42E" id="XMLID_197_"/></g></g><g id="XMLID_3697_"><path d="M103.3,148.3v-51H120c5.6,0,10,1.2,13.2,3.5c3.2,2.3,4.8,5.8,4.8,10.4    c0,2.2-0.6,4.3-1.9,6.1c-1.3,1.8-3,3.2-5.3,4.1c3.3,0.5,5.8,2,7.6,4.2c1.8,2.3,2.6,5,2.6,8.1c0,4.8-1.6,8.4-4.7,10.9    c-3.1,2.5-7.5,3.7-13,3.7H103.3z M111.8,118.7h9.1c2.6,0,4.7-0.6,6.3-1.9c1.5-1.2,2.3-3,2.3-5.3c0-2.5-0.8-4.4-2.4-5.6    s-4-1.8-7-1.8h-8.2V118.7z M111.8,125.1v16.4h11.5c2.9,0,5.2-0.7,6.8-2c1.6-1.3,2.4-3.3,2.4-5.8c0-2.6-0.8-4.6-2.3-6.1    c-1.6-1.5-3.8-2.3-6.6-2.4h-0.5H111.8z" fill="#FFFFFF" id="XMLID_3703_"/><path d="M177,136.5h0.2l14.8-39.3h10.9v51h-8.5v-36.7l-0.2,0L180,148.3h-5.9l-14.3-37.4l-0.2,0.1    v37.3h-8.5v-51h11.2L177,136.5z" fill="#FFFFFF" id="XMLID_3701_"/><path d="M224.2,128.9v19.3h-8.5v-51h19.6c5.6,0,10,1.5,13.2,4.4c3.2,2.9,4.8,6.7,4.8,11.5    c0,4.8-1.6,8.6-4.8,11.5c-3.2,2.9-7.6,4.3-13.2,4.3H224.2z M224.2,122.1h11c3.2,0,5.5-0.8,7.1-2.5c1.6-1.7,2.4-3.8,2.4-6.4    c0-2.6-0.8-4.8-2.4-6.5c-1.6-1.7-4-2.6-7.1-2.6h-11V122.1z" fill="#FFFFFF" id="XMLID_3698_"/></g></g></svg>