<?xml version="1.0" ?><svg baseProfile="tiny" id="Layer_1" version="1.2" viewBox="0 0 512 512" xml:space="preserve" xmlns="http://www.w3.org/2000/svg" xmlns:xlink="http://www.w3.org/1999/xlink"><g id="XMLID_1713_"><g id="XMLID_336_"><path d="M432.8,506H98.4c-8.3,0-15-6.7-15-15V21c0-8.3,6.7-15,15-15h334.4c8.3,0,15,6.7,15,15v470    C447.9,499.3,441.1,506,432.8,506z" fill="#FCE379" id="XMLID_367_"/><rect fill="#FFFFFF" height="469.3" id="XMLID_366_" width="333.8" x="98.7" y="21.3"/><g id="XMLID_359_"><polygon fill="#FFC42E" id="XMLID_363_" points="352.4,180.6 64.1,180.6 64.1,64.9 352.4,64.9 288.6,122.8    "/><polygon fill="#FAAA20" id="XMLID_360_" points="64.1,180.6 83.4,194.9 83.4,180.6    "/></g><g id="XMLID_337_"><path d="M402.1,234.4h-273c-4.4,0-8-3.6-8-8v-0.3c0-4.4,3.6-8,8-8h273c4.4,0,8,3.6,8,8v0.3     C410.1,230.8,406.5,234.4,402.1,234.4z" fill="#FFC42E" id="XMLID_356_"/><path d="M402.1,269.3h-273c-4.4,0-8-3.6-8-8V261c0-4.4,3.6-8,8-8h273c4.4,0,8,3.6,8,8v0.3     C410.1,265.7,406.5,269.3,402.1,269.3z" fill="#FFC42E" id="XMLID_353_"/><path d="M402.1,304.2h-273c-4.4,0-8-3.6-8-8v-0.3c0-4.4,3.6-8,8-8h273c4.4,0,8,3.6,8,8v0.3     C410.1,300.7,406.5,304.2,402.1,304.2z" fill="#FFC42E" id="XMLID_350_"/><path d="M402.1,339.2h-273c-4.4,0-8-3.6-8-8v-0.3c0-4.4,3.6-8,8-8h273c4.4,0,8,3.6,8,8v0.3     C410.1,335.6,406.5,339.2,402.1,339.2z" fill="#FFC42E" id="XMLID_347_"/><path d="M402.1,374.1h-273c-4.4,0-8-3.6-8-8v-0.3c0-4.4,3.6-8,8-8h273c4.4,0,8,3.6,8,8v0.3     C410.1,370.5,406.5,374.1,402.1,374.1z" fill="#FFC42E" id="XMLID_344_"/><path d="M402.1,409h-273c-4.4,0-8-3.6-8-8v-0.3c0-4.4,3.6-8,8-8h273c4.4,0,8,3.6,8,8v0.3     C410.1,405.5,406.5,409,402.1,409z" fill="#FFC42E" id="XMLID_341_"/><path d="M336.9,444H129.1c-4.4,0-8-3.6-8-8v-0.3c0-4.4,3.6-8,8-8h207.8c4.4,0,8,3.6,8,8v0.3     C344.9,440.4,341.3,444,336.9,444z" fill="#FFC42E" id="XMLID_338_"/></g></g><g id="XMLID_3221_"><path d="M148.2,132.5l0.1,0.2c0.1,5.7-1.7,10.3-5.5,13.8c-3.8,3.5-8.9,5.2-15.4,5.2    c-6.6,0-11.9-2.2-16-6.6c-4.1-4.4-6.1-10.1-6.1-17v-10.7c0-6.9,2-12.5,6-17c4-4.5,9.3-6.7,15.8-6.7c6.6,0,11.9,1.7,15.7,5.1    c3.8,3.4,5.7,8,5.6,13.9l-0.1,0.2h-9.1c0-3.8-1-6.7-3.1-8.7c-2-2-5-3-9-3c-3.8,0-6.9,1.5-9.1,4.6c-2.2,3-3.4,6.9-3.4,11.5v10.8    c0,4.7,1.1,8.5,3.4,11.6c2.3,3,5.4,4.6,9.3,4.6c3.8,0,6.8-1,8.8-3c2-2,3-4.9,3-8.7H148.2z" fill="#FFFFFF" id="XMLID_3228_"/><path d="M189.1,137.8h-20l-4.3,13.2H155l19.7-56.4h8.9l19.4,56.4h-9.7L189.1,137.8z M171.7,129.9    h14.8l-7.2-22.2h-0.2L171.7,129.9z" fill="#FFFFFF" id="XMLID_3225_"/><path d="M212.5,151V94.6h18.6c7.2,0,13,2.2,17.5,6.7c4.5,4.5,6.7,10.2,6.7,17.2v8.6    c0,7.1-2.2,12.8-6.7,17.2c-4.5,4.4-10.3,6.7-17.5,6.7H212.5z M221.9,102.1v41.3h9.2c4.5,0,8.1-1.5,10.8-4.6c2.7-3.1,4-7,4-11.8    v-8.6c0-4.8-1.3-8.7-4-11.7c-2.7-3.1-6.3-4.6-10.8-4.6H221.9z" fill="#FFFFFF" id="XMLID_3222_"/></g></g></svg>