<?xml version="1.0" ?><svg baseProfile="tiny" id="Layer_1" version="1.2" viewBox="0 0 512 512" xml:space="preserve" xmlns="http://www.w3.org/2000/svg" xmlns:xlink="http://www.w3.org/1999/xlink"><g id="XMLID_1725_"><g id="XMLID_752_"><path d="M432.8,506H98.4c-8.3,0-15-6.7-15-15V21c0-8.3,6.7-15,15-15h334.4c8.3,0,15,6.7,15,15v470    C447.9,499.3,441.1,506,432.8,506z" fill="#F45671" id="XMLID_783_"/><rect fill="#FFFFFF" height="469.3" id="XMLID_782_" width="333.8" x="98.7" y="21.3"/><g id="XMLID_775_"><polygon fill="#E03258" id="XMLID_779_" points="352.4,180.6 64.1,180.6 64.1,64.9 352.4,64.9 288.6,122.8    "/><polygon fill="#BC2049" id="XMLID_776_" points="64.1,180.6 83.4,194.9 83.4,180.6    "/></g><g id="XMLID_753_"><path d="M402.1,234.4h-273c-4.4,0-8-3.6-8-8v-0.3c0-4.4,3.6-8,8-8h273c4.4,0,8,3.6,8,8v0.3     C410.1,230.8,406.5,234.4,402.1,234.4z" fill="#E03258" id="XMLID_772_"/><path d="M402.1,269.3h-273c-4.4,0-8-3.6-8-8V261c0-4.4,3.6-8,8-8h273c4.4,0,8,3.6,8,8v0.3     C410.1,265.7,406.5,269.3,402.1,269.3z" fill="#E03258" id="XMLID_769_"/><path d="M402.1,304.2h-273c-4.4,0-8-3.6-8-8v-0.3c0-4.4,3.6-8,8-8h273c4.4,0,8,3.6,8,8v0.3     C410.1,300.7,406.5,304.2,402.1,304.2z" fill="#E03258" id="XMLID_766_"/><path d="M402.1,339.2h-273c-4.4,0-8-3.6-8-8v-0.3c0-4.4,3.6-8,8-8h273c4.4,0,8,3.6,8,8v0.3     C410.1,335.6,406.5,339.2,402.1,339.2z" fill="#E03258" id="XMLID_763_"/><path d="M402.1,374.1h-273c-4.4,0-8-3.6-8-8v-0.3c0-4.4,3.6-8,8-8h273c4.4,0,8,3.6,8,8v0.3     C410.1,370.5,406.5,374.1,402.1,374.1z" fill="#E03258" id="XMLID_760_"/><path d="M402.1,409h-273c-4.4,0-8-3.6-8-8v-0.3c0-4.4,3.6-8,8-8h273c4.4,0,8,3.6,8,8v0.3     C410.1,405.5,406.5,409,402.1,409z" fill="#E03258" id="XMLID_757_"/><path d="M336.9,444H129.1c-4.4,0-8-3.6-8-8v-0.3c0-4.4,3.6-8,8-8h207.8c4.4,0,8,3.6,8,8v0.3     C344.9,440.4,341.3,444,336.9,444z" fill="#E03258" id="XMLID_754_"/></g></g><g id="XMLID_2518_"><path d="M146.7,132.4l0.1,0.2c0.1,5.6-1.7,10.1-5.5,13.6c-3.7,3.5-8.8,5.2-15.2,5.2    c-6.5,0-11.7-2.2-15.8-6.6c-4-4.4-6-10-6-16.8v-10.6c0-6.8,2-12.4,6-16.8s9.2-6.6,15.6-6.6c6.6,0,11.7,1.7,15.5,5    c3.8,3.3,5.6,7.9,5.5,13.7l-0.1,0.2h-9c0-3.7-1-6.6-3-8.6c-2-2-5-3-8.9-3c-3.8,0-6.8,1.5-9,4.5c-2.2,3-3.3,6.8-3.3,11.3v10.7    c0,4.6,1.1,8.4,3.4,11.4c2.2,3,5.3,4.5,9.2,4.5c3.8,0,6.7-1,8.7-3c2-2,3-4.9,3-8.6H146.7z" fill="#FFFFFF" id="XMLID_2525_"/><path d="M158,150.6V94.9h18.4c7.1,0,12.8,2.2,17.2,6.6c4.4,4.4,6.6,10.1,6.6,17v8.5    c0,7-2.2,12.6-6.6,17c-4.4,4.4-10.2,6.6-17.2,6.6H158z M167.3,102.4v40.8h9.1c4.5,0,8-1.5,10.6-4.5c2.6-3,3.9-6.9,3.9-11.6v-8.5    c0-4.7-1.3-8.6-3.9-11.6c-2.6-3-6.2-4.5-10.6-4.5H167.3z" fill="#FFFFFF" id="XMLID_2522_"/><path d="M222.2,127.5v23.1h-9.3V94.9h19.2c6.2,0,11,1.4,14.4,4.2c3.4,2.8,5.1,6.8,5.1,12    c0,2.9-0.7,5.4-2.2,7.4c-1.5,2.1-3.7,3.7-6.5,5c3.1,1,5.4,2.6,6.8,4.9c1.4,2.2,2.1,5,2.1,8.3v4.6c0,1.6,0.2,3.2,0.6,4.8    c0.4,1.6,1.1,2.7,2,3.6v0.9h-9.6c-1-0.8-1.7-2.2-2-3.9c-0.3-1.8-0.4-3.6-0.4-5.4v-4.5c0-2.9-0.8-5.1-2.5-6.8    c-1.6-1.7-3.9-2.5-6.7-2.5H222.2z M222.2,120h9.4c3.7,0,6.4-0.7,8.1-2.1c1.7-1.4,2.6-3.6,2.6-6.5c0-2.8-0.8-5-2.5-6.6    c-1.7-1.6-4.2-2.4-7.7-2.4h-9.9V120z" fill="#FFFFFF" id="XMLID_2519_"/></g></g></svg>