<?xml version="1.0" ?><svg baseProfile="tiny" id="Layer_1" version="1.2" viewBox="0 0 512 512" xml:space="preserve" xmlns="http://www.w3.org/2000/svg" xmlns:xlink="http://www.w3.org/1999/xlink"><g id="XMLID_54_"><g id="XMLID_970_"><path d="M432.8,506H98.4c-8.3,0-15-6.7-15-15V21c0-8.3,6.7-15,15-15h334.4c8.3,0,15,6.7,15,15    v470C447.9,499.3,441.1,506,432.8,506z" fill="#3DA7E3" id="XMLID_1001_"/><rect fill="#FFFFFF" height="469.3" id="XMLID_1000_" width="333.8" x="98.7" y="21.3"/><g id="XMLID_993_"><polygon fill="#2A68A6" id="XMLID_997_" points="352.4,180.6 64.1,180.6 64.1,64.9 352.4,64.9 288.6,122.8    "/><polygon fill="#114D7F" id="XMLID_994_" points="64.1,180.6 83.4,194.9 83.4,180.6    "/></g><g id="XMLID_971_"><path d="M402.2,234.4H129.1c-4.4,0-8-3.6-8-8V226c0-4.4,3.6-8,8-8h273.1c4.4,0,8,3.6,8,8v0.4     C410.1,230.8,406.6,234.4,402.2,234.4z" fill="#2A68A6" id="XMLID_990_"/><path d="M402.2,269.3H129.1c-4.4,0-8-3.6-8-8V261c0-4.4,3.6-8,8-8h273.1c4.4,0,8,3.6,8,8v0.4     C410.1,265.8,406.6,269.3,402.2,269.3z" fill="#2A68A6" id="XMLID_987_"/><path d="M402.2,304.2H129.1c-4.4,0-8-3.6-8-8v-0.4c0-4.4,3.6-8,8-8h273.1c4.4,0,8,3.6,8,8v0.4     C410.1,300.7,406.6,304.2,402.2,304.2z" fill="#2A68A6" id="XMLID_984_"/><path d="M402.2,339.2H129.1c-4.4,0-8-3.6-8-8v-0.4c0-4.4,3.6-8,8-8h273.1c4.4,0,8,3.6,8,8v0.4     C410.1,335.6,406.6,339.2,402.2,339.2z" fill="#2A68A6" id="XMLID_981_"/><path d="M402.2,374.1H129.1c-4.4,0-8-3.6-8-8v-0.4c0-4.4,3.6-8,8-8h273.1c4.4,0,8,3.6,8,8v0.4     C410.1,370.5,406.6,374.1,402.2,374.1z" fill="#2A68A6" id="XMLID_978_"/><path d="M402.2,409H129.1c-4.4,0-8-3.6-8-8v-0.4c0-4.4,3.6-8,8-8h273.1c4.4,0,8,3.6,8,8v0.4     C410.1,405.5,406.6,409,402.2,409z" fill="#2A68A6" id="XMLID_975_"/><path d="M337,444H129.1c-4.4,0-8-3.6-8-8v-0.4c0-4.4,3.6-8,8-8H337c4.4,0,8,3.6,8,8v0.4     C344.9,440.4,341.4,444,337,444z" fill="#2A68A6" id="XMLID_972_"/></g></g><g id="XMLID_2378_"><path d="M146.8,132.9l0.1,0.2c0.1,5.9-1.8,10.6-5.7,14.3c-3.9,3.6-9.2,5.4-15.9,5.4    c-6.8,0-12.3-2.3-16.5-6.9c-4.2-4.6-6.3-10.5-6.3-17.6v-11.1c0-7.1,2.1-13,6.3-17.6c4.2-4.6,9.6-6.9,16.3-6.9    c6.9,0,12.3,1.8,16.2,5.3c3.9,3.5,5.9,8.3,5.8,14.4l-0.1,0.2h-9.4c0-3.9-1.1-6.9-3.2-9c-2.1-2.1-5.2-3.1-9.3-3.1    c-4,0-7.1,1.6-9.4,4.7c-2.3,3.1-3.5,7.1-3.5,11.9v11.2c0,4.8,1.2,8.8,3.5,12c2.4,3.1,5.6,4.7,9.6,4.7c4,0,7-1,9.1-3.1    c2.1-2.1,3.1-5.1,3.1-9H146.8z" fill="#FFFFFF" id="XMLID_2391_"/><path d="M189.5,137c0-2.4-0.9-4.4-2.6-6c-1.7-1.6-4.8-2.9-9.2-4.2c-6.3-1.7-11.1-4-14.6-6.8    c-3.4-2.8-5.1-6.5-5.1-11.1c0-4.7,1.9-8.6,5.6-11.6c3.7-3.1,8.6-4.6,14.5-4.6c6.3,0,11.4,1.7,15.2,5.1c3.8,3.4,5.6,7.6,5.5,12.5    l-0.1,0.2h-9.4c0-3.1-1-5.5-3.1-7.3c-2-1.8-4.8-2.7-8.2-2.7c-3.3,0-5.8,0.8-7.6,2.3c-1.8,1.6-2.7,3.6-2.7,6c0,2.2,1,4.1,2.9,5.6    c2,1.5,5.2,2.8,9.7,4.2c6.1,1.7,10.8,4,14,7c3.2,3,4.8,6.7,4.8,11.3c0,4.8-1.9,8.7-5.7,11.6c-3.8,2.9-8.8,4.3-15,4.3    c-5.9,0-11.1-1.6-15.5-4.7c-4.4-3.2-6.6-7.6-6.4-13.4l0.1-0.2h9.4c0,3.5,1.2,6.1,3.6,7.9c2.4,1.8,5.4,2.7,8.9,2.7    c3.5,0,6.1-0.7,8.1-2.2C188.6,141.4,189.5,139.5,189.5,137z" fill="#FFFFFF" id="XMLID_2381_"/><path d="M242.5,137c0-2.4-0.9-4.4-2.6-6c-1.7-1.6-4.8-2.9-9.2-4.2c-6.3-1.7-11.1-4-14.6-6.8    c-3.4-2.8-5.1-6.5-5.1-11.1c0-4.7,1.9-8.6,5.6-11.6c3.7-3.1,8.6-4.6,14.5-4.6c6.3,0,11.4,1.7,15.2,5.1c3.8,3.4,5.6,7.6,5.5,12.5    l-0.1,0.2h-9.4c0-3.1-1-5.5-3.1-7.3c-2-1.8-4.8-2.7-8.2-2.7c-3.3,0-5.8,0.8-7.6,2.3c-1.8,1.6-2.7,3.6-2.7,6c0,2.2,1,4.1,2.9,5.6    c2,1.5,5.2,2.8,9.7,4.2c6.1,1.7,10.8,4,14,7c3.2,3,4.8,6.7,4.8,11.3c0,4.8-1.9,8.7-5.7,11.6c-3.8,2.9-8.8,4.3-15,4.3    c-5.9,0-11.1-1.6-15.5-4.7c-4.4-3.2-6.6-7.6-6.4-13.4l0.1-0.2h9.4c0,3.5,1.2,6.1,3.6,7.9c2.4,1.8,5.4,2.7,8.9,2.7    c3.5,0,6.1-0.7,8.1-2.2C241.6,141.4,242.5,139.5,242.5,137z" fill="#FFFFFF" id="XMLID_2379_"/></g></g></svg>