<?xml version="1.0" ?><svg baseProfile="tiny" id="Layer_1" version="1.2" viewBox="0 0 512 512" xml:space="preserve" xmlns="http://www.w3.org/2000/svg" xmlns:xlink="http://www.w3.org/1999/xlink"><g id="XMLID_1741_"><g id="XMLID_1454_"><path d="M432.8,506H98.4c-8.3,0-15-6.7-15-15V21c0-8.3,6.7-15,15-15h334.4c8.3,0,15,6.7,15,15    v470C447.9,499.3,441.1,506,432.8,506z" fill="#475563" id="XMLID_1485_"/><rect fill="#FFFFFF" height="469.3" id="XMLID_1484_" width="333.8" x="98.7" y="21.3"/><g id="XMLID_1477_"><polygon fill="#24323D" id="XMLID_1481_" points="352.4,180.6 64.1,180.6 64.1,64.9 352.4,64.9 288.6,122.8    "/><polygon fill="#151F26" id="XMLID_1478_" points="64.1,180.6 83.4,194.9 83.4,180.6    "/></g><g id="XMLID_1455_"><path d="M402.1,234.4h-273c-4.4,0-8-3.6-8-8v-0.3c0-4.4,3.6-8,8-8h273c4.4,0,8,3.6,8,8v0.3     C410.1,230.8,406.5,234.4,402.1,234.4z" fill="#24323D" id="XMLID_1474_"/><path d="M402.1,269.3h-273c-4.4,0-8-3.6-8-8V261c0-4.4,3.6-8,8-8h273c4.4,0,8,3.6,8,8v0.3     C410.1,265.7,406.5,269.3,402.1,269.3z" fill="#24323D" id="XMLID_1471_"/><path d="M402.1,304.2h-273c-4.4,0-8-3.6-8-8v-0.3c0-4.4,3.6-8,8-8h273c4.4,0,8,3.6,8,8v0.3     C410.1,300.7,406.5,304.2,402.1,304.2z" fill="#24323D" id="XMLID_1468_"/><path d="M402.1,339.2h-273c-4.4,0-8-3.6-8-8v-0.3c0-4.4,3.6-8,8-8h273c4.4,0,8,3.6,8,8v0.3     C410.1,335.6,406.5,339.2,402.1,339.2z" fill="#24323D" id="XMLID_1465_"/><path d="M402.1,374.1h-273c-4.4,0-8-3.6-8-8v-0.3c0-4.4,3.6-8,8-8h273c4.4,0,8,3.6,8,8v0.3     C410.1,370.5,406.5,374.1,402.1,374.1z" fill="#24323D" id="XMLID_1462_"/><path d="M402.1,409h-273c-4.4,0-8-3.6-8-8v-0.3c0-4.4,3.6-8,8-8h273c4.4,0,8,3.6,8,8v0.3     C410.1,405.5,406.5,409,402.1,409z" fill="#24323D" id="XMLID_1459_"/><path d="M336.9,444H129.1c-4.4,0-8-3.6-8-8v-0.3c0-4.4,3.6-8,8-8h207.8c4.4,0,8,3.6,8,8v0.3     C344.9,440.4,341.3,444,336.9,444z" fill="#24323D" id="XMLID_1456_"/></g></g><g id="XMLID_1804_"><linearGradient gradientUnits="userSpaceOnUse" id="XMLID_2_" x1="122.7816" x2="176.6431" y1="122.7558" y2="122.7558"><stop offset="0" style="stop-color:#FFFFFF"/><stop offset="1" style="stop-color:#000000"/></linearGradient><path d="M123.3,157.6V87.9h23    c8.8,0,16,2.8,21.6,8.3c5.5,5.5,8.3,12.6,8.3,21.3v10.6c0,8.7-2.8,15.8-8.3,21.3c-5.5,5.5-12.7,8.2-21.6,8.2H123.3z M134.9,97.3    v51h11.4c5.6,0,10-1.9,13.3-5.7c3.3-3.8,4.9-8.6,4.9-14.6v-10.7c0-5.9-1.6-10.7-4.9-14.5c-3.3-3.8-7.7-5.7-13.3-5.7H134.9z" fill="#FFFFFF" id="XMLID_1812_" stroke="url(#XMLID_2_)" stroke-miterlimit="10"/><linearGradient gradientUnits="userSpaceOnUse" id="XMLID_3_" x1="191.3552" x2="243.7816" y1="122.7558" y2="122.7558"><stop offset="0" style="stop-color:#FFFFFF"/><stop offset="1" style="stop-color:#000000"/></linearGradient><path d="M191.9,157.6V87.9h22.8    c7.7,0,13.7,1.6,18,4.8c4.3,3.2,6.5,7.9,6.5,14.2c0,3.1-0.9,5.8-2.6,8.3c-1.7,2.5-4.2,4.3-7.2,5.6c4.5,0.7,7.9,2.7,10.3,5.8    c2.4,3.1,3.6,6.8,3.6,11c0,6.5-2.1,11.5-6.4,14.9c-4.3,3.4-10.2,5.1-17.7,5.1H191.9z M203.5,117.3h12.4c3.6,0,6.5-0.9,8.5-2.6    c2.1-1.7,3.1-4.1,3.1-7.2c0-3.4-1.1-6-3.3-7.7c-2.2-1.7-5.4-2.5-9.6-2.5h-11.2V117.3z M203.5,125.9v22.4h15.7c4,0,7.1-0.9,9.3-2.8    c2.2-1.8,3.3-4.5,3.3-8c0-3.5-1.1-6.3-3.2-8.4c-2.1-2.1-5.1-3.2-9-3.3h-0.6H203.5z" fill="#FFFFFF" id="XMLID_1806_" stroke="url(#XMLID_3_)" stroke-miterlimit="10"/></g></g></svg>