<?xml version="1.0" ?><svg baseProfile="tiny" id="Layer_1" version="1.2" viewBox="0 0 512 512" xml:space="preserve" xmlns="http://www.w3.org/2000/svg" xmlns:xlink="http://www.w3.org/1999/xlink"><g id="XMLID_1704_"><g id="XMLID_217_"><path d="M432.8,506H98.4c-8.3,0-15-6.7-15-15V21c0-8.3,6.7-15,15-15h334.4c8.3,0,15,6.7,15,15v470    C447.9,499.3,441.1,506,432.8,506z" fill="#F45671" id="XMLID_322_"/><rect fill="#FFFFFF" height="469.3" id="XMLID_321_" width="333.8" x="98.7" y="21.3"/><g id="XMLID_314_"><polygon fill="#E03258" id="XMLID_318_" points="352.4,180.6 64.1,180.6 64.1,64.9 352.4,64.9 288.6,122.8    "/><polygon fill="#BC2049" id="XMLID_315_" points="64.1,180.6 83.4,194.9 83.4,180.6    "/></g><g id="XMLID_220_"><path d="M402.1,234.4h-273c-4.4,0-8-3.6-8-8v-0.3c0-4.4,3.6-8,8-8h273c4.4,0,8,3.6,8,8v0.3     C410.1,230.8,406.5,234.4,402.1,234.4z" fill="#E03258" id="XMLID_311_"/><path d="M402.1,269.3h-273c-4.4,0-8-3.6-8-8V261c0-4.4,3.6-8,8-8h273c4.4,0,8,3.6,8,8v0.3     C410.1,265.7,406.5,269.3,402.1,269.3z" fill="#E03258" id="XMLID_308_"/><path d="M402.1,304.2h-273c-4.4,0-8-3.6-8-8v-0.3c0-4.4,3.6-8,8-8h273c4.4,0,8,3.6,8,8v0.3     C410.1,300.7,406.5,304.2,402.1,304.2z" fill="#E03258" id="XMLID_305_"/><path d="M402.1,339.2h-273c-4.4,0-8-3.6-8-8v-0.3c0-4.4,3.6-8,8-8h273c4.4,0,8,3.6,8,8v0.3     C410.1,335.6,406.5,339.2,402.1,339.2z" fill="#E03258" id="XMLID_302_"/><path d="M402.1,374.1h-273c-4.4,0-8-3.6-8-8v-0.3c0-4.4,3.6-8,8-8h273c4.4,0,8,3.6,8,8v0.3     C410.1,370.5,406.5,374.1,402.1,374.1z" fill="#E03258" id="XMLID_299_"/><path d="M402.1,409h-273c-4.4,0-8-3.6-8-8v-0.3c0-4.4,3.6-8,8-8h273c4.4,0,8,3.6,8,8v0.3     C410.1,405.5,406.5,409,402.1,409z" fill="#E03258" id="XMLID_267_"/><path d="M336.9,444H129.1c-4.4,0-8-3.6-8-8v-0.3c0-4.4,3.6-8,8-8h207.8c4.4,0,8,3.6,8,8v0.3     C344.9,440.4,341.3,444,336.9,444z" fill="#E03258" id="XMLID_223_"/></g></g><g id="XMLID_3652_"><path d="M108.3,147.8V97.7h16.6c6.4,0,11.5,2,15.5,6c4,4,6,9.1,6,15.3v7.6c0,6.3-2,11.4-6,15.3    c-4,3.9-9.2,5.9-15.5,5.9H108.3z M116.7,104.4v36.8h8.2c4,0,7.2-1.4,9.6-4.1c2.4-2.7,3.5-6.2,3.5-10.5v-7.7    c0-4.2-1.2-7.7-3.5-10.4c-2.4-2.7-5.6-4.1-9.6-4.1H116.7z" fill="#FFFFFF" id="XMLID_3657_"/><path d="M183,136.3h0.2l14.5-38.6h10.7v50.2h-8.4v-36l-0.2,0L186,147.8h-5.8l-14.1-36.8l-0.2,0.1    v36.7h-8.4V97.7h11L183,136.3z" fill="#FFFFFF" id="XMLID_3655_"/><path d="M258.3,141c-1.4,2-3.6,3.7-6.6,5.2c-3,1.5-6.9,2.3-11.7,2.3c-5.9,0-10.8-1.9-14.6-5.7    c-3.8-3.8-5.7-8.8-5.7-14.8v-10.5c0-6.1,1.8-11,5.5-14.8c3.7-3.8,8.5-5.7,14.3-5.7c5.8,0,10.4,1.5,13.6,4.4    c3.3,2.9,4.8,6.8,4.8,11.5l-0.1,0.2h-8c0-2.8-0.9-5.1-2.6-6.8c-1.8-1.7-4.3-2.6-7.6-2.6c-3.5,0-6.3,1.3-8.4,3.9    c-2.1,2.6-3.2,5.9-3.2,9.9V128c0,4,1.1,7.4,3.3,10c2.2,2.6,5.1,3.9,8.7,3.9c2.7,0,4.8-0.3,6.4-0.9c1.6-0.6,2.7-1.3,3.5-2.2v-10.4    h-10.5v-6.3h18.9V141z" fill="#FFFFFF" id="XMLID_3653_"/></g></g></svg>