<?xml version="1.0" ?><svg baseProfile="tiny" id="Layer_1" version="1.2" viewBox="0 0 512 512" xml:space="preserve" xmlns="http://www.w3.org/2000/svg" xmlns:xlink="http://www.w3.org/1999/xlink"><g id="XMLID_1709_"><g id="XMLID_270_"><path d="M432.8,506H98.4c-8.3,0-15-6.7-15-15V21c0-8.3,6.7-15,15-15h334.4c8.3,0,15,6.7,15,15v470    C447.9,499.3,441.1,506,432.8,506z" fill="#16896B" id="XMLID_291_"/><rect fill="#FFFFFF" height="469.3" id="XMLID_290_" width="333.8" x="98.7" y="21.3"/><g id="XMLID_285_"><polygon fill="#2EBC9A" id="XMLID_289_" points="352.4,180.6 64.1,180.6 64.1,64.9 352.4,64.9 288.6,122.8    "/><polygon fill="#10644C" id="XMLID_286_" points="64.1,180.6 83.4,194.9 83.4,180.6    "/></g><g id="XMLID_272_"><path d="M402.1,234.4h-273c-4.4,0-8-3.6-8-8v-0.3c0-4.4,3.6-8,8-8h273c4.4,0,8,3.6,8,8v0.3     C410.1,230.8,406.5,234.4,402.1,234.4z" fill="#2EBC9A" id="XMLID_283_"/><path d="M402.1,269.3h-273c-4.4,0-8-3.6-8-8V261c0-4.4,3.6-8,8-8h273c4.4,0,8,3.6,8,8v0.3     C410.1,265.7,406.5,269.3,402.1,269.3z" fill="#2EBC9A" id="XMLID_282_"/><path d="M402.1,304.2h-273c-4.4,0-8-3.6-8-8v-0.3c0-4.4,3.6-8,8-8h273c4.4,0,8,3.6,8,8v0.3     C410.1,300.7,406.5,304.2,402.1,304.2z" fill="#2EBC9A" id="XMLID_279_"/><path d="M402.1,339.2h-273c-4.4,0-8-3.6-8-8v-0.3c0-4.4,3.6-8,8-8h273c4.4,0,8,3.6,8,8v0.3     C410.1,335.6,406.5,339.2,402.1,339.2z" fill="#2EBC9A" id="XMLID_278_"/><path d="M402.1,374.1h-273c-4.4,0-8-3.6-8-8v-0.3c0-4.4,3.6-8,8-8h273c4.4,0,8,3.6,8,8v0.3     C410.1,370.5,406.5,374.1,402.1,374.1z" fill="#2EBC9A" id="XMLID_276_"/><path d="M402.1,409h-273c-4.4,0-8-3.6-8-8v-0.3c0-4.4,3.6-8,8-8h273c4.4,0,8,3.6,8,8v0.3     C410.1,405.5,406.5,409,402.1,409z" fill="#2EBC9A" id="XMLID_275_"/><path d="M336.9,444H129.1c-4.4,0-8-3.6-8-8v-0.3c0-4.4,3.6-8,8-8h207.8c4.4,0,8,3.6,8,8v0.3     C344.9,440.4,341.3,444,336.9,444z" fill="#2EBC9A" id="XMLID_273_"/></g></g><g id="XMLID_3604_"><path d="M105.3,143.1v-40.7h13.4c5.2,0,9.4,1.6,12.6,4.8c3.2,3.2,4.8,7.4,4.8,12.4v6.2    c0,5.1-1.6,9.2-4.8,12.4c-3.2,3.2-7.4,4.8-12.6,4.8H105.3z M112.1,107.9v29.8h6.7c3.3,0,5.9-1.1,7.8-3.3c1.9-2.2,2.9-5,2.9-8.5    v-6.2c0-3.4-1-6.2-2.9-8.5c-1.9-2.2-4.5-3.3-7.8-3.3H112.1z" fill="#FFFFFF" id="XMLID_3612_"/><path d="M177.3,126.4c0,5-1.6,9.1-4.7,12.4c-3.1,3.3-7.2,4.9-12.2,4.9c-4.9,0-8.8-1.6-11.9-4.9    c-3.1-3.3-4.6-7.4-4.6-12.4v-7.3c0-5,1.5-9.1,4.6-12.4c3-3.3,7-4.9,11.9-4.9c5,0,9,1.6,12.2,4.9c3.1,3.3,4.7,7.4,4.7,12.4V126.4z     M170.5,119c0-3.4-0.9-6.2-2.7-8.4c-1.8-2.2-4.3-3.3-7.4-3.3c-3,0-5.4,1.1-7.1,3.3c-1.7,2.2-2.6,5-2.6,8.4v7.4    c0,3.4,0.9,6.2,2.6,8.4c1.7,2.2,4.1,3.3,7.1,3.3c3.1,0,5.6-1.1,7.4-3.3c1.8-2.2,2.7-5,2.7-8.4V119z" fill="#FFFFFF" id="XMLID_3609_"/><path d="M216,129.8l0.1,0.2c0.1,4.1-1.3,7.4-4,9.9c-2.7,2.5-6.4,3.8-11.1,3.8    c-4.7,0-8.6-1.6-11.5-4.8c-2.9-3.2-4.4-7.3-4.4-12.3v-7.7c0-5,1.5-9,4.4-12.3s6.7-4.8,11.4-4.8c4.8,0,8.6,1.2,11.3,3.7    c2.7,2.4,4.1,5.8,4,10l-0.1,0.2h-6.6c0-2.7-0.7-4.8-2.2-6.2c-1.5-1.4-3.6-2.2-6.5-2.2c-2.8,0-4.9,1.1-6.6,3.3    c-1.6,2.2-2.4,5-2.4,8.3v7.8c0,3.4,0.8,6.2,2.5,8.3c1.6,2.2,3.9,3.3,6.7,3.3c2.8,0,4.9-0.7,6.3-2.2c1.4-1.5,2.2-3.5,2.2-6.3H216z" fill="#FFFFFF" id="XMLID_3607_"/><path d="M238.2,117.4l8.6-15h8l-12.5,20.2l13,20.5h-8.2l-8.8-15.3l-8.8,15.3h-8l12.8-20.5    l-12.5-20.2h8L238.2,117.4z" fill="#FFFFFF" id="XMLID_3605_"/></g></g></svg>