<?xml version="1.0" ?><svg baseProfile="tiny" id="Layer_1" version="1.2" viewBox="0 0 512 512" xml:space="preserve" xmlns="http://www.w3.org/2000/svg" xmlns:xlink="http://www.w3.org/1999/xlink"><g id="XMLID_1719_"><g id="XMLID_588_"><path d="M432.8,506H98.4c-8.3,0-15-6.7-15-15V21c0-8.3,6.7-15,15-15h334.4c8.3,0,15,6.7,15,15v470    C447.9,499.3,441.1,506,432.8,506z" fill="#16896B" id="XMLID_601_"/><rect fill="#FFFFFF" height="469.3" id="XMLID_600_" width="333.8" x="98.7" y="21.3"/><g id="XMLID_597_"><polygon fill="#2EBC9A" id="XMLID_599_" points="352.4,180.6 64.1,180.6 64.1,64.9 352.4,64.9 288.6,122.8    "/><polygon fill="#10644C" id="XMLID_598_" points="64.1,180.6 83.4,194.9 83.4,180.6    "/></g><g id="XMLID_589_"><path d="M402.1,234.4h-273c-4.4,0-8-3.6-8-8v-0.3c0-4.4,3.6-8,8-8h273c4.4,0,8,3.6,8,8v0.3     C410.1,230.8,406.5,234.4,402.1,234.4z" fill="#2EBC9A" id="XMLID_596_"/><path d="M402.1,269.3h-273c-4.4,0-8-3.6-8-8V261c0-4.4,3.6-8,8-8h273c4.4,0,8,3.6,8,8v0.3     C410.1,265.7,406.5,269.3,402.1,269.3z" fill="#2EBC9A" id="XMLID_595_"/><path d="M402.1,304.2h-273c-4.4,0-8-3.6-8-8v-0.3c0-4.4,3.6-8,8-8h273c4.4,0,8,3.6,8,8v0.3     C410.1,300.7,406.5,304.2,402.1,304.2z" fill="#2EBC9A" id="XMLID_594_"/><path d="M402.1,339.2h-273c-4.4,0-8-3.6-8-8v-0.3c0-4.4,3.6-8,8-8h273c4.4,0,8,3.6,8,8v0.3     C410.1,335.6,406.5,339.2,402.1,339.2z" fill="#2EBC9A" id="XMLID_593_"/><path d="M402.1,374.1h-273c-4.4,0-8-3.6-8-8v-0.3c0-4.4,3.6-8,8-8h273c4.4,0,8,3.6,8,8v0.3     C410.1,370.5,406.5,374.1,402.1,374.1z" fill="#2EBC9A" id="XMLID_592_"/><path d="M402.1,409h-273c-4.4,0-8-3.6-8-8v-0.3c0-4.4,3.6-8,8-8h273c4.4,0,8,3.6,8,8v0.3     C410.1,405.5,406.5,409,402.1,409z" fill="#2EBC9A" id="XMLID_591_"/><path d="M336.9,444H129.1c-4.4,0-8-3.6-8-8v-0.3c0-4.4,3.6-8,8-8h207.8c4.4,0,8,3.6,8,8v0.3     C344.9,440.4,341.3,444,336.9,444z" fill="#2EBC9A" id="XMLID_590_"/></g></g><g id="XMLID_3130_"><path d="M104.3,148.7V96.8h17.1c6.6,0,11.9,2.1,16.1,6.2c4.1,4.1,6.2,9.4,6.2,15.9v7.9    c0,6.5-2.1,11.8-6.2,15.9c-4.1,4.1-9.5,6.1-16.1,6.1H104.3z M112.9,103.8v38h8.5c4.2,0,7.5-1.4,9.9-4.2c2.4-2.8,3.7-6.4,3.7-10.9    v-7.9c0-4.4-1.2-8-3.7-10.8c-2.4-2.8-5.8-4.2-9.9-4.2H112.9z" fill="#FFFFFF" id="XMLID_3135_"/><path d="M195.4,134.2h0.2l7.6-37.4h9.1L200,148.7h-7.9l-10.4-36.9h-0.2l-10.4,36.9h-7.9L151,96.8    h9.1l7.7,37.4h0.2l9.9-37.4h7.6L195.4,134.2z" fill="#FFFFFF" id="XMLID_3133_"/><path d="M250.6,126.6h-20.9v22.1h-8.7V96.8h33.2v7h-24.6v15.9h20.9V126.6z" fill="#FFFFFF" id="XMLID_3131_"/></g></g></svg>