<?xml version="1.0" ?><svg baseProfile="tiny" id="Layer_1" version="1.2" viewBox="0 0 512 512" xml:space="preserve" xmlns="http://www.w3.org/2000/svg" xmlns:xlink="http://www.w3.org/1999/xlink"><g id="XMLID_1720_"><g id="XMLID_738_"><path d="M432.8,506H98.4c-8.3,0-15-6.7-15-15V21c0-8.3,6.7-15,15-15h334.4c8.3,0,15,6.7,15,15v470    C447.9,499.3,441.1,506,432.8,506z" fill="#16896B" id="XMLID_751_"/><rect fill="#FFFFFF" height="469.3" id="XMLID_750_" width="333.8" x="98.7" y="21.3"/><g id="XMLID_747_"><polygon fill="#2EBC9A" id="XMLID_749_" points="352.4,180.6 64.1,180.6 64.1,64.9 352.4,64.9 288.6,122.8    "/><polygon fill="#10644C" id="XMLID_748_" points="64.1,180.6 83.4,194.9 83.4,180.6    "/></g><g id="XMLID_739_"><path d="M402.1,234.4h-273c-4.4,0-8-3.6-8-8v-0.3c0-4.4,3.6-8,8-8h273c4.4,0,8,3.6,8,8v0.3     C410.1,230.8,406.5,234.4,402.1,234.4z" fill="#2EBC9A" id="XMLID_746_"/><path d="M402.1,269.3h-273c-4.4,0-8-3.6-8-8V261c0-4.4,3.6-8,8-8h273c4.4,0,8,3.6,8,8v0.3     C410.1,265.7,406.5,269.3,402.1,269.3z" fill="#2EBC9A" id="XMLID_745_"/><path d="M402.1,304.2h-273c-4.4,0-8-3.6-8-8v-0.3c0-4.4,3.6-8,8-8h273c4.4,0,8,3.6,8,8v0.3     C410.1,300.7,406.5,304.2,402.1,304.2z" fill="#2EBC9A" id="XMLID_744_"/><path d="M402.1,339.2h-273c-4.4,0-8-3.6-8-8v-0.3c0-4.4,3.6-8,8-8h273c4.4,0,8,3.6,8,8v0.3     C410.1,335.6,406.5,339.2,402.1,339.2z" fill="#2EBC9A" id="XMLID_743_"/><path d="M402.1,374.1h-273c-4.4,0-8-3.6-8-8v-0.3c0-4.4,3.6-8,8-8h273c4.4,0,8,3.6,8,8v0.3     C410.1,370.5,406.5,374.1,402.1,374.1z" fill="#2EBC9A" id="XMLID_742_"/><path d="M402.1,409h-273c-4.4,0-8-3.6-8-8v-0.3c0-4.4,3.6-8,8-8h273c4.4,0,8,3.6,8,8v0.3     C410.1,405.5,406.5,409,402.1,409z" fill="#2EBC9A" id="XMLID_741_"/><path d="M336.9,444H129.1c-4.4,0-8-3.6-8-8v-0.3c0-4.4,3.6-8,8-8h207.8c4.4,0,8,3.6,8,8v0.3     C344.9,440.4,341.3,444,336.9,444z" fill="#2EBC9A" id="XMLID_740_"/></g></g><g id="XMLID_2950_"><path d="M103.3,147.8V97.7h16.6c6.4,0,11.5,2,15.5,6c4,4,6,9.1,6,15.3v7.6c0,6.3-2,11.4-6,15.3    c-4,3.9-9.2,5.9-15.5,5.9H103.3z M111.7,104.4v36.8h8.2c4,0,7.2-1.4,9.6-4.1c2.4-2.7,3.5-6.2,3.5-10.5v-7.7    c0-4.2-1.2-7.7-3.5-10.4c-2.4-2.7-5.6-4.1-9.6-4.1H111.7z" fill="#FFFFFF" id="XMLID_2955_"/><path d="M191.3,133.8h0.2l7.4-36.2h8.8l-11.9,50.2h-7.6l-10-35.7H178l-10.1,35.7h-7.6l-11.9-50.2    h8.8l7.4,36.1h0.2l9.5-36.1h7.4L191.3,133.8z" fill="#FFFFFF" id="XMLID_2953_"/><path d="M235,141.9c2.7,0,4.8-0.3,6.4-0.9c1.6-0.6,2.7-1.3,3.5-2.2v-10.4h-10.5v-6.3h18.9V141    c-1.4,2-3.6,3.7-6.6,5.2c-3,1.5-6.9,2.3-11.7,2.3c-5.9,0-10.8-1.9-14.6-5.7c-3.8-3.8-5.7-8.8-5.7-14.8v-10.5    c0-6.1,1.8-11,5.5-14.8c3.7-3.8,8.5-5.7,14.3-5.7c5.8,0,10.4,1.5,13.6,4.4c3.3,2.9,4.8,6.8,4.8,11.5l-0.1,0.2h-8    c0-2.8-0.9-5.1-2.6-6.8s-4.3-2.6-7.6-2.6c-3.5,0-6.3,1.3-8.4,3.9c-2.1,2.6-3.2,5.9-3.2,9.9V128c0,4,1.1,7.4,3.3,10    C228.5,140.6,231.4,141.9,235,141.9" fill="#FFFFFF" id="XMLID_2951_"/></g></g></svg>