<?xml version="1.0" ?><svg baseProfile="tiny" id="Layer_1" version="1.2" viewBox="0 0 512 512" xml:space="preserve" xmlns="http://www.w3.org/2000/svg" xmlns:xlink="http://www.w3.org/1999/xlink"><g id="XMLID_53_"><g id="XMLID_936_"><path d="M432.8,506H98.4c-8.3,0-15-6.7-15-15V21c0-8.3,6.7-15,15-15h334.4c8.3,0,15,6.7,15,15v470    C447.9,499.3,441.1,506,432.8,506z" fill="#FCE379" id="XMLID_967_"/><rect fill="#FFFFFF" height="469.3" id="XMLID_966_" width="333.8" x="98.7" y="21.3"/><g id="XMLID_959_"><polygon fill="#FFC42E" id="XMLID_963_" points="352.4,180.6 64.1,180.6 64.1,64.9 352.4,64.9 288.6,122.8    "/><polygon fill="#FAAA20" id="XMLID_960_" points="64.1,180.6 83.4,194.9 83.4,180.6    "/></g><g id="XMLID_937_"><path d="M402.1,234.4h-273c-4.4,0-8-3.6-8-8v-0.3c0-4.4,3.6-8,8-8h273c4.4,0,8,3.6,8,8v0.3     C410.1,230.8,406.5,234.4,402.1,234.4z" fill="#FFC42E" id="XMLID_956_"/><path d="M402.1,269.3h-273c-4.4,0-8-3.6-8-8V261c0-4.4,3.6-8,8-8h273c4.4,0,8,3.6,8,8v0.3     C410.1,265.7,406.5,269.3,402.1,269.3z" fill="#FFC42E" id="XMLID_953_"/><path d="M402.1,304.2h-273c-4.4,0-8-3.6-8-8v-0.3c0-4.4,3.6-8,8-8h273c4.4,0,8,3.6,8,8v0.3     C410.1,300.7,406.5,304.2,402.1,304.2z" fill="#FFC42E" id="XMLID_950_"/><path d="M402.1,339.2h-273c-4.4,0-8-3.6-8-8v-0.3c0-4.4,3.6-8,8-8h273c4.4,0,8,3.6,8,8v0.3     C410.1,335.6,406.5,339.2,402.1,339.2z" fill="#FFC42E" id="XMLID_947_"/><path d="M402.1,374.1h-273c-4.4,0-8-3.6-8-8v-0.3c0-4.4,3.6-8,8-8h273c4.4,0,8,3.6,8,8v0.3     C410.1,370.5,406.5,374.1,402.1,374.1z" fill="#FFC42E" id="XMLID_944_"/><path d="M402.1,409h-273c-4.4,0-8-3.6-8-8v-0.3c0-4.4,3.6-8,8-8h273c4.4,0,8,3.6,8,8v0.3     C410.1,405.5,406.5,409,402.1,409z" fill="#FFC42E" id="XMLID_941_"/><path d="M336.9,444H129.1c-4.4,0-8-3.6-8-8v-0.3c0-4.4,3.6-8,8-8h207.8c4.4,0,8,3.6,8,8v0.3     C344.9,440.4,341.3,444,336.9,444z" fill="#FFC42E" id="XMLID_938_"/></g></g><g id="XMLID_2319_"><path d="M138.4,125.8h-23.9v19.4h28.2v8.1h-38.4V92.2h38.1v8.2h-27.9v17.3h23.9V125.8z" fill="#FFFFFF" id="XMLID_2325_"/><path d="M164.7,130.1v23.2h-10.2V92.2h23.4c6.7,0,12,1.7,15.9,5.2s5.7,8.1,5.7,13.8    c0,5.7-1.9,10.3-5.7,13.8c-3.8,3.5-9.1,5.2-15.9,5.2H164.7z M164.7,122h13.2c3.8,0,6.6-1,8.5-3c1.9-2,2.9-4.6,2.9-7.7    s-1-5.7-2.9-7.8c-1.9-2.1-4.7-3.1-8.5-3.1h-13.2V122z" fill="#FFFFFF" id="XMLID_2322_"/><path d="M244.1,137.6c0-2.5-0.9-4.6-2.7-6.3c-1.8-1.6-5-3.1-9.6-4.4c-6.6-1.8-11.7-4.2-15.2-7.2    c-3.6-3-5.4-6.8-5.4-11.6c0-4.9,2-9,5.9-12.2c3.9-3.2,9-4.8,15.1-4.8c6.6,0,11.9,1.8,15.9,5.3c4,3.5,5.9,7.9,5.7,13.1l-0.1,0.3    h-9.8c0-3.2-1.1-5.8-3.2-7.7c-2.1-1.9-5-2.9-8.5-2.9c-3.4,0-6.1,0.8-8,2.4c-1.9,1.6-2.8,3.7-2.8,6.3c0,2.4,1,4.3,3.1,5.8    c2,1.5,5.4,3,10.2,4.3c6.4,1.8,11.3,4.2,14.7,7.3c3.4,3.1,5,7.1,5,11.9c0,5.1-2,9.1-6,12.1c-4,3-9.2,4.5-15.7,4.5    c-6.2,0-11.6-1.7-16.3-5c-4.6-3.3-6.9-8-6.7-14l0.1-0.3h9.8c0,3.7,1.3,6.4,3.8,8.3c2.5,1.9,5.6,2.8,9.3,2.8c3.6,0,6.4-0.8,8.4-2.3    C243.1,142.3,244.1,140.2,244.1,137.6z" fill="#FFFFFF" id="XMLID_2320_"/></g></g></svg>