<?xml version="1.0" ?><svg baseProfile="tiny" id="Layer_1" version="1.2" viewBox="0 0 512 512" xml:space="preserve" xmlns="http://www.w3.org/2000/svg" xmlns:xlink="http://www.w3.org/1999/xlink"><g id="XMLID_1_"><g id="XMLID_1420_"><path d="M432.8,506H98.4c-8.3,0-15-6.7-15-15V21c0-8.3,6.7-15,15-15h334.4c8.3,0,15,6.7,15,15    v470C447.9,499.3,441.1,506,432.8,506z" fill="#3DA7E3" id="XMLID_1451_"/><rect fill="#FFFFFF" height="469.3" id="XMLID_1450_" width="333.8" x="98.7" y="21.3"/><g id="XMLID_1443_"><polygon fill="#2A68A6" id="XMLID_1447_" points="352.4,180.6 64.1,180.6 64.1,64.9 352.4,64.9 288.6,122.8    "/><polygon fill="#114D7F" id="XMLID_1444_" points="64.1,180.6 83.4,194.9 83.4,180.6    "/></g><g id="XMLID_1421_"><path d="M402.2,234.4H129.1c-4.4,0-8-3.6-8-8V226c0-4.4,3.6-8,8-8h273.1c4.4,0,8,3.6,8,8v0.4     C410.1,230.8,406.6,234.4,402.2,234.4z" fill="#2A68A6" id="XMLID_1440_"/><path d="M402.2,269.3H129.1c-4.4,0-8-3.6-8-8V261c0-4.4,3.6-8,8-8h273.1c4.4,0,8,3.6,8,8v0.4     C410.1,265.8,406.6,269.3,402.2,269.3z" fill="#2A68A6" id="XMLID_1437_"/><path d="M402.2,304.2H129.1c-4.4,0-8-3.6-8-8v-0.4c0-4.4,3.6-8,8-8h273.1c4.4,0,8,3.6,8,8v0.4     C410.1,300.7,406.6,304.2,402.2,304.2z" fill="#2A68A6" id="XMLID_1434_"/><path d="M402.2,339.2H129.1c-4.4,0-8-3.6-8-8v-0.4c0-4.4,3.6-8,8-8h273.1c4.4,0,8,3.6,8,8v0.4     C410.1,335.6,406.6,339.2,402.2,339.2z" fill="#2A68A6" id="XMLID_1431_"/><path d="M402.2,374.1H129.1c-4.4,0-8-3.6-8-8v-0.4c0-4.4,3.6-8,8-8h273.1c4.4,0,8,3.6,8,8v0.4     C410.1,370.5,406.6,374.1,402.2,374.1z" fill="#2A68A6" id="XMLID_1428_"/><path d="M402.2,409H129.1c-4.4,0-8-3.6-8-8v-0.4c0-4.4,3.6-8,8-8h273.1c4.4,0,8,3.6,8,8v0.4     C410.1,405.5,406.6,409,402.2,409z" fill="#2A68A6" id="XMLID_1425_"/><path d="M337,444H129.1c-4.4,0-8-3.6-8-8v-0.4c0-4.4,3.6-8,8-8H337c4.4,0,8,3.6,8,8v0.4     C344.9,440.4,341.4,444,337,444z" fill="#2A68A6" id="XMLID_1422_"/></g></g><g id="XMLID_1794_"><path d="M148.4,125.9h-24.6v19.9h29v8.4h-39.5V91.3h39.2v8.4h-28.7v17.8h24.6V125.9z" fill="#FFFFFF" id="XMLID_1801_"/><path d="M186.4,114.5l13.3-23.2h12.4l-19.4,31.2l20.1,31.7h-12.6l-13.7-23.6l-13.7,23.6h-12.4    l19.8-31.7l-19.4-31.2h12.4L186.4,114.5z" fill="#FFFFFF" id="XMLID_1798_"/><path d="M258.9,125.9h-24.6v19.9h29v8.4h-39.5V91.3H263v8.4h-28.7v17.8h24.6V125.9z" fill="#FFFFFF" id="XMLID_1795_"/></g></g></svg>