<?xml version="1.0" ?><svg baseProfile="tiny" id="Layer_1" version="1.2" viewBox="0 0 512 512" xml:space="preserve" xmlns="http://www.w3.org/2000/svg" xmlns:xlink="http://www.w3.org/1999/xlink"><g id="XMLID_1708_"><g id="XMLID_226_"><path d="M432.8,506H98.4c-8.3,0-15-6.7-15-15V21c0-8.3,6.7-15,15-15h334.4c8.3,0,15,6.7,15,15v470    C447.9,499.3,441.1,506,432.8,506z" fill="#475563" id="XMLID_265_"/><rect fill="#FFFFFF" height="469.3" id="XMLID_264_" width="333.8" x="98.7" y="21.3"/><g id="XMLID_257_"><polygon fill="#24323D" id="XMLID_261_" points="352.4,180.6 64.1,180.6 64.1,64.9 352.4,64.9 288.6,122.8    "/><polygon fill="#151F26" id="XMLID_258_" points="64.1,180.6 83.4,194.9 83.4,180.6    "/></g><g id="XMLID_227_"><path d="M402.1,234.4h-273c-4.4,0-8-3.6-8-8v-0.3c0-4.4,3.6-8,8-8h273c4.4,0,8,3.6,8,8v0.3     C410.1,230.8,406.5,234.4,402.1,234.4z" fill="#24323D" id="XMLID_253_"/><path d="M402.1,269.3h-273c-4.4,0-8-3.6-8-8V261c0-4.4,3.6-8,8-8h273c4.4,0,8,3.6,8,8v0.3     C410.1,265.7,406.5,269.3,402.1,269.3z" fill="#24323D" id="XMLID_250_"/><path d="M402.1,304.2h-273c-4.4,0-8-3.6-8-8v-0.3c0-4.4,3.6-8,8-8h273c4.4,0,8,3.6,8,8v0.3     C410.1,300.7,406.5,304.2,402.1,304.2z" fill="#24323D" id="XMLID_247_"/><path d="M402.1,339.2h-273c-4.4,0-8-3.6-8-8v-0.3c0-4.4,3.6-8,8-8h273c4.4,0,8,3.6,8,8v0.3     C410.1,335.6,406.5,339.2,402.1,339.2z" fill="#24323D" id="XMLID_244_"/><path d="M402.1,374.1h-273c-4.4,0-8-3.6-8-8v-0.3c0-4.4,3.6-8,8-8h273c4.4,0,8,3.6,8,8v0.3     C410.1,370.5,406.5,374.1,402.1,374.1z" fill="#24323D" id="XMLID_239_"/><path d="M402.1,409h-273c-4.4,0-8-3.6-8-8v-0.3c0-4.4,3.6-8,8-8h273c4.4,0,8,3.6,8,8v0.3     C410.1,405.5,406.5,409,402.1,409z" fill="#24323D" id="XMLID_233_"/><path d="M336.9,444H129.1c-4.4,0-8-3.6-8-8v-0.3c0-4.4,3.6-8,8-8h207.8c4.4,0,8,3.6,8,8v0.3     C344.9,440.4,341.3,444,336.9,444z" fill="#24323D" id="XMLID_229_"/></g></g><g id="XMLID_3557_"><path d="M130.1,126.1h-18.3v19.3h-7.6v-45.3h29v6.1h-21.4V120h18.3V126.1z" fill="#FFFFFF" id="XMLID_3565_"/><path d="M149,139.4h21.2v6h-28.8v-45.3h7.6V139.4z" fill="#FFFFFF" id="XMLID_3563_"/><path d="M202.7,134.8h-16l-3.5,10.6h-7.8l15.8-45.3h7.2l15.6,45.3h-7.8L202.7,134.8z     M188.7,128.5h11.9l-5.8-17.8h-0.2L188.7,128.5z" fill="#FFFFFF" id="XMLID_3560_"/><path d="M254.2,130.6l0.1,0.2c0.1,4.6-1.4,8.2-4.4,11.1c-3,2.8-7.2,4.2-12.3,4.2    c-5.3,0-9.5-1.8-12.8-5.3c-3.3-3.6-4.9-8.1-4.9-13.6v-8.6c0-5.5,1.6-10.1,4.9-13.6c3.2-3.6,7.5-5.4,12.7-5.4    c5.3,0,9.5,1.4,12.6,4.1c3.1,2.7,4.5,6.4,4.5,11.2l-0.1,0.2h-7.3c0-3-0.8-5.3-2.5-6.9c-1.6-1.6-4-2.4-7.2-2.4    c-3.1,0-5.5,1.2-7.3,3.7c-1.8,2.4-2.7,5.5-2.7,9.2v8.7c0,3.8,0.9,6.8,2.7,9.3c1.8,2.4,4.3,3.7,7.5,3.7c3.1,0,5.4-0.8,7-2.4    c1.6-1.6,2.4-3.9,2.4-7H254.2z" fill="#FFFFFF" id="XMLID_3558_"/></g></g></svg>