<?xml version="1.0" ?><svg baseProfile="tiny" id="Layer_1" version="1.2" viewBox="0 0 512 512" xml:space="preserve" xmlns="http://www.w3.org/2000/svg" xmlns:xlink="http://www.w3.org/1999/xlink"><g id="XMLID_1718_"><g id="XMLID_554_"><path d="M432.8,506H98.4c-8.3,0-15-6.7-15-15V21c0-8.3,6.7-15,15-15h334.4c8.3,0,15,6.7,15,15v470    C447.9,499.3,441.1,506,432.8,506z" fill="#475563" id="XMLID_585_"/><rect fill="#FFFFFF" height="469.3" id="XMLID_584_" width="333.8" x="98.7" y="21.3"/><g id="XMLID_577_"><polygon fill="#24323D" id="XMLID_581_" points="352.4,180.6 64.1,180.6 64.1,64.9 352.4,64.9 288.6,122.8    "/><polygon fill="#151F26" id="XMLID_578_" points="64.1,180.6 83.4,194.9 83.4,180.6    "/></g><g id="XMLID_555_"><path d="M402.1,234.4h-273c-4.4,0-8-3.6-8-8v-0.3c0-4.4,3.6-8,8-8h273c4.4,0,8,3.6,8,8v0.3     C410.1,230.8,406.5,234.4,402.1,234.4z" fill="#24323D" id="XMLID_574_"/><path d="M402.1,269.3h-273c-4.4,0-8-3.6-8-8V261c0-4.4,3.6-8,8-8h273c4.4,0,8,3.6,8,8v0.3     C410.1,265.7,406.5,269.3,402.1,269.3z" fill="#24323D" id="XMLID_571_"/><path d="M402.1,304.2h-273c-4.4,0-8-3.6-8-8v-0.3c0-4.4,3.6-8,8-8h273c4.4,0,8,3.6,8,8v0.3     C410.1,300.7,406.5,304.2,402.1,304.2z" fill="#24323D" id="XMLID_568_"/><path d="M402.1,339.2h-273c-4.4,0-8-3.6-8-8v-0.3c0-4.4,3.6-8,8-8h273c4.4,0,8,3.6,8,8v0.3     C410.1,335.6,406.5,339.2,402.1,339.2z" fill="#24323D" id="XMLID_565_"/><path d="M402.1,374.1h-273c-4.4,0-8-3.6-8-8v-0.3c0-4.4,3.6-8,8-8h273c4.4,0,8,3.6,8,8v0.3     C410.1,370.5,406.5,374.1,402.1,374.1z" fill="#24323D" id="XMLID_562_"/><path d="M402.1,409h-273c-4.4,0-8-3.6-8-8v-0.3c0-4.4,3.6-8,8-8h273c4.4,0,8,3.6,8,8v0.3     C410.1,405.5,406.5,409,402.1,409z" fill="#24323D" id="XMLID_559_"/><path d="M336.9,444H129.1c-4.4,0-8-3.6-8-8v-0.3c0-4.4,3.6-8,8-8h207.8c4.4,0,8,3.6,8,8v0.3     C344.9,440.4,341.3,444,336.9,444z" fill="#24323D" id="XMLID_556_"/></g></g><g id="XMLID_3086_"><path d="M168.2,148.8c-2,2.8-5.1,5.2-9.4,7.4c-4.3,2.2-9.8,3.3-16.6,3.3    c-8.4,0-15.4-2.7-20.8-8.2c-5.4-5.4-8.2-12.5-8.2-21.1v-14.9c0-8.6,2.6-15.6,7.9-21.1c5.3-5.4,12-8.2,20.3-8.2    c8.3,0,14.8,2.1,19.4,6.3c4.6,4.2,6.9,9.6,6.8,16.4l-0.1,0.3h-11.3c0-4-1.2-7.2-3.7-9.7s-6.1-3.7-10.7-3.7    c-4.9,0-8.9,1.8-11.9,5.5c-3,3.7-4.5,8.4-4.5,14.1v15c0,5.7,1.6,10.5,4.7,14.2c3.2,3.7,7.3,5.6,12.3,5.6c3.8,0,6.8-0.4,9.1-1.3    c2.2-0.9,3.9-1.9,5-3.2v-14.7h-14.9v-8.9h26.8V148.8z" fill="#FFFFFF" id="XMLID_3091_"/><path d="M198.7,158.4h-11.9V87.1h11.9V158.4z" fill="#FFFFFF" id="XMLID_3089_"/><path d="M258.3,128h-28.7v30.4h-11.9V87.1h45.6v9.5h-33.7v21.8h28.7V128z" fill="#FFFFFF" id="XMLID_3087_"/></g></g></svg>