<?xml version="1.0" ?><svg baseProfile="tiny" id="Layer_1" version="1.2" viewBox="0 0 512 512" xml:space="preserve" xmlns="http://www.w3.org/2000/svg" xmlns:xlink="http://www.w3.org/1999/xlink"><g id="XMLID_1721_"><g id="XMLID_704_"><path d="M432.8,506H98.4c-8.3,0-15-6.7-15-15V21c0-8.3,6.7-15,15-15h334.4c8.3,0,15,6.7,15,15v470    C447.9,499.3,441.1,506,432.8,506z" fill="#475563" id="XMLID_735_"/><rect fill="#FFFFFF" height="469.3" id="XMLID_734_" width="333.8" x="98.7" y="21.3"/><g id="XMLID_727_"><polygon fill="#24323D" id="XMLID_731_" points="352.4,180.6 64.1,180.6 64.1,64.9 352.4,64.9 288.6,122.8    "/><polygon fill="#151F26" id="XMLID_728_" points="64.1,180.6 83.4,194.9 83.4,180.6    "/></g><g id="XMLID_705_"><path d="M402.1,234.4h-273c-4.4,0-8-3.6-8-8v-0.3c0-4.4,3.6-8,8-8h273c4.4,0,8,3.6,8,8v0.3     C410.1,230.8,406.5,234.4,402.1,234.4z" fill="#24323D" id="XMLID_724_"/><path d="M402.1,269.3h-273c-4.4,0-8-3.6-8-8V261c0-4.4,3.6-8,8-8h273c4.4,0,8,3.6,8,8v0.3     C410.1,265.7,406.5,269.3,402.1,269.3z" fill="#24323D" id="XMLID_721_"/><path d="M402.1,304.2h-273c-4.4,0-8-3.6-8-8v-0.3c0-4.4,3.6-8,8-8h273c4.4,0,8,3.6,8,8v0.3     C410.1,300.7,406.5,304.2,402.1,304.2z" fill="#24323D" id="XMLID_718_"/><path d="M402.1,339.2h-273c-4.4,0-8-3.6-8-8v-0.3c0-4.4,3.6-8,8-8h273c4.4,0,8,3.6,8,8v0.3     C410.1,335.6,406.5,339.2,402.1,339.2z" fill="#24323D" id="XMLID_715_"/><path d="M402.1,374.1h-273c-4.4,0-8-3.6-8-8v-0.3c0-4.4,3.6-8,8-8h273c4.4,0,8,3.6,8,8v0.3     C410.1,370.5,406.5,374.1,402.1,374.1z" fill="#24323D" id="XMLID_712_"/><path d="M402.1,409h-273c-4.4,0-8-3.6-8-8v-0.3c0-4.4,3.6-8,8-8h273c4.4,0,8,3.6,8,8v0.3     C410.1,405.5,406.5,409,402.1,409z" fill="#24323D" id="XMLID_709_"/><path d="M336.9,444H129.1c-4.4,0-8-3.6-8-8v-0.3c0-4.4,3.6-8,8-8h207.8c4.4,0,8,3.6,8,8v0.3     C344.9,440.4,341.3,444,336.9,444z" fill="#24323D" id="XMLID_706_"/></g></g><g id="XMLID_2905_"><path d="M152.5,151.7h-9.7V127H117v24.7h-9.7V93.8h9.7v25.5h25.9V93.8h9.7V151.7z" fill="#FFFFFF" id="XMLID_2911_"/><path d="M176.8,144H204v7.7h-36.8V93.8h9.7V144z" fill="#FFFFFF" id="XMLID_2909_"/><path d="M224.3,129.8v22h-9.7V93.8h22.2c6.4,0,11.4,1.7,15,5c3.6,3.3,5.4,7.6,5.4,13    c0,5.4-1.8,9.8-5.4,13.1c-3.6,3.3-8.6,4.9-15,4.9H224.3z M224.3,122h12.5c3.6,0,6.3-1,8.1-2.9c1.8-1.9,2.7-4.3,2.7-7.3    c0-2.9-0.9-5.4-2.7-7.4c-1.8-2-4.5-2.9-8.1-2.9h-12.5V122z" fill="#FFFFFF" id="XMLID_2906_"/></g></g></svg>