<?xml version="1.0" ?><svg baseProfile="tiny" id="Layer_1" version="1.2" viewBox="0 0 512 512" xml:space="preserve" xmlns="http://www.w3.org/2000/svg" xmlns:xlink="http://www.w3.org/1999/xlink"><g id="XMLID_19_"><g id="XMLID_1386_"><path d="M432.8,506H98.4c-8.3,0-15-6.7-15-15V21c0-8.3,6.7-15,15-15h334.4c8.3,0,15,6.7,15,15    v470C447.9,499.3,441.1,506,432.8,506z" fill="#FCE379" id="XMLID_1417_"/><rect fill="#FFFFFF" height="469.3" id="XMLID_1416_" width="333.8" x="98.7" y="21.3"/><g id="XMLID_1409_"><polygon fill="#FFC42E" id="XMLID_1413_" points="352.4,180.6 64.1,180.6 64.1,64.9 352.4,64.9 288.6,122.8    "/><polygon fill="#FAAA20" id="XMLID_1410_" points="64.1,180.6 83.4,194.9 83.4,180.6    "/></g><g id="XMLID_1387_"><path d="M402.1,234.4h-273c-4.4,0-8-3.6-8-8v-0.3c0-4.4,3.6-8,8-8h273c4.4,0,8,3.6,8,8v0.3     C410.1,230.8,406.5,234.4,402.1,234.4z" fill="#FFC42E" id="XMLID_1406_"/><path d="M402.1,269.3h-273c-4.4,0-8-3.6-8-8V261c0-4.4,3.6-8,8-8h273c4.4,0,8,3.6,8,8v0.3     C410.1,265.7,406.5,269.3,402.1,269.3z" fill="#FFC42E" id="XMLID_1403_"/><path d="M402.1,304.2h-273c-4.4,0-8-3.6-8-8v-0.3c0-4.4,3.6-8,8-8h273c4.4,0,8,3.6,8,8v0.3     C410.1,300.7,406.5,304.2,402.1,304.2z" fill="#FFC42E" id="XMLID_1400_"/><path d="M402.1,339.2h-273c-4.4,0-8-3.6-8-8v-0.3c0-4.4,3.6-8,8-8h273c4.4,0,8,3.6,8,8v0.3     C410.1,335.6,406.5,339.2,402.1,339.2z" fill="#FFC42E" id="XMLID_1397_"/><path d="M402.1,374.1h-273c-4.4,0-8-3.6-8-8v-0.3c0-4.4,3.6-8,8-8h273c4.4,0,8,3.6,8,8v0.3     C410.1,370.5,406.5,374.1,402.1,374.1z" fill="#FFC42E" id="XMLID_1394_"/><path d="M402.1,409h-273c-4.4,0-8-3.6-8-8v-0.3c0-4.4,3.6-8,8-8h273c4.4,0,8,3.6,8,8v0.3     C410.1,405.5,406.5,409,402.1,409z" fill="#FFC42E" id="XMLID_1391_"/><path d="M336.9,444H129.1c-4.4,0-8-3.6-8-8v-0.3c0-4.4,3.6-8,8-8h207.8c4.4,0,8,3.6,8,8v0.3     C344.9,440.4,341.3,444,336.9,444z" fill="#FFC42E" id="XMLID_1388_"/></g></g><g id="XMLID_1780_"><path d="M141.3,142.6h-6.6v-16.9h-17.7v16.9h-6.6v-39.7h6.6v17.4h17.7v-17.4h6.6V142.6z" fill="#FFFFFF" id="XMLID_1791_"/><path d="M178.2,108.2h-12.3v34.4h-6.6v-34.4h-12.1v-5.3h30.9V108.2z" fill="#FFFFFF" id="XMLID_1788_"/><path d="M205,133.4h0.2l11.5-30.5h8.4v39.7h-6.6v-28.5l-0.2,0l-10.9,28.5h-4.5l-11.1-29.1    l-0.2,0.1v29h-6.6v-39.7h8.7L205,133.4z" fill="#FFFFFF" id="XMLID_1785_"/><path d="M241.7,137.3h18.6v5.3h-25.2v-39.7h6.6V137.3z" fill="#FFFFFF" id="XMLID_1782_"/></g></g></svg>