<?xml version="1.0" ?><svg baseProfile="tiny" id="Layer_1" version="1.2" viewBox="0 0 512 512" xml:space="preserve" xmlns="http://www.w3.org/2000/svg" xmlns:xlink="http://www.w3.org/1999/xlink"><g id="XMLID_1730_"><g id="XMLID_1188_"><path d="M432.8,506H98.4c-8.3,0-15-6.7-15-15V21c0-8.3,6.7-15,15-15h334.4c8.3,0,15,6.7,15,15    v470C447.9,499.3,441.1,506,432.8,506z" fill="#16896B" id="XMLID_1201_"/><rect fill="#FFFFFF" height="469.3" id="XMLID_1200_" width="333.8" x="98.7" y="21.3"/><g id="XMLID_1197_"><polygon fill="#2EBC9A" id="XMLID_1199_" points="352.4,180.6 64.1,180.6 64.1,64.9 352.4,64.9 288.6,122.8    "/><polygon fill="#10644C" id="XMLID_1198_" points="64.1,180.6 83.4,194.9 83.4,180.6    "/></g><g id="XMLID_1189_"><path d="M402.1,234.4h-273c-4.4,0-8-3.6-8-8v-0.3c0-4.4,3.6-8,8-8h273c4.4,0,8,3.6,8,8v0.3     C410.1,230.8,406.5,234.4,402.1,234.4z" fill="#2EBC9A" id="XMLID_1196_"/><path d="M402.1,269.3h-273c-4.4,0-8-3.6-8-8V261c0-4.4,3.6-8,8-8h273c4.4,0,8,3.6,8,8v0.3     C410.1,265.7,406.5,269.3,402.1,269.3z" fill="#2EBC9A" id="XMLID_1195_"/><path d="M402.1,304.2h-273c-4.4,0-8-3.6-8-8v-0.3c0-4.4,3.6-8,8-8h273c4.4,0,8,3.6,8,8v0.3     C410.1,300.7,406.5,304.2,402.1,304.2z" fill="#2EBC9A" id="XMLID_1194_"/><path d="M402.1,339.2h-273c-4.4,0-8-3.6-8-8v-0.3c0-4.4,3.6-8,8-8h273c4.4,0,8,3.6,8,8v0.3     C410.1,335.6,406.5,339.2,402.1,339.2z" fill="#2EBC9A" id="XMLID_1193_"/><path d="M402.1,374.1h-273c-4.4,0-8-3.6-8-8v-0.3c0-4.4,3.6-8,8-8h273c4.4,0,8,3.6,8,8v0.3     C410.1,370.5,406.5,374.1,402.1,374.1z" fill="#2EBC9A" id="XMLID_1192_"/><path d="M402.1,409h-273c-4.4,0-8-3.6-8-8v-0.3c0-4.4,3.6-8,8-8h273c4.4,0,8,3.6,8,8v0.3     C410.1,405.5,406.5,409,402.1,409z" fill="#2EBC9A" id="XMLID_1191_"/><path d="M336.9,444H129.1c-4.4,0-8-3.6-8-8v-0.3c0-4.4,3.6-8,8-8h207.8c4.4,0,8,3.6,8,8v0.3     C344.9,440.4,341.3,444,336.9,444z" fill="#2EBC9A" id="XMLID_1190_"/></g></g><g id="XMLID_2231_"><path d="M133.4,160.7h-12.7V84.8h12.7V160.7z" fill="#FFFFFF" id="XMLID_2236_"/><path d="M212.9,160.7h-12.7L166.6,106l-0.3,0.1v54.6h-12.7V84.8h12.7l33.6,54.7l0.3-0.1V84.8    h12.7V160.7z" fill="#FFFFFF" id="XMLID_2234_"/><path d="M245.8,160.7h-12.7V84.8h12.7V160.7z" fill="#FFFFFF" id="XMLID_2232_"/></g></g></svg>