<?xml version="1.0" ?><svg baseProfile="tiny" id="Layer_1" version="1.2" viewBox="0 0 512 512" xml:space="preserve" xmlns="http://www.w3.org/2000/svg" xmlns:xlink="http://www.w3.org/1999/xlink"><g id="XMLID_20_"><g id="XMLID_1352_"><path d="M432.8,506H98.4c-8.3,0-15-6.7-15-15V21c0-8.3,6.7-15,15-15h334.4c8.3,0,15,6.7,15,15    v470C447.9,499.3,441.1,506,432.8,506z" fill="#F45671" id="XMLID_1383_"/><rect fill="#FFFFFF" height="469.3" id="XMLID_1382_" width="333.8" x="98.7" y="21.3"/><g id="XMLID_1375_"><polygon fill="#E03258" id="XMLID_1379_" points="352.4,180.6 64.1,180.6 64.1,64.9 352.4,64.9 288.6,122.8    "/><polygon fill="#BC2049" id="XMLID_1376_" points="64.1,180.6 83.4,194.9 83.4,180.6    "/></g><g id="XMLID_1353_"><path d="M402.1,234.4h-273c-4.4,0-8-3.6-8-8v-0.3c0-4.4,3.6-8,8-8h273c4.4,0,8,3.6,8,8v0.3     C410.1,230.8,406.5,234.4,402.1,234.4z" fill="#E03258" id="XMLID_1372_"/><path d="M402.1,269.3h-273c-4.4,0-8-3.6-8-8V261c0-4.4,3.6-8,8-8h273c4.4,0,8,3.6,8,8v0.3     C410.1,265.7,406.5,269.3,402.1,269.3z" fill="#E03258" id="XMLID_1369_"/><path d="M402.1,304.2h-273c-4.4,0-8-3.6-8-8v-0.3c0-4.4,3.6-8,8-8h273c4.4,0,8,3.6,8,8v0.3     C410.1,300.7,406.5,304.2,402.1,304.2z" fill="#E03258" id="XMLID_1366_"/><path d="M402.1,339.2h-273c-4.4,0-8-3.6-8-8v-0.3c0-4.4,3.6-8,8-8h273c4.4,0,8,3.6,8,8v0.3     C410.1,335.6,406.5,339.2,402.1,339.2z" fill="#E03258" id="XMLID_1363_"/><path d="M402.1,374.1h-273c-4.4,0-8-3.6-8-8v-0.3c0-4.4,3.6-8,8-8h273c4.4,0,8,3.6,8,8v0.3     C410.1,370.5,406.5,374.1,402.1,374.1z" fill="#E03258" id="XMLID_1360_"/><path d="M402.1,409h-273c-4.4,0-8-3.6-8-8v-0.3c0-4.4,3.6-8,8-8h273c4.4,0,8,3.6,8,8v0.3     C410.1,405.5,406.5,409,402.1,409z" fill="#E03258" id="XMLID_1357_"/><path d="M336.9,444H129.1c-4.4,0-8-3.6-8-8v-0.3c0-4.4,3.6-8,8-8h207.8c4.4,0,8,3.6,8,8v0.3     C344.9,440.4,341.3,444,336.9,444z" fill="#E03258" id="XMLID_1354_"/></g></g><g id="XMLID_1772_"><path d="M130.5,153.3h-10.2V92.2h10.2V153.3z" fill="#FFFFFF" id="XMLID_1778_"/><path d="M179,137.6c0-2.5-0.9-4.6-2.7-6.3c-1.8-1.6-5-3.1-9.6-4.4c-6.6-1.8-11.7-4.2-15.2-7.2    c-3.6-3-5.4-6.8-5.4-11.6c0-4.9,2-9,5.9-12.2c3.9-3.2,9-4.8,15.1-4.8c6.6,0,11.9,1.8,15.9,5.3c4,3.5,5.9,7.9,5.7,13.1l-0.1,0.3    h-9.8c0-3.2-1.1-5.8-3.2-7.7c-2.1-1.9-5-2.9-8.5-2.9c-3.4,0-6.1,0.8-8,2.4c-1.9,1.6-2.8,3.7-2.8,6.3c0,2.4,1,4.3,3.1,5.8    c2,1.5,5.4,3,10.2,4.3c6.4,1.8,11.3,4.2,14.7,7.3c3.4,3.1,5,7.1,5,11.9c0,5.1-2,9.1-6,12.1c-4,3-9.2,4.5-15.7,4.5    c-6.2,0-11.6-1.7-16.3-5c-4.6-3.3-6.9-8-6.7-14l0.1-0.3h9.8c0,3.7,1.3,6.4,3.8,8.3c2.5,1.9,5.6,2.8,9.3,2.8c3.6,0,6.4-0.8,8.4-2.3    C178,142.3,179,140.2,179,137.6z" fill="#FFFFFF" id="XMLID_1776_"/><path d="M250.3,128.3c0,7.5-2.3,13.7-7,18.6c-4.7,4.9-10.8,7.4-18.3,7.4    c-7.3,0-13.3-2.5-17.9-7.4c-4.6-4.9-6.9-11.1-6.9-18.6v-11c0-7.4,2.3-13.6,6.9-18.6c4.6-4.9,10.5-7.4,17.9-7.4    c7.5,0,13.6,2.5,18.3,7.4c4.7,4.9,7.1,11.1,7.1,18.6V128.3z M240.1,117.2c0-5.1-1.4-9.3-4.1-12.6c-2.7-3.3-6.4-4.9-11-4.9    c-4.5,0-8.1,1.6-10.6,4.9c-2.6,3.3-3.9,7.5-3.9,12.6v11.1c0,5.2,1.3,9.4,3.9,12.7c2.6,3.3,6.1,4.9,10.6,4.9    c4.7,0,8.4-1.6,11.1-4.9c2.7-3.3,4.1-7.5,4.1-12.7V117.2z" fill="#FFFFFF" id="XMLID_1773_"/></g></g></svg>