<?xml version="1.0" ?><svg baseProfile="tiny" id="Layer_1" version="1.2" viewBox="0 0 512 512" xml:space="preserve" xmlns="http://www.w3.org/2000/svg" xmlns:xlink="http://www.w3.org/1999/xlink"><g id="XMLID_1702_"><g id="XMLID_184_"><path d="M432.8,506H98.4c-8.3,0-15-6.7-15-15V21c0-8.3,6.7-15,15-15h334.4c8.3,0,15,6.7,15,15v470    C447.9,499.3,441.1,506,432.8,506z" fill="#3DA7E3" id="XMLID_242_"/><rect fill="#FFFFFF" height="469.3" id="XMLID_241_" width="333.8" x="98.7" y="21.3"/><g id="XMLID_234_"><polygon fill="#2A68A6" id="XMLID_238_" points="352.4,180.6 64.1,180.6 64.1,64.9 352.4,64.9 288.6,122.8    "/><polygon fill="#114D7F" id="XMLID_235_" points="64.1,180.6 83.4,194.9 83.4,180.6    "/></g><g id="XMLID_185_"><path d="M402.2,234.4H129.1c-4.4,0-8-3.6-8-8V226c0-4.4,3.6-8,8-8h273.1c4.4,0,8,3.6,8,8v0.4     C410.1,230.8,406.6,234.4,402.2,234.4z" fill="#2A68A6" id="XMLID_231_"/><path d="M402.2,269.3H129.1c-4.4,0-8-3.6-8-8V261c0-4.4,3.6-8,8-8h273.1c4.4,0,8,3.6,8,8v0.4     C410.1,265.8,406.6,269.3,402.2,269.3z" fill="#2A68A6" id="XMLID_228_"/><path d="M402.2,304.2H129.1c-4.4,0-8-3.6-8-8v-0.4c0-4.4,3.6-8,8-8h273.1c4.4,0,8,3.6,8,8v0.4     C410.1,300.7,406.6,304.2,402.2,304.2z" fill="#2A68A6" id="XMLID_225_"/><path d="M402.2,339.2H129.1c-4.4,0-8-3.6-8-8v-0.4c0-4.4,3.6-8,8-8h273.1c4.4,0,8,3.6,8,8v0.4     C410.1,335.6,406.6,339.2,402.2,339.2z" fill="#2A68A6" id="XMLID_222_"/><path d="M402.2,374.1H129.1c-4.4,0-8-3.6-8-8v-0.4c0-4.4,3.6-8,8-8h273.1c4.4,0,8,3.6,8,8v0.4     C410.1,370.5,406.6,374.1,402.2,374.1z" fill="#2A68A6" id="XMLID_219_"/><path d="M402.2,409H129.1c-4.4,0-8-3.6-8-8v-0.4c0-4.4,3.6-8,8-8h273.1c4.4,0,8,3.6,8,8v0.4     C410.1,405.5,406.6,409,402.2,409z" fill="#2A68A6" id="XMLID_196_"/><path d="M337,444H129.1c-4.4,0-8-3.6-8-8v-0.4c0-4.4,3.6-8,8-8H337c4.4,0,8,3.6,8,8v0.4     C344.9,440.4,341.4,444,337,444z" fill="#2A68A6" id="XMLID_189_"/></g></g><g id="XMLID_3756_"><path d="M126.8,100.4h7.3v30.9c0,4.2-1.3,7.6-3.9,10.1c-2.6,2.5-5.9,3.8-10,3.8    c-4.3,0-7.8-1.1-10.3-3.3c-2.5-2.2-3.8-5.5-3.7-9.7l0.1-0.2h7.1c0,2.5,0.6,4.4,1.8,5.6c1.2,1.2,2.9,1.8,5,1.8    c1.9,0,3.5-0.7,4.7-2.2c1.2-1.5,1.8-3.4,1.8-5.8V100.4z" fill="#FFFFFF" id="XMLID_3765_"/><path d="M167.5,134.2h-15.6l-3.4,10.3h-7.6l15.4-44.1h7l15.2,44.1h-7.6L167.5,134.2z M153.9,128    h11.6l-5.7-17.4h-0.2L153.9,128z" fill="#FFFFFF" id="XMLID_3762_"/><path d="M197.6,132.5l0.8,3.2h0.2l0.8-3.1l10.5-32.2h7.8L202,144.5h-7l-15.7-44.1h7.8    L197.6,132.5z" fill="#FFFFFF" id="XMLID_3760_"/><path d="M245.3,134.2h-15.6l-3.4,10.3h-7.6l15.4-44.1h7l15.2,44.1h-7.6L245.3,134.2z M231.7,128    h11.6l-5.7-17.4h-0.2L231.7,128z" fill="#FFFFFF" id="XMLID_3757_"/></g></g></svg>