<?xml version="1.0" ?><svg baseProfile="tiny" id="Layer_1" version="1.2" viewBox="0 0 512 512" xml:space="preserve" xmlns="http://www.w3.org/2000/svg" xmlns:xlink="http://www.w3.org/1999/xlink"><g id="XMLID_1707_"><g id="XMLID_176_"><path d="M432.8,506H98.4c-8.3,0-15-6.7-15-15V21c0-8.3,6.7-15,15-15h334.4c8.3,0,15,6.7,15,15v470    C447.9,499.3,441.1,506,432.8,506z" fill="#3DA7E3" id="XMLID_216_"/><rect fill="#FFFFFF" height="469.3" id="XMLID_215_" width="333.8" x="98.7" y="21.3"/><g id="XMLID_208_"><polygon fill="#2A68A6" id="XMLID_212_" points="352.4,180.6 64.1,180.6 64.1,64.9 352.4,64.9 288.6,122.8    "/><polygon fill="#114D7F" id="XMLID_209_" points="64.1,180.6 83.4,194.9 83.4,180.6    "/></g><g id="XMLID_177_"><path d="M402.2,234.4H129.1c-4.4,0-8-3.6-8-8V226c0-4.4,3.6-8,8-8h273.1c4.4,0,8,3.6,8,8v0.4     C410.1,230.8,406.6,234.4,402.2,234.4z" fill="#2A68A6" id="XMLID_205_"/><path d="M402.2,269.3H129.1c-4.4,0-8-3.6-8-8V261c0-4.4,3.6-8,8-8h273.1c4.4,0,8,3.6,8,8v0.4     C410.1,265.8,406.6,269.3,402.2,269.3z" fill="#2A68A6" id="XMLID_202_"/><path d="M402.2,304.2H129.1c-4.4,0-8-3.6-8-8v-0.4c0-4.4,3.6-8,8-8h273.1c4.4,0,8,3.6,8,8v0.4     C410.1,300.7,406.6,304.2,402.2,304.2z" fill="#2A68A6" id="XMLID_199_"/><path d="M402.2,339.2H129.1c-4.4,0-8-3.6-8-8v-0.4c0-4.4,3.6-8,8-8h273.1c4.4,0,8,3.6,8,8v0.4     C410.1,335.6,406.6,339.2,402.2,339.2z" fill="#2A68A6" id="XMLID_192_"/><path d="M402.2,374.1H129.1c-4.4,0-8-3.6-8-8v-0.4c0-4.4,3.6-8,8-8h273.1c4.4,0,8,3.6,8,8v0.4     C410.1,370.5,406.6,374.1,402.2,374.1z" fill="#2A68A6" id="XMLID_188_"/><path d="M402.2,409H129.1c-4.4,0-8-3.6-8-8v-0.4c0-4.4,3.6-8,8-8h273.1c4.4,0,8,3.6,8,8v0.4     C410.1,405.5,406.6,409,402.2,409z" fill="#2A68A6" id="XMLID_183_"/><path d="M337,444H129.1c-4.4,0-8-3.6-8-8v-0.4c0-4.4,3.6-8,8-8H337c4.4,0,8,3.6,8,8v0.4     C344.9,440.4,341.4,444,337,444z" fill="#2A68A6" id="XMLID_178_"/></g></g><g id="XMLID_3041_"><path d="M133.6,93.5h9.7v41c0,5.6-1.7,10.1-5.1,13.4c-3.4,3.3-7.8,5-13.3,5    c-5.8,0-10.3-1.5-13.7-4.4c-3.4-2.9-5-7.3-4.9-12.9l0.1-0.2h9.5c0,3.3,0.8,5.8,2.4,7.4c1.6,1.6,3.8,2.4,6.7,2.4    c2.5,0,4.6-1,6.3-2.9c1.6-1.9,2.4-4.5,2.4-7.7V93.5z" fill="#FFFFFF" id="XMLID_3047_"/><path d="M167.8,129.8V152H158V93.5h22.4c6.5,0,11.5,1.7,15.2,5c3.7,3.3,5.5,7.7,5.5,13.2    c0,5.5-1.8,9.9-5.5,13.2c-3.7,3.3-8.7,5-15.2,5H167.8z M167.8,122h12.7c3.6,0,6.3-1,8.2-2.9c1.8-1.9,2.7-4.4,2.7-7.4    s-0.9-5.5-2.7-7.4c-1.8-2-4.5-3-8.2-3h-12.7V122z" fill="#FFFFFF" id="XMLID_3044_"/><path d="M256.3,144.1c-1.6,2.3-4.2,4.3-7.7,6.1c-3.5,1.8-8.1,2.7-13.7,2.7    c-6.9,0-12.6-2.2-17.1-6.7c-4.5-4.5-6.7-10.2-6.7-17.3v-12.2c0-7.1,2.2-12.8,6.5-17.3c4.3-4.5,9.9-6.7,16.6-6.7    c6.8,0,12.1,1.7,15.9,5.1c3.8,3.4,5.7,7.9,5.5,13.4l-0.1,0.2h-9.3c0-3.3-1-6-3.1-8c-2.1-2-5-3-8.8-3c-4,0-7.3,1.5-9.8,4.5    c-2.5,3-3.7,6.9-3.7,11.5v12.3c0,4.7,1.3,8.6,3.9,11.6c2.6,3,6,4.6,10.1,4.6c3.1,0,5.6-0.4,7.4-1.1c1.8-0.7,3.2-1.6,4.1-2.6v-12.1    h-12.3V122h22V144.1z" fill="#FFFFFF" id="XMLID_3042_"/></g></g></svg>