<?xml version="1.0" ?><svg baseProfile="tiny" id="Layer_1" version="1.2" viewBox="0 0 512 512" xml:space="preserve" xmlns="http://www.w3.org/2000/svg" xmlns:xlink="http://www.w3.org/1999/xlink"><g id="XMLID_1728_"><g id="XMLID_854_"><path d="M432.8,506H98.4c-8.3,0-15-6.7-15-15V21c0-8.3,6.7-15,15-15h334.4c8.3,0,15,6.7,15,15v470    C447.9,499.3,441.1,506,432.8,506z" fill="#475563" id="XMLID_885_"/><rect fill="#FFFFFF" height="469.3" id="XMLID_884_" width="333.8" x="98.7" y="21.3"/><g id="XMLID_877_"><polygon fill="#24323D" id="XMLID_881_" points="352.4,180.6 64.1,180.6 64.1,64.9 352.4,64.9 288.6,122.8    "/><polygon fill="#151F26" id="XMLID_878_" points="64.1,180.6 83.4,194.9 83.4,180.6    "/></g><g id="XMLID_855_"><path d="M402.1,234.4h-273c-4.4,0-8-3.6-8-8v-0.3c0-4.4,3.6-8,8-8h273c4.4,0,8,3.6,8,8v0.3     C410.1,230.8,406.5,234.4,402.1,234.4z" fill="#24323D" id="XMLID_874_"/><path d="M402.1,269.3h-273c-4.4,0-8-3.6-8-8V261c0-4.4,3.6-8,8-8h273c4.4,0,8,3.6,8,8v0.3     C410.1,265.7,406.5,269.3,402.1,269.3z" fill="#24323D" id="XMLID_871_"/><path d="M402.1,304.2h-273c-4.4,0-8-3.6-8-8v-0.3c0-4.4,3.6-8,8-8h273c4.4,0,8,3.6,8,8v0.3     C410.1,300.7,406.5,304.2,402.1,304.2z" fill="#24323D" id="XMLID_868_"/><path d="M402.1,339.2h-273c-4.4,0-8-3.6-8-8v-0.3c0-4.4,3.6-8,8-8h273c4.4,0,8,3.6,8,8v0.3     C410.1,335.6,406.5,339.2,402.1,339.2z" fill="#24323D" id="XMLID_865_"/><path d="M402.1,374.1h-273c-4.4,0-8-3.6-8-8v-0.3c0-4.4,3.6-8,8-8h273c4.4,0,8,3.6,8,8v0.3     C410.1,370.5,406.5,374.1,402.1,374.1z" fill="#24323D" id="XMLID_862_"/><path d="M402.1,409h-273c-4.4,0-8-3.6-8-8v-0.3c0-4.4,3.6-8,8-8h273c4.4,0,8,3.6,8,8v0.3     C410.1,405.5,406.5,409,402.1,409z" fill="#24323D" id="XMLID_859_"/><path d="M336.9,444H129.1c-4.4,0-8-3.6-8-8v-0.3c0-4.4,3.6-8,8-8h207.8c4.4,0,8,3.6,8,8v0.3     C344.9,440.4,341.3,444,336.9,444z" fill="#24323D" id="XMLID_856_"/></g></g><g id="XMLID_2666_"><path d="M156.4,87.3h11.8v49.6c0,6.8-2.1,12.2-6.2,16.3c-4.1,4-9.5,6-16.1,6    c-7,0-12.5-1.8-16.6-5.4c-4.1-3.6-6.1-8.8-5.9-15.6l0.1-0.3h11.4c0,4,1,7,2.9,8.9c1.9,1.9,4.6,2.9,8.1,2.9c3.1,0,5.6-1.2,7.6-3.5    c2-2.3,2.9-5.5,2.9-9.3V87.3z" fill="#FFFFFF" id="XMLID_2669_"/><path d="M223.3,140c0-3-1-5.4-3.1-7.3c-2.1-1.9-5.8-3.6-11.1-5.1c-7.6-2.1-13.5-4.9-17.6-8.3    c-4.1-3.4-6.2-7.9-6.2-13.4c0-5.7,2.3-10.4,6.8-14.1c4.5-3.7,10.4-5.6,17.5-5.6c7.7,0,13.8,2.1,18.4,6.2c4.6,4.1,6.8,9.2,6.6,15.2    l-0.1,0.3h-11.4c0-3.7-1.2-6.7-3.7-8.9c-2.5-2.2-5.8-3.3-9.9-3.3c-4,0-7.1,0.9-9.2,2.8c-2.2,1.9-3.2,4.3-3.2,7.3    c0,2.7,1.2,5,3.6,6.7c2.4,1.8,6.3,3.4,11.8,5c7.4,2.1,13.1,4.9,17,8.5c3.9,3.6,5.8,8.2,5.8,13.8c0,5.9-2.3,10.6-6.9,14.1    c-4.6,3.5-10.7,5.3-18.2,5.3c-7.2,0-13.5-1.9-18.8-5.7c-5.4-3.8-8-9.2-7.8-16.2l0.1-0.3H195c0,4.3,1.5,7.5,4.4,9.6    c2.9,2.2,6.5,3.2,10.7,3.2c4.2,0,7.4-0.9,9.8-2.7C222.2,145.4,223.3,143,223.3,140z" fill="#FFFFFF" id="XMLID_2667_"/></g></g></svg>