<?xml version="1.0" ?><svg baseProfile="tiny" id="Layer_1" version="1.2" viewBox="0 0 512 512" xml:space="preserve" xmlns="http://www.w3.org/2000/svg" xmlns:xlink="http://www.w3.org/1999/xlink"><g id="XMLID_1731_"><g id="XMLID_1154_"><path d="M432.8,506H98.4c-8.3,0-15-6.7-15-15V21c0-8.3,6.7-15,15-15h334.4c8.3,0,15,6.7,15,15    v470C447.9,499.3,441.1,506,432.8,506z" fill="#475563" id="XMLID_1185_"/><rect fill="#FFFFFF" height="469.3" id="XMLID_1184_" width="333.8" x="98.7" y="21.3"/><g id="XMLID_1177_"><polygon fill="#24323D" id="XMLID_1181_" points="352.4,180.6 64.1,180.6 64.1,64.9 352.4,64.9 288.6,122.8    "/><polygon fill="#151F26" id="XMLID_1178_" points="64.1,180.6 83.4,194.9 83.4,180.6    "/></g><g id="XMLID_1155_"><path d="M402.1,234.4h-273c-4.4,0-8-3.6-8-8v-0.3c0-4.4,3.6-8,8-8h273c4.4,0,8,3.6,8,8v0.3     C410.1,230.8,406.5,234.4,402.1,234.4z" fill="#24323D" id="XMLID_1174_"/><path d="M402.1,269.3h-273c-4.4,0-8-3.6-8-8V261c0-4.4,3.6-8,8-8h273c4.4,0,8,3.6,8,8v0.3     C410.1,265.7,406.5,269.3,402.1,269.3z" fill="#24323D" id="XMLID_1171_"/><path d="M402.1,304.2h-273c-4.4,0-8-3.6-8-8v-0.3c0-4.4,3.6-8,8-8h273c4.4,0,8,3.6,8,8v0.3     C410.1,300.7,406.5,304.2,402.1,304.2z" fill="#24323D" id="XMLID_1168_"/><path d="M402.1,339.2h-273c-4.4,0-8-3.6-8-8v-0.3c0-4.4,3.6-8,8-8h273c4.4,0,8,3.6,8,8v0.3     C410.1,335.6,406.5,339.2,402.1,339.2z" fill="#24323D" id="XMLID_1165_"/><path d="M402.1,374.1h-273c-4.4,0-8-3.6-8-8v-0.3c0-4.4,3.6-8,8-8h273c4.4,0,8,3.6,8,8v0.3     C410.1,370.5,406.5,374.1,402.1,374.1z" fill="#24323D" id="XMLID_1162_"/><path d="M402.1,409h-273c-4.4,0-8-3.6-8-8v-0.3c0-4.4,3.6-8,8-8h273c4.4,0,8,3.6,8,8v0.3     C410.1,405.5,406.5,409,402.1,409z" fill="#24323D" id="XMLID_1159_"/><path d="M336.9,444H129.1c-4.4,0-8-3.6-8-8v-0.3c0-4.4,3.6-8,8-8h207.8c4.4,0,8,3.6,8,8v0.3     C344.9,440.4,341.3,444,336.9,444z" fill="#24323D" id="XMLID_1156_"/></g></g><g id="XMLID_2187_"><path d="M133.8,136.3h0.2l14.6-38.7h10.7v50.3h-8.4v-36.2l-0.2,0l-13.9,36.2H131L116.9,111    l-0.2,0.1v36.8h-8.4V97.6h11L133.8,136.3z" fill="#FFFFFF" id="XMLID_2192_"/><path d="M184.5,126.1h-4.1v21.8H172V97.6h8.4v21.3h3.3L200,97.6h9.9l0.1,0.2l-18.9,23.6    l20.4,26.5h-10.6L184.5,126.1z" fill="#FFFFFF" id="XMLID_2190_"/><path d="M235.3,134.3l0.9,3.7h0.2l0.9-3.6l12-36.7h9l-18,50.3h-8l-17.9-50.3h9L235.3,134.3z" fill="#FFFFFF" id="XMLID_2188_"/></g></g></svg>