<?xml version="1.0" ?><svg baseProfile="tiny" id="Layer_1" version="1.2" viewBox="0 0 512 512" xml:space="preserve" xmlns="http://www.w3.org/2000/svg" xmlns:xlink="http://www.w3.org/1999/xlink"><g id="XMLID_1739_"><g id="XMLID_1338_"><path d="M432.8,506H98.4c-8.3,0-15-6.7-15-15V21c0-8.3,6.7-15,15-15h334.4c8.3,0,15,6.7,15,15    v470C447.9,499.3,441.1,506,432.8,506z" fill="#16896B" id="XMLID_1351_"/><rect fill="#FFFFFF" height="469.3" id="XMLID_1350_" width="333.8" x="98.7" y="21.3"/><g id="XMLID_1347_"><polygon fill="#2EBC9A" id="XMLID_1349_" points="352.4,180.6 64.1,180.6 64.1,64.9 352.4,64.9 288.6,122.8    "/><polygon fill="#10644C" id="XMLID_1348_" points="64.1,180.6 83.4,194.9 83.4,180.6    "/></g><g id="XMLID_1339_"><path d="M402.1,234.4h-273c-4.4,0-8-3.6-8-8v-0.3c0-4.4,3.6-8,8-8h273c4.4,0,8,3.6,8,8v0.3     C410.1,230.8,406.5,234.4,402.1,234.4z" fill="#2EBC9A" id="XMLID_1346_"/><path d="M402.1,269.3h-273c-4.4,0-8-3.6-8-8V261c0-4.4,3.6-8,8-8h273c4.4,0,8,3.6,8,8v0.3     C410.1,265.7,406.5,269.3,402.1,269.3z" fill="#2EBC9A" id="XMLID_1345_"/><path d="M402.1,304.2h-273c-4.4,0-8-3.6-8-8v-0.3c0-4.4,3.6-8,8-8h273c4.4,0,8,3.6,8,8v0.3     C410.1,300.7,406.5,304.2,402.1,304.2z" fill="#2EBC9A" id="XMLID_1344_"/><path d="M402.1,339.2h-273c-4.4,0-8-3.6-8-8v-0.3c0-4.4,3.6-8,8-8h273c4.4,0,8,3.6,8,8v0.3     C410.1,335.6,406.5,339.2,402.1,339.2z" fill="#2EBC9A" id="XMLID_1343_"/><path d="M402.1,374.1h-273c-4.4,0-8-3.6-8-8v-0.3c0-4.4,3.6-8,8-8h273c4.4,0,8,3.6,8,8v0.3     C410.1,370.5,406.5,374.1,402.1,374.1z" fill="#2EBC9A" id="XMLID_1342_"/><path d="M402.1,409h-273c-4.4,0-8-3.6-8-8v-0.3c0-4.4,3.6-8,8-8h273c4.4,0,8,3.6,8,8v0.3     C410.1,405.5,406.5,409,402.1,409z" fill="#2EBC9A" id="XMLID_1341_"/><path d="M336.9,444H129.1c-4.4,0-8-3.6-8-8v-0.3c0-4.4,3.6-8,8-8h207.8c4.4,0,8,3.6,8,8v0.3     C344.9,440.4,341.3,444,336.9,444z" fill="#2EBC9A" id="XMLID_1340_"/></g></g><g id="XMLID_2020_"><path d="M130.3,136.1h0.2l14.3-38h10.5v49.5h-8.3V112l-0.2,0l-13.6,35.6h-5.7l-13.9-36.2    l-0.2,0.1v36.2h-8.3V98h10.8L130.3,136.1z" fill="#FFFFFF" id="XMLID_2026_"/><path d="M206.7,127.2c0,6-1.9,11.1-5.7,15c-3.8,4-8.7,6-14.8,6c-5.9,0-10.7-2-14.4-6    c-3.7-4-5.6-9-5.6-15v-8.9c0-6,1.9-11,5.6-15c3.7-4,8.5-6,14.5-6c6,0,11,2,14.8,6c3.8,4,5.7,9,5.7,15V127.2z M198.5,118.2    c0-4.1-1.1-7.5-3.3-10.2c-2.2-2.6-5.2-4-8.9-4c-3.6,0-6.5,1.3-8.6,4c-2.1,2.6-3.1,6-3.1,10.2v9c0,4.2,1.1,7.6,3.2,10.2    c2.1,2.7,5,4,8.6,4c3.8,0,6.8-1.3,9-4c2.2-2.6,3.3-6.1,3.3-10.3V118.2z" fill="#FFFFFF" id="XMLID_2023_"/><path d="M232.7,134.1l0.9,3.6h0.2l0.8-3.5L246.5,98h8.8l-17.7,49.5h-7.8L212.1,98h8.8    L232.7,134.1z" fill="#FFFFFF" id="XMLID_2021_"/></g></g></svg>