<?xml version="1.0" ?><svg baseProfile="tiny" id="Layer_1" version="1.2" viewBox="0 0 512 512" xml:space="preserve" xmlns="http://www.w3.org/2000/svg" xmlns:xlink="http://www.w3.org/1999/xlink"><g id="XMLID_1710_"><g id="XMLID_438_"><path d="M432.8,506H98.4c-8.3,0-15-6.7-15-15V21c0-8.3,6.7-15,15-15h334.4c8.3,0,15,6.7,15,15v470    C447.9,499.3,441.1,506,432.8,506z" fill="#16896B" id="XMLID_451_"/><rect fill="#FFFFFF" height="469.3" id="XMLID_450_" width="333.8" x="98.7" y="21.3"/><g id="XMLID_447_"><polygon fill="#2EBC9A" id="XMLID_449_" points="352.4,180.6 64.1,180.6 64.1,64.9 352.4,64.9 288.6,122.8    "/><polygon fill="#10644C" id="XMLID_448_" points="64.1,180.6 83.4,194.9 83.4,180.6    "/></g><g id="XMLID_439_"><path d="M402.1,234.4h-273c-4.4,0-8-3.6-8-8v-0.3c0-4.4,3.6-8,8-8h273c4.4,0,8,3.6,8,8v0.3     C410.1,230.8,406.5,234.4,402.1,234.4z" fill="#2EBC9A" id="XMLID_446_"/><path d="M402.1,269.3h-273c-4.4,0-8-3.6-8-8V261c0-4.4,3.6-8,8-8h273c4.4,0,8,3.6,8,8v0.3     C410.1,265.7,406.5,269.3,402.1,269.3z" fill="#2EBC9A" id="XMLID_445_"/><path d="M402.1,304.2h-273c-4.4,0-8-3.6-8-8v-0.3c0-4.4,3.6-8,8-8h273c4.4,0,8,3.6,8,8v0.3     C410.1,300.7,406.5,304.2,402.1,304.2z" fill="#2EBC9A" id="XMLID_444_"/><path d="M402.1,339.2h-273c-4.4,0-8-3.6-8-8v-0.3c0-4.4,3.6-8,8-8h273c4.4,0,8,3.6,8,8v0.3     C410.1,335.6,406.5,339.2,402.1,339.2z" fill="#2EBC9A" id="XMLID_443_"/><path d="M402.1,374.1h-273c-4.4,0-8-3.6-8-8v-0.3c0-4.4,3.6-8,8-8h273c4.4,0,8,3.6,8,8v0.3     C410.1,370.5,406.5,374.1,402.1,374.1z" fill="#2EBC9A" id="XMLID_442_"/><path d="M402.1,409h-273c-4.4,0-8-3.6-8-8v-0.3c0-4.4,3.6-8,8-8h273c4.4,0,8,3.6,8,8v0.3     C410.1,405.5,406.5,409,402.1,409z" fill="#2EBC9A" id="XMLID_441_"/><path d="M336.9,444H129.1c-4.4,0-8-3.6-8-8v-0.3c0-4.4,3.6-8,8-8h207.8c4.4,0,8,3.6,8,8v0.3     C344.9,440.4,341.3,444,336.9,444z" fill="#2EBC9A" id="XMLID_440_"/></g></g><g id="XMLID_3412_"><path d="M133.1,137h0.2l15.3-40.8h11.3v53h-8.8v-38.1l-0.2,0l-14.6,38.1h-6.1l-14.8-38.8    l-0.2,0.1v38.8h-8.8v-53h11.6L133.1,137z" fill="#FFFFFF" id="XMLID_3418_"/><path d="M182.2,129.2v20.1h-8.8v-53h20.3c5.8,0,10.4,1.5,13.7,4.5c3.3,3,5,7,5,11.9    c0,5-1.7,9-5,12c-3.3,3-7.9,4.5-13.7,4.5H182.2z M182.2,122.1h11.5c3.3,0,5.7-0.9,7.4-2.6c1.6-1.7,2.5-4,2.5-6.7s-0.8-4.9-2.5-6.7    c-1.7-1.8-4.1-2.7-7.4-2.7h-11.5V122.1z" fill="#FFFFFF" id="XMLID_3415_"/><path d="M238.6,118.5c2.9,0,4.9-0.7,6.2-2.1c1.3-1.4,1.9-3.4,1.9-6c0-2.3-0.7-4.2-2-5.6    c-1.4-1.4-3.3-2.2-5.9-2.2c-2.4,0-4.4,0.7-5.9,2.1c-1.6,1.4-2.4,3.2-2.4,5.3h-8.5l-0.1-0.2c-0.1-4.1,1.4-7.5,4.6-10.2    c3.2-2.8,7.3-4.1,12.2-4.1c5.2,0,9.2,1.3,12.2,3.8c3,2.5,4.5,6.2,4.5,11.1c0,2.4-0.7,4.7-2,6.7c-1.3,2-3.2,3.6-5.5,4.7    c2.7,1.1,4.8,2.7,6.2,4.8c1.4,2.1,2.1,4.7,2.1,7.8c0,4.9-1.6,8.7-4.9,11.5c-3.3,2.8-7.5,4.1-12.7,4.1c-4.7,0-8.7-1.3-12.3-3.9    c-3.5-2.6-5.2-6.2-5.1-10.8l0.1-0.2h8.5c0,2.2,0.8,4.1,2.5,5.6c1.6,1.5,3.7,2.3,6.3,2.3c2.7,0,4.8-0.8,6.4-2.4    c1.6-1.6,2.4-3.6,2.4-6.1c0-3-0.7-5.3-2.2-6.7c-1.5-1.5-3.7-2.2-6.7-2.2h-5.9v-7H238.6z" fill="#FFFFFF" id="XMLID_3413_"/></g></g></svg>