<?xml version="1.0" ?><svg baseProfile="tiny" id="Layer_1" version="1.2" viewBox="0 0 512 512" xml:space="preserve" xmlns="http://www.w3.org/2000/svg" xmlns:xlink="http://www.w3.org/1999/xlink"><g id="XMLID_1722_"><g id="XMLID_670_"><path d="M432.8,506H98.4c-8.3,0-15-6.7-15-15V21c0-8.3,6.7-15,15-15h334.4c8.3,0,15,6.7,15,15v470    C447.9,499.3,441.1,506,432.8,506z" fill="#3DA7E3" id="XMLID_701_"/><rect fill="#FFFFFF" height="469.3" id="XMLID_700_" width="333.8" x="98.7" y="21.3"/><g id="XMLID_693_"><polygon fill="#2A68A6" id="XMLID_697_" points="352.4,180.6 64.1,180.6 64.1,64.9 352.4,64.9 288.6,122.8    "/><polygon fill="#114D7F" id="XMLID_694_" points="64.1,180.6 83.4,194.9 83.4,180.6    "/></g><g id="XMLID_671_"><path d="M402.2,234.4H129.1c-4.4,0-8-3.6-8-8V226c0-4.4,3.6-8,8-8h273.1c4.4,0,8,3.6,8,8v0.4     C410.1,230.8,406.6,234.4,402.2,234.4z" fill="#2A68A6" id="XMLID_690_"/><path d="M402.2,269.3H129.1c-4.4,0-8-3.6-8-8V261c0-4.4,3.6-8,8-8h273.1c4.4,0,8,3.6,8,8v0.4     C410.1,265.8,406.6,269.3,402.2,269.3z" fill="#2A68A6" id="XMLID_687_"/><path d="M402.2,304.2H129.1c-4.4,0-8-3.6-8-8v-0.4c0-4.4,3.6-8,8-8h273.1c4.4,0,8,3.6,8,8v0.4     C410.1,300.7,406.6,304.2,402.2,304.2z" fill="#2A68A6" id="XMLID_684_"/><path d="M402.2,339.2H129.1c-4.4,0-8-3.6-8-8v-0.4c0-4.4,3.6-8,8-8h273.1c4.4,0,8,3.6,8,8v0.4     C410.1,335.6,406.6,339.2,402.2,339.2z" fill="#2A68A6" id="XMLID_681_"/><path d="M402.2,374.1H129.1c-4.4,0-8-3.6-8-8v-0.4c0-4.4,3.6-8,8-8h273.1c4.4,0,8,3.6,8,8v0.4     C410.1,370.5,406.6,374.1,402.2,374.1z" fill="#2A68A6" id="XMLID_678_"/><path d="M402.2,409H129.1c-4.4,0-8-3.6-8-8v-0.4c0-4.4,3.6-8,8-8h273.1c4.4,0,8,3.6,8,8v0.4     C410.1,405.5,406.6,409,402.2,409z" fill="#2A68A6" id="XMLID_675_"/><path d="M337,444H129.1c-4.4,0-8-3.6-8-8v-0.4c0-4.4,3.6-8,8-8H337c4.4,0,8,3.6,8,8v0.4     C344.9,440.4,341.4,444,337,444z" fill="#2A68A6" id="XMLID_672_"/></g></g><g id="XMLID_2859_"><path d="M133.9,136.9h0.2l15.2-40.4h11.2V149h-8.8v-37.7l-0.2,0L137,149h-6l-14.7-38.5l-0.2,0.1    V149h-8.8V96.5h11.5L133.9,136.9z" fill="#FFFFFF" id="XMLID_2866_"/><path d="M182.5,129.1V149h-8.8V96.5h20.1c5.8,0,10.3,1.5,13.6,4.5c3.3,3,4.9,6.9,4.9,11.8    c0,4.9-1.6,8.9-4.9,11.8c-3.3,3-7.8,4.5-13.6,4.5H182.5z M182.5,122.1h11.4c3.2,0,5.7-0.9,7.3-2.6c1.6-1.7,2.5-3.9,2.5-6.6    c0-2.7-0.8-4.9-2.5-6.7c-1.6-1.8-4.1-2.7-7.3-2.7h-11.4V122.1z" fill="#FFFFFF" id="XMLID_2863_"/><path d="M250.6,130.3h6.6v7.1h-6.6V149h-8.7v-11.6h-22l-0.2-5.4l21.9-35.5h9V130.3z M228.3,130.3    h13.6v-21.4l-0.2,0l-0.8,2L228.3,130.3z" fill="#FFFFFF" id="XMLID_2860_"/></g></g></svg>