<?xml version="1.0" ?><svg baseProfile="tiny" id="Layer_1" version="1.2" viewBox="0 0 512 512" xml:space="preserve" xmlns="http://www.w3.org/2000/svg" xmlns:xlink="http://www.w3.org/1999/xlink"><g id="XMLID_1732_"><g id="XMLID_1120_"><path d="M432.8,506H98.4c-8.3,0-15-6.7-15-15V21c0-8.3,6.7-15,15-15h334.4c8.3,0,15,6.7,15,15    v470C447.9,499.3,441.1,506,432.8,506z" fill="#3DA7E3" id="XMLID_1151_"/><rect fill="#FFFFFF" height="469.3" id="XMLID_1150_" width="333.8" x="98.7" y="21.3"/><g id="XMLID_1143_"><polygon fill="#2A68A6" id="XMLID_1147_" points="352.4,180.6 64.1,180.6 64.1,64.9 352.4,64.9 288.6,122.8    "/><polygon fill="#114D7F" id="XMLID_1144_" points="64.1,180.6 83.4,194.9 83.4,180.6    "/></g><g id="XMLID_1121_"><path d="M402.2,234.4H129.1c-4.4,0-8-3.6-8-8V226c0-4.4,3.6-8,8-8h273.1c4.4,0,8,3.6,8,8v0.4     C410.1,230.8,406.6,234.4,402.2,234.4z" fill="#2A68A6" id="XMLID_1140_"/><path d="M402.2,269.3H129.1c-4.4,0-8-3.6-8-8V261c0-4.4,3.6-8,8-8h273.1c4.4,0,8,3.6,8,8v0.4     C410.1,265.8,406.6,269.3,402.2,269.3z" fill="#2A68A6" id="XMLID_1137_"/><path d="M402.2,304.2H129.1c-4.4,0-8-3.6-8-8v-0.4c0-4.4,3.6-8,8-8h273.1c4.4,0,8,3.6,8,8v0.4     C410.1,300.7,406.6,304.2,402.2,304.2z" fill="#2A68A6" id="XMLID_1134_"/><path d="M402.2,339.2H129.1c-4.4,0-8-3.6-8-8v-0.4c0-4.4,3.6-8,8-8h273.1c4.4,0,8,3.6,8,8v0.4     C410.1,335.6,406.6,339.2,402.2,339.2z" fill="#2A68A6" id="XMLID_1131_"/><path d="M402.2,374.1H129.1c-4.4,0-8-3.6-8-8v-0.4c0-4.4,3.6-8,8-8h273.1c4.4,0,8,3.6,8,8v0.4     C410.1,370.5,406.6,374.1,402.2,374.1z" fill="#2A68A6" id="XMLID_1128_"/><path d="M402.2,409H129.1c-4.4,0-8-3.6-8-8v-0.4c0-4.4,3.6-8,8-8h273.1c4.4,0,8,3.6,8,8v0.4     C410.1,405.5,406.6,409,402.2,409z" fill="#2A68A6" id="XMLID_1125_"/><path d="M337,444H129.1c-4.4,0-8-3.6-8-8v-0.4c0-4.4,3.6-8,8-8H337c4.4,0,8,3.6,8,8v0.4     C344.9,440.4,341.4,444,337,444z" fill="#2A68A6" id="XMLID_1122_"/></g></g><g id="XMLID_2142_"><path d="M128.1,136.5h0.2L143,97.3h10.8v50.9h-8.5v-36.6l-0.2,0l-14,36.6h-5.8L111,110.9    l-0.2,0.1v37.3h-8.5V97.3h11.2L128.1,136.5z" fill="#FFFFFF" id="XMLID_2148_"/><path d="M175.3,128.9v19.3h-8.5V97.3h19.5c5.6,0,10,1.5,13.2,4.4c3.2,2.9,4.8,6.7,4.8,11.5    c0,4.8-1.6,8.6-4.8,11.5c-3.2,2.9-7.6,4.3-13.2,4.3H175.3z M175.3,122.1h11c3.1,0,5.5-0.8,7.1-2.5c1.6-1.7,2.4-3.8,2.4-6.4    s-0.8-4.7-2.4-6.5c-1.6-1.7-4-2.6-7.1-2.6h-11V122.1z" fill="#FFFFFF" id="XMLID_2145_"/><path d="M252.3,141.3c-1.4,2-3.6,3.7-6.7,5.3c-3.1,1.6-7,2.3-11.9,2.3c-6,0-11-1.9-14.9-5.8    s-5.8-8.9-5.8-15.1v-10.6c0-6.2,1.9-11.2,5.6-15.1c3.8-3.9,8.6-5.8,14.5-5.8c5.9,0,10.5,1.5,13.9,4.5c3.3,3,4.9,6.9,4.8,11.7    l-0.1,0.2h-8.1c0-2.9-0.9-5.2-2.7-6.9s-4.3-2.6-7.7-2.6c-3.5,0-6.4,1.3-8.5,4c-2.2,2.6-3.2,6-3.2,10v10.7c0,4.1,1.1,7.5,3.4,10.1    c2.3,2.6,5.2,4,8.8,4c2.7,0,4.9-0.3,6.5-0.9c1.6-0.6,2.8-1.4,3.6-2.3v-10.5h-10.7v-6.4h19.2V141.3z" fill="#FFFFFF" id="XMLID_2143_"/></g></g></svg>