<?xml version="1.0" ?><svg baseProfile="tiny" id="Layer_1" version="1.2" viewBox="0 0 512 512" xml:space="preserve" xmlns="http://www.w3.org/2000/svg" xmlns:xlink="http://www.w3.org/1999/xlink"><g id="XMLID_1723_"><g id="XMLID_636_"><path d="M432.8,506H98.4c-8.3,0-15-6.7-15-15V21c0-8.3,6.7-15,15-15h334.4c8.3,0,15,6.7,15,15v470    C447.9,499.3,441.1,506,432.8,506z" fill="#FCE379" id="XMLID_667_"/><rect fill="#FFFFFF" height="469.3" id="XMLID_666_" width="333.8" x="98.7" y="21.3"/><g id="XMLID_659_"><polygon fill="#FFC42E" id="XMLID_663_" points="352.4,180.6 64.1,180.6 64.1,64.9 352.4,64.9 288.6,122.8    "/><polygon fill="#FAAA20" id="XMLID_660_" points="64.1,180.6 83.4,194.9 83.4,180.6    "/></g><g id="XMLID_637_"><path d="M402.1,234.4h-273c-4.4,0-8-3.6-8-8v-0.3c0-4.4,3.6-8,8-8h273c4.4,0,8,3.6,8,8v0.3     C410.1,230.8,406.5,234.4,402.1,234.4z" fill="#FFC42E" id="XMLID_656_"/><path d="M402.1,269.3h-273c-4.4,0-8-3.6-8-8V261c0-4.4,3.6-8,8-8h273c4.4,0,8,3.6,8,8v0.3     C410.1,265.7,406.5,269.3,402.1,269.3z" fill="#FFC42E" id="XMLID_653_"/><path d="M402.1,304.2h-273c-4.4,0-8-3.6-8-8v-0.3c0-4.4,3.6-8,8-8h273c4.4,0,8,3.6,8,8v0.3     C410.1,300.7,406.5,304.2,402.1,304.2z" fill="#FFC42E" id="XMLID_650_"/><path d="M402.1,339.2h-273c-4.4,0-8-3.6-8-8v-0.3c0-4.4,3.6-8,8-8h273c4.4,0,8,3.6,8,8v0.3     C410.1,335.6,406.5,339.2,402.1,339.2z" fill="#FFC42E" id="XMLID_647_"/><path d="M402.1,374.1h-273c-4.4,0-8-3.6-8-8v-0.3c0-4.4,3.6-8,8-8h273c4.4,0,8,3.6,8,8v0.3     C410.1,370.5,406.5,374.1,402.1,374.1z" fill="#FFC42E" id="XMLID_644_"/><path d="M402.1,409h-273c-4.4,0-8-3.6-8-8v-0.3c0-4.4,3.6-8,8-8h273c4.4,0,8,3.6,8,8v0.3     C410.1,405.5,406.5,409,402.1,409z" fill="#FFC42E" id="XMLID_641_"/><path d="M336.9,444H129.1c-4.4,0-8-3.6-8-8v-0.3c0-4.4,3.6-8,8-8h207.8c4.4,0,8,3.6,8,8v0.3     C344.9,440.4,341.3,444,336.9,444z" fill="#FFC42E" id="XMLID_638_"/></g></g><g id="XMLID_1516_"><path d="M117.1,129.8V152h-9.8V93.5h22.4c6.5,0,11.5,1.7,15.2,5c3.7,3.3,5.5,7.7,5.5,13.2    c0,5.5-1.8,9.9-5.5,13.2c-3.7,3.3-8.7,5-15.2,5H117.1z M117.1,122h12.7c3.6,0,6.3-1,8.2-2.9c1.8-1.9,2.7-4.4,2.7-7.4    c0-3-0.9-5.5-2.7-7.4c-1.8-2-4.5-3-8.2-3h-12.7V122z" fill="#FFFFFF" id="XMLID_1769_"/><path d="M162.2,152V93.5h19.3c7.4,0,13.5,2.3,18.1,7c4.6,4.6,7,10.6,7,17.9v8.9    c0,7.3-2.3,13.3-7,17.9c-4.7,4.6-10.7,6.9-18.1,6.9H162.2z M171.9,101.3v42.9h9.6c4.7,0,8.4-1.6,11.2-4.8    c2.8-3.2,4.1-7.3,4.1-12.2v-9c0-4.9-1.4-9-4.1-12.2c-2.8-3.2-6.5-4.8-11.2-4.8H171.9z" fill="#FFFFFF" id="XMLID_1518_"/><path d="M253.2,127.1h-23.6v25h-9.8V93.5h37.5v7.8h-27.7v17.9h23.6V127.1z" fill="#FFFFFF" id="XMLID_1517_"/></g></g></svg>