<?xml version="1.0" ?><svg baseProfile="tiny" id="Layer_1" version="1.2" viewBox="0 0 512 512" xml:space="preserve" xmlns="http://www.w3.org/2000/svg" xmlns:xlink="http://www.w3.org/1999/xlink"><g id="XMLID_1726_"><g id="XMLID_786_"><path d="M432.8,506H98.4c-8.3,0-15-6.7-15-15V21c0-8.3,6.7-15,15-15h334.4c8.3,0,15,6.7,15,15v470    C447.9,499.3,441.1,506,432.8,506z" fill="#FCE379" id="XMLID_817_"/><rect fill="#FFFFFF" height="469.3" id="XMLID_816_" width="333.8" x="98.7" y="21.3"/><g id="XMLID_809_"><polygon fill="#FFC42E" id="XMLID_813_" points="352.4,180.6 64.1,180.6 64.1,64.9 352.4,64.9 288.6,122.8    "/><polygon fill="#FAAA20" id="XMLID_810_" points="64.1,180.6 83.4,194.9 83.4,180.6    "/></g><g id="XMLID_787_"><path d="M402.1,234.4h-273c-4.4,0-8-3.6-8-8v-0.3c0-4.4,3.6-8,8-8h273c4.4,0,8,3.6,8,8v0.3     C410.1,230.8,406.5,234.4,402.1,234.4z" fill="#FFC42E" id="XMLID_806_"/><path d="M402.1,269.3h-273c-4.4,0-8-3.6-8-8V261c0-4.4,3.6-8,8-8h273c4.4,0,8,3.6,8,8v0.3     C410.1,265.7,406.5,269.3,402.1,269.3z" fill="#FFC42E" id="XMLID_803_"/><path d="M402.1,304.2h-273c-4.4,0-8-3.6-8-8v-0.3c0-4.4,3.6-8,8-8h273c4.4,0,8,3.6,8,8v0.3     C410.1,300.7,406.5,304.2,402.1,304.2z" fill="#FFC42E" id="XMLID_800_"/><path d="M402.1,339.2h-273c-4.4,0-8-3.6-8-8v-0.3c0-4.4,3.6-8,8-8h273c4.4,0,8,3.6,8,8v0.3     C410.1,335.6,406.5,339.2,402.1,339.2z" fill="#FFC42E" id="XMLID_797_"/><path d="M402.1,374.1h-273c-4.4,0-8-3.6-8-8v-0.3c0-4.4,3.6-8,8-8h273c4.4,0,8,3.6,8,8v0.3     C410.1,370.5,406.5,374.1,402.1,374.1z" fill="#FFC42E" id="XMLID_794_"/><path d="M402.1,409h-273c-4.4,0-8-3.6-8-8v-0.3c0-4.4,3.6-8,8-8h273c4.4,0,8,3.6,8,8v0.3     C410.1,405.5,406.5,409,402.1,409z" fill="#FFC42E" id="XMLID_791_"/><path d="M336.9,444H129.1c-4.4,0-8-3.6-8-8v-0.3c0-4.4,3.6-8,8-8h207.8c4.4,0,8,3.6,8,8v0.3     C344.9,440.4,341.3,444,336.9,444z" fill="#FFC42E" id="XMLID_788_"/></g></g><g id="XMLID_2801_"><path d="M115.5,129.5v21h-9.2V95.1h21.2c6.1,0,10.9,1.6,14.4,4.7s5.2,7.3,5.2,12.5    c0,5.2-1.7,9.4-5.2,12.5c-3.5,3.1-8.3,4.7-14.4,4.7H115.5z M115.5,122h12c3.4,0,6-0.9,7.7-2.7c1.7-1.8,2.6-4.1,2.6-7    c0-2.8-0.9-5.2-2.6-7c-1.7-1.9-4.3-2.8-7.7-2.8h-12V122z" fill="#FFFFFF" id="XMLID_2807_"/><path d="M201.5,150.5h-9.2v-23.6h-24.8v23.6h-9.2V95.1h9.2v24.4h24.8V95.1h9.2V150.5z" fill="#FFFFFF" id="XMLID_2805_"/><path d="M224.7,129.5v21h-9.2V95.1h21.2c6.1,0,10.9,1.6,14.4,4.7s5.2,7.3,5.2,12.5    c0,5.2-1.7,9.4-5.2,12.5c-3.5,3.1-8.3,4.7-14.4,4.7H224.7z M224.7,122h12c3.4,0,6-0.9,7.7-2.7c1.7-1.8,2.6-4.1,2.6-7    c0-2.8-0.9-5.2-2.6-7c-1.7-1.9-4.3-2.8-7.7-2.8h-12V122z" fill="#FFFFFF" id="XMLID_2802_"/></g></g></svg>