<?xml version="1.0" ?><svg baseProfile="tiny" id="Layer_1" version="1.2" viewBox="0 0 512 512" xml:space="preserve" xmlns="http://www.w3.org/2000/svg" xmlns:xlink="http://www.w3.org/1999/xlink"><g id="XMLID_1700_"><g id="XMLID_17_"><path d="M432.8,506H98.4c-8.3,0-15-6.7-15-15V21c0-8.3,6.7-15,15-15h334.4c8.3,0,15,6.7,15,15v470    C447.9,499.3,441.1,506,432.8,506z" fill="#16896B" id="XMLID_3_"/><rect fill="#FFFFFF" height="469.3" id="XMLID_6_" width="333.8" x="98.7" y="21.3"/><g id="XMLID_7_"><polygon fill="#2EBC9A" id="XMLID_5_" points="352.4,180.6 64.1,180.6 64.1,64.9 352.4,64.9 288.6,122.8    "/><polygon fill="#10644C" id="XMLID_9_" points="64.1,180.6 83.4,194.9 83.4,180.6    "/></g><g id="XMLID_10_"><path d="M402.1,234.4h-273c-4.4,0-8-3.6-8-8v-0.3c0-4.4,3.6-8,8-8h273c4.4,0,8,3.6,8,8v0.3     C410.1,230.8,406.5,234.4,402.1,234.4z" fill="#2EBC9A" id="XMLID_8_"/><path d="M402.1,269.3h-273c-4.4,0-8-3.6-8-8V261c0-4.4,3.6-8,8-8h273c4.4,0,8,3.6,8,8v0.3     C410.1,265.7,406.5,269.3,402.1,269.3z" fill="#2EBC9A" id="XMLID_11_"/><path d="M402.1,304.2h-273c-4.4,0-8-3.6-8-8v-0.3c0-4.4,3.6-8,8-8h273c4.4,0,8,3.6,8,8v0.3     C410.1,300.7,406.5,304.2,402.1,304.2z" fill="#2EBC9A" id="XMLID_12_"/><path d="M402.1,339.2h-273c-4.4,0-8-3.6-8-8v-0.3c0-4.4,3.6-8,8-8h273c4.4,0,8,3.6,8,8v0.3     C410.1,335.6,406.5,339.2,402.1,339.2z" fill="#2EBC9A" id="XMLID_13_"/><path d="M402.1,374.1h-273c-4.4,0-8-3.6-8-8v-0.3c0-4.4,3.6-8,8-8h273c4.4,0,8,3.6,8,8v0.3     C410.1,370.5,406.5,374.1,402.1,374.1z" fill="#2EBC9A" id="XMLID_14_"/><path d="M402.1,409h-273c-4.4,0-8-3.6-8-8v-0.3c0-4.4,3.6-8,8-8h273c4.4,0,8,3.6,8,8v0.3     C410.1,405.5,406.5,409,402.1,409z" fill="#2EBC9A" id="XMLID_15_"/><path d="M336.9,444H129.1c-4.4,0-8-3.6-8-8v-0.3c0-4.4,3.6-8,8-8h207.8c4.4,0,8,3.6,8,8v0.3     C344.9,440.4,341.3,444,336.9,444z" fill="#2EBC9A" id="XMLID_16_"/></g></g><g id="XMLID_3849_"><path d="M112.5,129.4v21h-9.2V95.1h21.2c6.1,0,10.9,1.6,14.3,4.7s5.2,7.3,5.2,12.4    c0,5.2-1.7,9.4-5.2,12.5c-3.5,3.1-8.2,4.7-14.3,4.7H112.5z M112.5,122h12c3.4,0,6-0.9,7.7-2.7c1.7-1.8,2.6-4.1,2.6-7    c0-2.8-0.9-5.2-2.6-7c-1.7-1.9-4.3-2.8-7.7-2.8h-12V122z" fill="#FFFFFF" id="XMLID_3854_"/><path d="M198.3,150.4h-9.2l-24.5-39.8l-0.2,0.1v39.8h-9.2V95.1h9.2l24.5,39.8l0.2-0.1V95.1h9.2    V150.4z" fill="#FFFFFF" id="XMLID_3852_"/><path d="M253.3,142.9c-1.5,2.2-3.9,4.1-7.3,5.8c-3.3,1.7-7.6,2.5-12.9,2.5    c-6.5,0-11.9-2.1-16.1-6.3s-6.3-9.7-6.3-16.4V117c0-6.7,2-12.1,6.1-16.4c4.1-4.2,9.3-6.3,15.7-6.3c6.4,0,11.4,1.6,15,4.9    c3.6,3.2,5.3,7.5,5.2,12.7l-0.1,0.2h-8.8c0-3.1-1-5.6-2.9-7.5c-1.9-1.9-4.7-2.8-8.3-2.8c-3.8,0-6.9,1.4-9.2,4.3    c-2.3,2.9-3.5,6.5-3.5,10.9v11.6c0,4.5,1.2,8.1,3.7,11c2.4,2.9,5.6,4.3,9.6,4.3c3,0,5.3-0.3,7-1c1.7-0.7,3-1.5,3.9-2.5v-11.4    h-11.6V122h20.8V142.9z" fill="#FFFFFF" id="XMLID_3850_"/></g></g></svg>