<?xml version="1.0" ?><svg baseProfile="tiny" id="Layer_1" version="1.2" viewBox="0 0 512 512" xml:space="preserve" xmlns="http://www.w3.org/2000/svg" xmlns:xlink="http://www.w3.org/1999/xlink"><g id="XMLID_1717_"><g id="XMLID_520_"><path d="M432.8,506H98.4c-8.3,0-15-6.7-15-15V21c0-8.3,6.7-15,15-15h334.4c8.3,0,15,6.7,15,15v470    C447.9,499.3,441.1,506,432.8,506z" fill="#3DA7E3" id="XMLID_551_"/><rect fill="#FFFFFF" height="469.3" id="XMLID_550_" width="333.8" x="98.7" y="21.3"/><g id="XMLID_543_"><polygon fill="#2A68A6" id="XMLID_547_" points="352.4,180.6 64.1,180.6 64.1,64.9 352.4,64.9 288.6,122.8    "/><polygon fill="#114D7F" id="XMLID_544_" points="64.1,180.6 83.4,194.9 83.4,180.6    "/></g><g id="XMLID_521_"><path d="M402.2,234.4H129.1c-4.4,0-8-3.6-8-8V226c0-4.4,3.6-8,8-8h273.1c4.4,0,8,3.6,8,8v0.4     C410.1,230.8,406.6,234.4,402.2,234.4z" fill="#2A68A6" id="XMLID_540_"/><path d="M402.2,269.3H129.1c-4.4,0-8-3.6-8-8V261c0-4.4,3.6-8,8-8h273.1c4.4,0,8,3.6,8,8v0.4     C410.1,265.8,406.6,269.3,402.2,269.3z" fill="#2A68A6" id="XMLID_537_"/><path d="M402.2,304.2H129.1c-4.4,0-8-3.6-8-8v-0.4c0-4.4,3.6-8,8-8h273.1c4.4,0,8,3.6,8,8v0.4     C410.1,300.7,406.6,304.2,402.2,304.2z" fill="#2A68A6" id="XMLID_534_"/><path d="M402.2,339.2H129.1c-4.4,0-8-3.6-8-8v-0.4c0-4.4,3.6-8,8-8h273.1c4.4,0,8,3.6,8,8v0.4     C410.1,335.6,406.6,339.2,402.2,339.2z" fill="#2A68A6" id="XMLID_531_"/><path d="M402.2,374.1H129.1c-4.4,0-8-3.6-8-8v-0.4c0-4.4,3.6-8,8-8h273.1c4.4,0,8,3.6,8,8v0.4     C410.1,370.5,406.6,374.1,402.2,374.1z" fill="#2A68A6" id="XMLID_528_"/><path d="M402.2,409H129.1c-4.4,0-8-3.6-8-8v-0.4c0-4.4,3.6-8,8-8h273.1c4.4,0,8,3.6,8,8v0.4     C410.1,405.5,406.6,409,402.2,409z" fill="#2A68A6" id="XMLID_525_"/><path d="M337,444H129.1c-4.4,0-8-3.6-8-8v-0.4c0-4.4,3.6-8,8-8H337c4.4,0,8,3.6,8,8v0.4     C344.9,440.4,341.4,444,337,444z" fill="#2A68A6" id="XMLID_522_"/></g></g><g id="XMLID_3369_"><path d="M142.3,131.3v26.9h-11.8V87.3h27.2c7.8,0,13.9,2,18.4,6.1c4.4,4,6.6,9.4,6.6,15.9    c0,6.7-2.2,12-6.6,16c-4.4,4-10.6,6-18.4,6H142.3z M142.3,121.8h15.3c4.4,0,7.7-1.2,9.9-3.5c2.2-2.3,3.3-5.3,3.3-8.9    c0-3.6-1.1-6.6-3.3-9c-2.2-2.4-5.5-3.6-9.9-3.6h-15.3V121.8z" fill="#FFFFFF" id="XMLID_3372_"/><path d="M234.3,140c0-3-1-5.4-3.1-7.3c-2.1-1.9-5.8-3.6-11.1-5.1c-7.6-2.1-13.5-4.9-17.6-8.3    c-4.1-3.4-6.2-7.9-6.2-13.4c0-5.7,2.3-10.4,6.8-14.1c4.5-3.7,10.4-5.6,17.5-5.6c7.7,0,13.8,2.1,18.4,6.2c4.6,4.1,6.8,9.2,6.6,15.2    l-0.1,0.3H234c0-3.7-1.2-6.7-3.7-8.9c-2.5-2.2-5.8-3.3-9.9-3.3c-4,0-7.1,0.9-9.2,2.8c-2.2,1.9-3.2,4.3-3.2,7.3    c0,2.7,1.2,5,3.6,6.7c2.4,1.8,6.3,3.4,11.8,5c7.4,2.1,13.1,4.9,17,8.5c3.9,3.6,5.8,8.2,5.8,13.8c0,5.9-2.3,10.6-6.9,14.1    c-4.6,3.5-10.7,5.3-18.2,5.3c-7.2,0-13.5-1.9-18.8-5.7c-5.4-3.8-8-9.2-7.8-16.2l0.1-0.3h11.4c0,4.3,1.5,7.5,4.4,9.6    c2.9,2.2,6.5,3.2,10.7,3.2c4.2,0,7.4-0.9,9.8-2.7C233.1,145.4,234.3,143,234.3,140z" fill="#FFFFFF" id="XMLID_3370_"/></g></g></svg>