<?xml version="1.0" ?><svg baseProfile="tiny" id="Layer_1" version="1.2" viewBox="0 0 512 512" xml:space="preserve" xmlns="http://www.w3.org/2000/svg" xmlns:xlink="http://www.w3.org/1999/xlink"><g id="XMLID_1715_"><g id="XMLID_452_"><path d="M432.8,506H98.4c-8.3,0-15-6.7-15-15V21c0-8.3,6.7-15,15-15h334.4c8.3,0,15,6.7,15,15v470    C447.9,499.3,441.1,506,432.8,506z" fill="#F45671" id="XMLID_483_"/><rect fill="#FFFFFF" height="469.3" id="XMLID_482_" width="333.8" x="98.7" y="21.3"/><g id="XMLID_475_"><polygon fill="#E03258" id="XMLID_479_" points="352.4,180.6 64.1,180.6 64.1,64.9 352.4,64.9 288.6,122.8    "/><polygon fill="#BC2049" id="XMLID_476_" points="64.1,180.6 83.4,194.9 83.4,180.6    "/></g><g id="XMLID_453_"><path d="M402.1,234.4h-273c-4.4,0-8-3.6-8-8v-0.3c0-4.4,3.6-8,8-8h273c4.4,0,8,3.6,8,8v0.3     C410.1,230.8,406.5,234.4,402.1,234.4z" fill="#E03258" id="XMLID_472_"/><path d="M402.1,269.3h-273c-4.4,0-8-3.6-8-8V261c0-4.4,3.6-8,8-8h273c4.4,0,8,3.6,8,8v0.3     C410.1,265.7,406.5,269.3,402.1,269.3z" fill="#E03258" id="XMLID_469_"/><path d="M402.1,304.2h-273c-4.4,0-8-3.6-8-8v-0.3c0-4.4,3.6-8,8-8h273c4.4,0,8,3.6,8,8v0.3     C410.1,300.7,406.5,304.2,402.1,304.2z" fill="#E03258" id="XMLID_466_"/><path d="M402.1,339.2h-273c-4.4,0-8-3.6-8-8v-0.3c0-4.4,3.6-8,8-8h273c4.4,0,8,3.6,8,8v0.3     C410.1,335.6,406.5,339.2,402.1,339.2z" fill="#E03258" id="XMLID_463_"/><path d="M402.1,374.1h-273c-4.4,0-8-3.6-8-8v-0.3c0-4.4,3.6-8,8-8h273c4.4,0,8,3.6,8,8v0.3     C410.1,370.5,406.5,374.1,402.1,374.1z" fill="#E03258" id="XMLID_460_"/><path d="M402.1,409h-273c-4.4,0-8-3.6-8-8v-0.3c0-4.4,3.6-8,8-8h273c4.4,0,8,3.6,8,8v0.3     C410.1,405.5,406.5,409,402.1,409z" fill="#E03258" id="XMLID_457_"/><path d="M336.9,444H129.1c-4.4,0-8-3.6-8-8v-0.3c0-4.4,3.6-8,8-8h207.8c4.4,0,8,3.6,8,8v0.3     C344.9,440.4,341.3,444,336.9,444z" fill="#E03258" id="XMLID_454_"/></g></g><g id="XMLID_2995_"><path d="M119.9,129.7v21.8h-9.6V93.9h22.1c6.4,0,11.3,1.6,14.9,4.9c3.6,3.3,5.4,7.6,5.4,13    c0,5.4-1.8,9.7-5.4,13c-3.6,3.3-8.6,4.9-14.9,4.9H119.9z M119.9,122h12.5c3.6,0,6.2-0.9,8-2.8c1.8-1.9,2.7-4.3,2.7-7.2    c0-2.9-0.9-5.4-2.7-7.3c-1.8-2-4.5-2.9-8-2.9h-12.5V122z" fill="#FFFFFF" id="XMLID_3001_"/><path d="M194.7,136.8c0-2.4-0.9-4.4-2.6-5.9c-1.7-1.5-4.7-2.9-9-4.1c-6.2-1.7-11-4-14.3-6.7    c-3.4-2.8-5-6.4-5-10.9c0-4.6,1.8-8.5,5.5-11.5c3.7-3,8.4-4.5,14.2-4.5c6.2,0,11.2,1.7,14.9,5c3.7,3.3,5.5,7.5,5.4,12.4l-0.1,0.2    h-9.3c0-3-1-5.4-3-7.2c-2-1.8-4.7-2.7-8.1-2.7c-3.2,0-5.7,0.8-7.5,2.3c-1.8,1.5-2.6,3.5-2.6,5.9c0,2.2,1,4,2.9,5.5    c1.9,1.4,5.1,2.8,9.6,4.1c6,1.7,10.6,4,13.8,6.9c3.2,2.9,4.7,6.6,4.7,11.2c0,4.8-1.9,8.6-5.6,11.4c-3.7,2.8-8.7,4.3-14.8,4.3    c-5.9,0-11-1.6-15.3-4.7c-4.4-3.1-6.5-7.5-6.3-13.2l0.1-0.2h9.3c0,3.5,1.2,6.1,3.6,7.8c2.4,1.8,5.3,2.6,8.7,2.6    c3.4,0,6-0.7,7.9-2.2C193.7,141.2,194.7,139.2,194.7,136.8z" fill="#FFFFFF" id="XMLID_2999_"/><path d="M216.6,151.6V93.9h19c7.3,0,13.2,2.3,17.8,6.8c4.6,4.6,6.9,10.4,6.9,17.6v8.7    c0,7.2-2.3,13.1-6.9,17.6c-4.6,4.5-10.5,6.8-17.8,6.8H216.6z M226.2,101.7v42.2h9.4c4.6,0,8.3-1.6,11-4.7c2.7-3.1,4.1-7.1,4.1-12    v-8.8c0-4.9-1.4-8.8-4.1-12c-2.7-3.1-6.4-4.7-11-4.7H226.2z" fill="#FFFFFF" id="XMLID_2996_"/></g></g></svg>