<?xml version="1.0" ?><svg baseProfile="tiny" id="Layer_1" version="1.2" viewBox="0 0 512 512" xml:space="preserve" xmlns="http://www.w3.org/2000/svg" xmlns:xlink="http://www.w3.org/1999/xlink"><g id="XMLID_1729_"><g id="XMLID_888_"><path d="M432.8,506H98.4c-8.3,0-15-6.7-15-15V21c0-8.3,6.7-15,15-15h334.4c8.3,0,15,6.7,15,15v470    C447.9,499.3,441.1,506,432.8,506z" fill="#16896B" id="XMLID_901_"/><rect fill="#FFFFFF" height="469.3" id="XMLID_900_" width="333.8" x="98.7" y="21.3"/><g id="XMLID_897_"><polygon fill="#2EBC9A" id="XMLID_899_" points="352.4,180.6 64.1,180.6 64.1,64.9 352.4,64.9 288.6,122.8    "/><polygon fill="#10644C" id="XMLID_898_" points="64.1,180.6 83.4,194.9 83.4,180.6    "/></g><g id="XMLID_889_"><path d="M402.1,234.4h-273c-4.4,0-8-3.6-8-8v-0.3c0-4.4,3.6-8,8-8h273c4.4,0,8,3.6,8,8v0.3     C410.1,230.8,406.5,234.4,402.1,234.4z" fill="#2EBC9A" id="XMLID_896_"/><path d="M402.1,269.3h-273c-4.4,0-8-3.6-8-8V261c0-4.4,3.6-8,8-8h273c4.4,0,8,3.6,8,8v0.3     C410.1,265.7,406.5,269.3,402.1,269.3z" fill="#2EBC9A" id="XMLID_895_"/><path d="M402.1,304.2h-273c-4.4,0-8-3.6-8-8v-0.3c0-4.4,3.6-8,8-8h273c4.4,0,8,3.6,8,8v0.3     C410.1,300.7,406.5,304.2,402.1,304.2z" fill="#2EBC9A" id="XMLID_894_"/><path d="M402.1,339.2h-273c-4.4,0-8-3.6-8-8v-0.3c0-4.4,3.6-8,8-8h273c4.4,0,8,3.6,8,8v0.3     C410.1,335.6,406.5,339.2,402.1,339.2z" fill="#2EBC9A" id="XMLID_893_"/><path d="M402.1,374.1h-273c-4.4,0-8-3.6-8-8v-0.3c0-4.4,3.6-8,8-8h273c4.4,0,8,3.6,8,8v0.3     C410.1,370.5,406.5,374.1,402.1,374.1z" fill="#2EBC9A" id="XMLID_892_"/><path d="M402.1,409h-273c-4.4,0-8-3.6-8-8v-0.3c0-4.4,3.6-8,8-8h273c4.4,0,8,3.6,8,8v0.3     C410.1,405.5,406.5,409,402.1,409z" fill="#2EBC9A" id="XMLID_891_"/><path d="M336.9,444H129.1c-4.4,0-8-3.6-8-8v-0.3c0-4.4,3.6-8,8-8h207.8c4.4,0,8,3.6,8,8v0.3     C344.9,440.4,341.3,444,336.9,444z" fill="#2EBC9A" id="XMLID_890_"/></g></g><g id="XMLID_2708_"><path d="M114.9,127.6v23.8h-9.6V94.1H125c6.4,0,11.3,1.4,14.8,4.3c3.5,2.9,5.2,7,5.2,12.4    c0,3-0.8,5.5-2.3,7.7c-1.5,2.1-3.8,3.9-6.7,5.1c3.2,1,5.6,2.7,7,5c1.4,2.3,2.1,5.2,2.1,8.6v4.8c0,1.7,0.2,3.3,0.6,4.9    c0.4,1.6,1.1,2.8,2.1,3.7v0.9h-9.8c-1.1-0.9-1.7-2.2-2-4.1c-0.3-1.8-0.4-3.7-0.4-5.5v-4.6c0-2.9-0.8-5.3-2.5-7    c-1.7-1.7-4-2.6-6.9-2.6H114.9z M114.9,120h9.7c3.8,0,6.6-0.7,8.4-2.2c1.8-1.5,2.6-3.7,2.6-6.7c0-2.9-0.9-5.2-2.6-6.8    c-1.7-1.6-4.4-2.5-7.9-2.5h-10.2V120z" fill="#FFFFFF" id="XMLID_2715_"/><path d="M188.9,138h-20.3l-4.4,13.4h-9.9l20-57.4h9.1l19.8,57.4h-9.9L188.9,138z M171.2,130h15.1    l-7.4-22.6h-0.2L171.2,130z" fill="#FFFFFF" id="XMLID_2712_"/><path d="M222.2,127.6v23.8h-9.6V94.1h19.7c6.4,0,11.3,1.4,14.8,4.3c3.5,2.9,5.2,7,5.2,12.4    c0,3-0.8,5.5-2.3,7.7c-1.5,2.1-3.8,3.9-6.7,5.1c3.2,1,5.6,2.7,7,5c1.4,2.3,2.1,5.2,2.1,8.6v4.8c0,1.7,0.2,3.3,0.6,4.9    c0.4,1.6,1.1,2.8,2.1,3.7v0.9h-9.8c-1.1-0.9-1.7-2.2-2-4.1c-0.3-1.8-0.4-3.7-0.4-5.5v-4.6c0-2.9-0.8-5.3-2.5-7    c-1.7-1.7-4-2.6-6.9-2.6H222.2z M222.2,120h9.7c3.8,0,6.6-0.7,8.4-2.2c1.8-1.5,2.6-3.7,2.6-6.7c0-2.9-0.9-5.2-2.6-6.8    c-1.7-1.6-4.4-2.5-7.9-2.5h-10.2V120z" fill="#FFFFFF" id="XMLID_2709_"/></g></g></svg>