<?xml version="1.0" ?><svg baseProfile="tiny" id="Layer_1" version="1.2" viewBox="0 0 512 512" xml:space="preserve" xmlns="http://www.w3.org/2000/svg" xmlns:xlink="http://www.w3.org/1999/xlink"><g id="XMLID_1733_"><g id="XMLID_1086_"><path d="M432.8,506H98.4c-8.3,0-15-6.7-15-15V21c0-8.3,6.7-15,15-15h334.4c8.3,0,15,6.7,15,15    v470C447.9,499.3,441.1,506,432.8,506z" fill="#FCE379" id="XMLID_1117_"/><rect fill="#FFFFFF" height="469.3" id="XMLID_1116_" width="333.8" x="98.7" y="21.3"/><g id="XMLID_1109_"><polygon fill="#FFC42E" id="XMLID_1113_" points="352.4,180.6 64.1,180.6 64.1,64.9 352.4,64.9 288.6,122.8    "/><polygon fill="#FAAA20" id="XMLID_1110_" points="64.1,180.6 83.4,194.9 83.4,180.6    "/></g><g id="XMLID_1087_"><path d="M402.1,234.4h-273c-4.4,0-8-3.6-8-8v-0.3c0-4.4,3.6-8,8-8h273c4.4,0,8,3.6,8,8v0.3     C410.1,230.8,406.5,234.4,402.1,234.4z" fill="#FFC42E" id="XMLID_1106_"/><path d="M402.1,269.3h-273c-4.4,0-8-3.6-8-8V261c0-4.4,3.6-8,8-8h273c4.4,0,8,3.6,8,8v0.3     C410.1,265.7,406.5,269.3,402.1,269.3z" fill="#FFC42E" id="XMLID_1103_"/><path d="M402.1,304.2h-273c-4.4,0-8-3.6-8-8v-0.3c0-4.4,3.6-8,8-8h273c4.4,0,8,3.6,8,8v0.3     C410.1,300.7,406.5,304.2,402.1,304.2z" fill="#FFC42E" id="XMLID_1100_"/><path d="M402.1,339.2h-273c-4.4,0-8-3.6-8-8v-0.3c0-4.4,3.6-8,8-8h273c4.4,0,8,3.6,8,8v0.3     C410.1,335.6,406.5,339.2,402.1,339.2z" fill="#FFC42E" id="XMLID_1097_"/><path d="M402.1,374.1h-273c-4.4,0-8-3.6-8-8v-0.3c0-4.4,3.6-8,8-8h273c4.4,0,8,3.6,8,8v0.3     C410.1,370.5,406.5,374.1,402.1,374.1z" fill="#FFC42E" id="XMLID_1094_"/><path d="M402.1,409h-273c-4.4,0-8-3.6-8-8v-0.3c0-4.4,3.6-8,8-8h273c4.4,0,8,3.6,8,8v0.3     C410.1,405.5,406.5,409,402.1,409z" fill="#FFC42E" id="XMLID_1091_"/><path d="M336.9,444H129.1c-4.4,0-8-3.6-8-8v-0.3c0-4.4,3.6-8,8-8h207.8c4.4,0,8,3.6,8,8v0.3     C344.9,440.4,341.3,444,336.9,444z" fill="#FFC42E" id="XMLID_1088_"/></g></g><g id="XMLID_2085_"><path d="M113.1,127.8v24.5h-9.9V93.2h20.3c6.6,0,11.7,1.5,15.3,4.5c3.6,3,5.4,7.2,5.4,12.7    c0,3.1-0.8,5.7-2.4,7.9c-1.6,2.2-3.9,4-6.9,5.3c3.3,1.1,5.7,2.8,7.2,5.2c1.5,2.4,2.2,5.3,2.2,8.9v4.9c0,1.7,0.2,3.4,0.6,5.1    c0.4,1.7,1.2,2.9,2.2,3.8v0.9h-10.1c-1.1-0.9-1.8-2.3-2.1-4.2c-0.3-1.9-0.4-3.8-0.4-5.7v-4.7c0-3-0.9-5.4-2.6-7.2    c-1.7-1.8-4.1-2.7-7.1-2.7H113.1z M113.1,119.9h9.9c4,0,6.8-0.8,8.6-2.3c1.8-1.5,2.7-3.8,2.7-6.9c0-3-0.9-5.3-2.7-7    c-1.8-1.7-4.5-2.5-8.2-2.5h-10.5V119.9z" fill="#FFFFFF" id="XMLID_2090_"/><path d="M189.8,137.1c0-2.5-0.9-4.5-2.6-6c-1.7-1.6-4.8-3-9.3-4.2c-6.4-1.8-11.3-4.1-14.7-6.9    c-3.5-2.9-5.2-6.6-5.2-11.2c0-4.8,1.9-8.7,5.7-11.8c3.8-3.1,8.7-4.6,14.6-4.6c6.4,0,11.5,1.7,15.3,5.1c3.8,3.4,5.7,7.7,5.5,12.7    l-0.1,0.2h-9.5c0-3.1-1-5.6-3.1-7.4c-2.1-1.8-4.8-2.8-8.3-2.8c-3.3,0-5.9,0.8-7.7,2.4c-1.8,1.6-2.7,3.6-2.7,6.1c0,2.3,1,4.1,3,5.6    c2,1.5,5.3,2.9,9.8,4.2c6.2,1.7,10.9,4.1,14.2,7.1c3.2,3,4.9,6.8,4.9,11.5c0,4.9-1.9,8.8-5.8,11.7c-3.8,2.9-8.9,4.4-15.1,4.4    c-6,0-11.2-1.6-15.7-4.8c-4.5-3.2-6.6-7.7-6.5-13.5l0.1-0.2h9.5c0,3.5,1.2,6.2,3.7,8c2.4,1.8,5.4,2.7,9,2.7c3.5,0,6.2-0.7,8.1-2.2    C188.8,141.6,189.8,139.6,189.8,137.1z" fill="#FFFFFF" id="XMLID_2088_"/><path d="M243.4,137.1c0-2.5-0.9-4.5-2.6-6c-1.7-1.6-4.8-3-9.3-4.2c-6.4-1.8-11.3-4.1-14.7-6.9    c-3.5-2.9-5.2-6.6-5.2-11.2c0-4.8,1.9-8.7,5.7-11.8c3.8-3.1,8.7-4.6,14.6-4.6c6.4,0,11.5,1.7,15.3,5.1c3.8,3.4,5.7,7.7,5.5,12.7    l-0.1,0.2h-9.5c0-3.1-1-5.6-3.1-7.4c-2.1-1.8-4.8-2.8-8.3-2.8c-3.3,0-5.9,0.8-7.7,2.4c-1.8,1.6-2.7,3.6-2.7,6.1c0,2.3,1,4.1,3,5.6    c2,1.5,5.3,2.9,9.8,4.2c6.2,1.7,10.9,4.1,14.2,7.1c3.2,3,4.9,6.8,4.9,11.5c0,4.9-1.9,8.8-5.8,11.7c-3.8,2.9-8.9,4.4-15.1,4.4    c-6,0-11.2-1.6-15.7-4.8c-4.5-3.2-6.6-7.7-6.5-13.5l0.1-0.2h9.5c0,3.5,1.2,6.2,3.7,8c2.4,1.8,5.4,2.7,9,2.7c3.5,0,6.2-0.7,8.1-2.2    C242.4,141.6,243.4,139.6,243.4,137.1z" fill="#FFFFFF" id="XMLID_2086_"/></g></g></svg>