<?xml version="1.0" ?><svg baseProfile="tiny" id="Layer_1" version="1.2" viewBox="0 0 512 512" xml:space="preserve" xmlns="http://www.w3.org/2000/svg" xmlns:xlink="http://www.w3.org/1999/xlink"><g id="XMLID_1737_"><g id="XMLID_1270_"><path d="M432.8,506H98.4c-8.3,0-15-6.7-15-15V21c0-8.3,6.7-15,15-15h334.4c8.3,0,15,6.7,15,15    v470C447.9,499.3,441.1,506,432.8,506z" fill="#3DA7E3" id="XMLID_1301_"/><rect fill="#FFFFFF" height="469.3" id="XMLID_1300_" width="333.8" x="98.7" y="21.3"/><g id="XMLID_1293_"><polygon fill="#2A68A6" id="XMLID_1297_" points="352.4,180.6 64.1,180.6 64.1,64.9 352.4,64.9 288.6,122.8    "/><polygon fill="#114D7F" id="XMLID_1294_" points="64.1,180.6 83.4,194.9 83.4,180.6    "/></g><g id="XMLID_1271_"><path d="M402.2,234.4H129.1c-4.4,0-8-3.6-8-8V226c0-4.4,3.6-8,8-8h273.1c4.4,0,8,3.6,8,8v0.4     C410.1,230.8,406.6,234.4,402.2,234.4z" fill="#2A68A6" id="XMLID_1290_"/><path d="M402.2,269.3H129.1c-4.4,0-8-3.6-8-8V261c0-4.4,3.6-8,8-8h273.1c4.4,0,8,3.6,8,8v0.4     C410.1,265.8,406.6,269.3,402.2,269.3z" fill="#2A68A6" id="XMLID_1287_"/><path d="M402.2,304.2H129.1c-4.4,0-8-3.6-8-8v-0.4c0-4.4,3.6-8,8-8h273.1c4.4,0,8,3.6,8,8v0.4     C410.1,300.7,406.6,304.2,402.2,304.2z" fill="#2A68A6" id="XMLID_1284_"/><path d="M402.2,339.2H129.1c-4.4,0-8-3.6-8-8v-0.4c0-4.4,3.6-8,8-8h273.1c4.4,0,8,3.6,8,8v0.4     C410.1,335.6,406.6,339.2,402.2,339.2z" fill="#2A68A6" id="XMLID_1281_"/><path d="M402.2,374.1H129.1c-4.4,0-8-3.6-8-8v-0.4c0-4.4,3.6-8,8-8h273.1c4.4,0,8,3.6,8,8v0.4     C410.1,370.5,406.6,374.1,402.2,374.1z" fill="#2A68A6" id="XMLID_1278_"/><path d="M402.2,409H129.1c-4.4,0-8-3.6-8-8v-0.4c0-4.4,3.6-8,8-8h273.1c4.4,0,8,3.6,8,8v0.4     C410.1,405.5,406.6,409,402.2,409z" fill="#2A68A6" id="XMLID_1275_"/><path d="M337,444H129.1c-4.4,0-8-3.6-8-8v-0.4c0-4.4,3.6-8,8-8H337c4.4,0,8,3.6,8,8v0.4     C344.9,440.4,341.4,444,337,444z" fill="#2A68A6" id="XMLID_1272_"/></g></g><g id="XMLID_2003_"><path d="M113.7,128.1v25.8h-10.4V91.6h21.4c6.9,0,12.3,1.6,16.1,4.7c3.8,3.1,5.7,7.6,5.7,13.4    c0,3.2-0.8,6-2.5,8.3c-1.7,2.3-4.1,4.2-7.3,5.6c3.5,1.1,6,2.9,7.6,5.4c1.6,2.5,2.3,5.6,2.3,9.3v5.2c0,1.8,0.2,3.6,0.7,5.3    c0.5,1.7,1.2,3.1,2.3,4v1h-10.7c-1.1-0.9-1.9-2.4-2.2-4.4c-0.3-2-0.5-4-0.5-6v-5c0-3.2-0.9-5.7-2.8-7.6c-1.8-1.9-4.3-2.8-7.5-2.8    H113.7z M113.7,119.7h10.5c4.2,0,7.2-0.8,9.1-2.4c1.9-1.6,2.9-4,2.9-7.3c0-3.1-0.9-5.6-2.8-7.4c-1.9-1.8-4.7-2.7-8.6-2.7h-11    V119.7z" fill="#FFFFFF" id="XMLID_2008_"/><path d="M202.9,100h-19.2v53.9h-10.4V100h-18.9v-8.3h48.5V100z" fill="#FFFFFF" id="XMLID_2006_"/><path d="M248.9,127.3h-25.1v26.5h-10.4V91.6h39.8v8.3h-29.4v19h25.1V127.3z" fill="#FFFFFF" id="XMLID_2004_"/></g></g></svg>