<?xml version="1.0" ?><svg baseProfile="tiny" id="Layer_1" version="1.2" viewBox="0 0 512 512" xml:space="preserve" xmlns="http://www.w3.org/2000/svg" xmlns:xlink="http://www.w3.org/1999/xlink"><g id="XMLID_1705_"><g id="XMLID_2_"><path d="M432.8,506H98.4c-8.3,0-15-6.7-15-15V21c0-8.3,6.7-15,15-15h334.4c8.3,0,15,6.7,15,15v470    C447.9,499.3,441.1,506,432.8,506z" fill="#F45671" id="XMLID_138_"/><rect fill="#FFFFFF" height="469.3" id="XMLID_137_" width="333.8" x="98.7" y="21.3"/><g id="XMLID_130_"><polygon fill="#E03258" id="XMLID_134_" points="352.4,180.6 64.1,180.6 64.1,64.9 352.4,64.9 288.6,122.8    "/><polygon fill="#BC2049" id="XMLID_131_" points="64.1,180.6 83.4,194.9 83.4,180.6    "/></g><g id="XMLID_4_"><path d="M402.1,234.4h-273c-4.4,0-8-3.6-8-8v-0.3c0-4.4,3.6-8,8-8h273c4.4,0,8,3.6,8,8v0.3     C410.1,230.8,406.5,234.4,402.1,234.4z" fill="#E03258" id="XMLID_127_"/><path d="M402.1,269.3h-273c-4.4,0-8-3.6-8-8V261c0-4.4,3.6-8,8-8h273c4.4,0,8,3.6,8,8v0.3     C410.1,265.7,406.5,269.3,402.1,269.3z" fill="#E03258" id="XMLID_124_"/><path d="M402.1,304.2h-273c-4.4,0-8-3.6-8-8v-0.3c0-4.4,3.6-8,8-8h273c4.4,0,8,3.6,8,8v0.3     C410.1,300.7,406.5,304.2,402.1,304.2z" fill="#E03258" id="XMLID_117_"/><path d="M402.1,339.2h-273c-4.4,0-8-3.6-8-8v-0.3c0-4.4,3.6-8,8-8h273c4.4,0,8,3.6,8,8v0.3     C410.1,335.6,406.5,339.2,402.1,339.2z" fill="#E03258" id="XMLID_114_"/><path d="M402.1,374.1h-273c-4.4,0-8-3.6-8-8v-0.3c0-4.4,3.6-8,8-8h273c4.4,0,8,3.6,8,8v0.3     C410.1,370.5,406.5,374.1,402.1,374.1z" fill="#E03258" id="XMLID_106_"/><path d="M402.1,409h-273c-4.4,0-8-3.6-8-8v-0.3c0-4.4,3.6-8,8-8h273c4.4,0,8,3.6,8,8v0.3     C410.1,405.5,406.5,409,402.1,409z" fill="#E03258" id="XMLID_21_"/><path d="M336.9,444H129.1c-4.4,0-8-3.6-8-8v-0.3c0-4.4,3.6-8,8-8h207.8c4.4,0,8,3.6,8,8v0.3     C344.9,440.4,341.3,444,336.9,444z" fill="#E03258" id="XMLID_18_"/></g></g><g id="XMLID_3457_"><path d="M142.6,136.7c0-2.4-0.8-4.4-2.5-5.9c-1.7-1.5-4.7-2.9-9-4.1c-6.2-1.7-11-4-14.3-6.7    c-3.4-2.8-5-6.4-5-10.9c0-4.6,1.8-8.4,5.5-11.4c3.7-3,8.4-4.5,14.2-4.5c6.2,0,11.2,1.7,14.9,5c3.7,3.3,5.5,7.4,5.4,12.3l-0.1,0.2    h-9.2c0-3-1-5.4-3-7.2c-2-1.8-4.7-2.7-8-2.7c-3.2,0-5.7,0.8-7.5,2.3c-1.8,1.5-2.6,3.5-2.6,5.9c0,2.2,1,4,2.9,5.5    c1.9,1.4,5.1,2.8,9.6,4.1c6,1.7,10.6,4,13.8,6.9c3.2,2.9,4.7,6.6,4.7,11.2c0,4.8-1.9,8.6-5.6,11.4c-3.7,2.8-8.6,4.3-14.7,4.3    c-5.8,0-10.9-1.6-15.3-4.7c-4.3-3.1-6.4-7.5-6.3-13.1l0.1-0.2h9.2c0,3.4,1.2,6,3.6,7.8c2.4,1.8,5.3,2.6,8.7,2.6    c3.4,0,6-0.7,7.9-2.2C141.7,141.1,142.6,139.2,142.6,136.7z" fill="#FFFFFF" id="XMLID_3462_"/><path d="M182.9,135.9l1,4.2h0.2l1-4.1l13.7-42h10.2l-20.5,57.5h-9.1L159,94h10.2L182.9,135.9z" fill="#FFFFFF" id="XMLID_3460_"/><path d="M260.3,143.7c-1.6,2.2-4.1,4.2-7.6,6c-3.5,1.8-7.9,2.6-13.4,2.6    c-6.8,0-12.4-2.2-16.8-6.6s-6.6-10-6.6-17v-12c0-6.9,2.1-12.6,6.4-17c4.2-4.4,9.7-6.6,16.3-6.6c6.7,0,11.9,1.7,15.6,5.1    c3.7,3.4,5.6,7.8,5.4,13.2l-0.1,0.2h-9.1c0-3.2-1-5.8-3-7.8c-2-2-4.9-3-8.7-3c-4,0-7.2,1.5-9.6,4.5c-2.4,3-3.7,6.7-3.7,11.3v12.1    c0,4.6,1.3,8.4,3.8,11.4c2.5,3,5.8,4.5,9.9,4.5c3.1,0,5.5-0.3,7.3-1c1.8-0.7,3.1-1.5,4.1-2.5v-11.9h-12V122h21.6V143.7z" fill="#FFFFFF" id="XMLID_3458_"/></g></g></svg>