<?xml version="1.0" ?><svg baseProfile="tiny" id="Layer_1" version="1.2" viewBox="0 0 512 512" xml:space="preserve" xmlns="http://www.w3.org/2000/svg" xmlns:xlink="http://www.w3.org/1999/xlink"><g id="XMLID_1735_"><g id="XMLID_1202_"><path d="M432.8,506H98.4c-8.3,0-15-6.7-15-15V21c0-8.3,6.7-15,15-15h334.4c8.3,0,15,6.7,15,15    v470C447.9,499.3,441.1,506,432.8,506z" fill="#F45671" id="XMLID_1233_"/><rect fill="#FFFFFF" height="469.3" id="XMLID_1232_" width="333.8" x="98.7" y="21.3"/><g id="XMLID_1225_"><polygon fill="#E03258" id="XMLID_1229_" points="352.4,180.6 64.1,180.6 64.1,64.9 352.4,64.9 288.6,122.8    "/><polygon fill="#BC2049" id="XMLID_1226_" points="64.1,180.6 83.4,194.9 83.4,180.6    "/></g><g id="XMLID_1203_"><path d="M402.1,234.4h-273c-4.4,0-8-3.6-8-8v-0.3c0-4.4,3.6-8,8-8h273c4.4,0,8,3.6,8,8v0.3     C410.1,230.8,406.5,234.4,402.1,234.4z" fill="#E03258" id="XMLID_1222_"/><path d="M402.1,269.3h-273c-4.4,0-8-3.6-8-8V261c0-4.4,3.6-8,8-8h273c4.4,0,8,3.6,8,8v0.3     C410.1,265.7,406.5,269.3,402.1,269.3z" fill="#E03258" id="XMLID_1219_"/><path d="M402.1,304.2h-273c-4.4,0-8-3.6-8-8v-0.3c0-4.4,3.6-8,8-8h273c4.4,0,8,3.6,8,8v0.3     C410.1,300.7,406.5,304.2,402.1,304.2z" fill="#E03258" id="XMLID_1216_"/><path d="M402.1,339.2h-273c-4.4,0-8-3.6-8-8v-0.3c0-4.4,3.6-8,8-8h273c4.4,0,8,3.6,8,8v0.3     C410.1,335.6,406.5,339.2,402.1,339.2z" fill="#E03258" id="XMLID_1213_"/><path d="M402.1,374.1h-273c-4.4,0-8-3.6-8-8v-0.3c0-4.4,3.6-8,8-8h273c4.4,0,8,3.6,8,8v0.3     C410.1,370.5,406.5,374.1,402.1,374.1z" fill="#E03258" id="XMLID_1210_"/><path d="M402.1,409h-273c-4.4,0-8-3.6-8-8v-0.3c0-4.4,3.6-8,8-8h273c4.4,0,8,3.6,8,8v0.3     C410.1,405.5,406.5,409,402.1,409z" fill="#E03258" id="XMLID_1207_"/><path d="M336.9,444H129.1c-4.4,0-8-3.6-8-8v-0.3c0-4.4,3.6-8,8-8h207.8c4.4,0,8,3.6,8,8v0.3     C344.9,440.4,341.3,444,336.9,444z" fill="#E03258" id="XMLID_1204_"/></g></g><g id="XMLID_1833_"><path d="M132.9,135.6c0-2.2-0.8-4-2.3-5.4c-1.6-1.4-4.3-2.7-8.3-3.8c-5.7-1.6-10-3.6-13.1-6.2    c-3.1-2.5-4.6-5.9-4.6-10c0-4.2,1.7-7.7,5.1-10.5c3.4-2.7,7.7-4.1,13-4.1c5.7,0,10.2,1.5,13.7,4.6c3.4,3.1,5.1,6.8,4.9,11.3    l-0.1,0.2h-8.5c0-2.8-0.9-5-2.8-6.6c-1.8-1.6-4.3-2.5-7.4-2.5c-3,0-5.3,0.7-6.9,2.1c-1.6,1.4-2.4,3.2-2.4,5.4c0,2,0.9,3.7,2.6,5    c1.8,1.3,4.7,2.6,8.8,3.7c5.5,1.5,9.7,3.6,12.6,6.3c2.9,2.7,4.3,6.1,4.3,10.2c0,4.4-1.7,7.8-5.1,10.5c-3.4,2.6-7.9,3.9-13.5,3.9    c-5.4,0-10-1.4-14-4.3c-4-2.8-5.9-6.9-5.8-12l0.1-0.2h8.5c0,3.2,1.1,5.5,3.3,7.1c2.2,1.6,4.8,2.4,8,2.4c3.1,0,5.5-0.7,7.3-2    C132,139.6,132.9,137.8,132.9,135.6z" fill="#FFFFFF" id="XMLID_1858_"/><path d="M193.5,134.4h0.2l7.7-38h9.3l-12.5,52.7h-8l-10.5-37.5h-0.2L169,149.1h-8l-12.5-52.7h9.2    l7.8,37.9h0.2l10-37.9h7.7L193.5,134.4z" fill="#FFFFFF" id="XMLID_1837_"/><path d="M249.6,126.6h-21.2v22.5h-8.8V96.4h33.7v7.1h-24.9v16.1h21.2V126.6z" fill="#FFFFFF" id="XMLID_1834_"/></g></g></svg>