<?xml version="1.0" ?><svg baseProfile="tiny" id="Layer_1" version="1.2" viewBox="0 0 512 512" xml:space="preserve" xmlns="http://www.w3.org/2000/svg" xmlns:xlink="http://www.w3.org/1999/xlink"><g id="XMLID_1734_"><g id="XMLID_1052_"><path d="M432.8,506H98.4c-8.3,0-15-6.7-15-15V21c0-8.3,6.7-15,15-15h334.4c8.3,0,15,6.7,15,15    v470C447.9,499.3,441.1,506,432.8,506z" fill="#F45671" id="XMLID_1083_"/><rect fill="#FFFFFF" height="469.3" id="XMLID_1082_" width="333.8" x="98.7" y="21.3"/><g id="XMLID_1075_"><polygon fill="#E03258" id="XMLID_1079_" points="352.4,180.6 64.1,180.6 64.1,64.9 352.4,64.9 288.6,122.8    "/><polygon fill="#BC2049" id="XMLID_1076_" points="64.1,180.6 83.4,194.9 83.4,180.6    "/></g><g id="XMLID_1053_"><path d="M402.1,234.4h-273c-4.4,0-8-3.6-8-8v-0.3c0-4.4,3.6-8,8-8h273c4.4,0,8,3.6,8,8v0.3     C410.1,230.8,406.5,234.4,402.1,234.4z" fill="#E03258" id="XMLID_1072_"/><path d="M402.1,269.3h-273c-4.4,0-8-3.6-8-8V261c0-4.4,3.6-8,8-8h273c4.4,0,8,3.6,8,8v0.3     C410.1,265.7,406.5,269.3,402.1,269.3z" fill="#E03258" id="XMLID_1069_"/><path d="M402.1,304.2h-273c-4.4,0-8-3.6-8-8v-0.3c0-4.4,3.6-8,8-8h273c4.4,0,8,3.6,8,8v0.3     C410.1,300.7,406.5,304.2,402.1,304.2z" fill="#E03258" id="XMLID_1066_"/><path d="M402.1,339.2h-273c-4.4,0-8-3.6-8-8v-0.3c0-4.4,3.6-8,8-8h273c4.4,0,8,3.6,8,8v0.3     C410.1,335.6,406.5,339.2,402.1,339.2z" fill="#E03258" id="XMLID_1063_"/><path d="M402.1,374.1h-273c-4.4,0-8-3.6-8-8v-0.3c0-4.4,3.6-8,8-8h273c4.4,0,8,3.6,8,8v0.3     C410.1,370.5,406.5,374.1,402.1,374.1z" fill="#E03258" id="XMLID_1060_"/><path d="M402.1,409h-273c-4.4,0-8-3.6-8-8v-0.3c0-4.4,3.6-8,8-8h273c4.4,0,8,3.6,8,8v0.3     C410.1,405.5,406.5,409,402.1,409z" fill="#E03258" id="XMLID_1057_"/><path d="M336.9,444H129.1c-4.4,0-8-3.6-8-8v-0.3c0-4.4,3.6-8,8-8h207.8c4.4,0,8,3.6,8,8v0.3     C344.9,440.4,341.3,444,336.9,444z" fill="#E03258" id="XMLID_1054_"/></g></g><g id="XMLID_2041_"><path d="M139.2,137c0-2.4-0.9-4.4-2.6-6c-1.7-1.6-4.8-3-9.2-4.2c-6.3-1.7-11.2-4-14.6-6.9    c-3.4-2.8-5.1-6.5-5.1-11.1c0-4.7,1.9-8.6,5.6-11.7c3.8-3.1,8.6-4.6,14.5-4.6c6.3,0,11.4,1.7,15.2,5.1c3.8,3.4,5.6,7.6,5.5,12.6    l-0.1,0.2H139c0-3.1-1-5.5-3.1-7.4c-2.1-1.8-4.8-2.7-8.2-2.7c-3.3,0-5.8,0.8-7.6,2.3c-1.8,1.6-2.7,3.6-2.7,6c0,2.3,1,4.1,2.9,5.6    c2,1.5,5.2,2.9,9.7,4.2c6.1,1.7,10.8,4.1,14,7c3.2,3,4.8,6.8,4.8,11.4c0,4.9-1.9,8.7-5.7,11.6c-3.8,2.9-8.8,4.3-15,4.3    c-6,0-11.1-1.6-15.6-4.7c-4.4-3.2-6.6-7.6-6.4-13.4l0.1-0.2h9.4c0,3.5,1.2,6.2,3.6,7.9c2.4,1.8,5.4,2.7,8.9,2.7    c3.5,0,6.1-0.7,8.1-2.2C138.3,141.5,139.2,139.5,139.2,137z" fill="#FFFFFF" id="XMLID_2046_"/><path d="M181.4,122l14.1-28.5h10.9l-20.3,38.1V152h-9.7V131l-20-37.5h10.9L181.4,122z" fill="#FFFFFF" id="XMLID_2044_"/><path d="M246.5,137c0-2.4-0.9-4.4-2.6-6c-1.7-1.6-4.8-3-9.2-4.2c-6.3-1.7-11.2-4-14.6-6.9    c-3.4-2.8-5.1-6.5-5.1-11.1c0-4.7,1.9-8.6,5.6-11.7c3.8-3.1,8.6-4.6,14.5-4.6c6.3,0,11.4,1.7,15.2,5.1c3.8,3.4,5.6,7.6,5.5,12.6    l-0.1,0.2h-9.4c0-3.1-1-5.5-3.1-7.4c-2.1-1.8-4.8-2.7-8.2-2.7c-3.3,0-5.8,0.8-7.6,2.3c-1.8,1.6-2.7,3.6-2.7,6c0,2.3,1,4.1,2.9,5.6    c2,1.5,5.2,2.9,9.7,4.2c6.1,1.7,10.8,4.1,14,7c3.2,3,4.8,6.8,4.8,11.4c0,4.9-1.9,8.7-5.7,11.6c-3.8,2.9-8.8,4.3-15,4.3    c-6,0-11.1-1.6-15.6-4.7c-4.4-3.2-6.6-7.6-6.4-13.4l0.1-0.2h9.4c0,3.5,1.2,6.2,3.6,7.9c2.4,1.8,5.4,2.7,8.9,2.7    c3.5,0,6.1-0.7,8.1-2.2C245.5,141.5,246.5,139.5,246.5,137z" fill="#FFFFFF" id="XMLID_2042_"/></g></g></svg>