<?xml version="1.0" ?><svg baseProfile="tiny" id="Layer_1" version="1.2" viewBox="0 0 512 512" xml:space="preserve" xmlns="http://www.w3.org/2000/svg" xmlns:xlink="http://www.w3.org/1999/xlink"><g id="XMLID_1706_"><g id="XMLID_141_"><path d="M432.8,506H98.4c-8.3,0-15-6.7-15-15V21c0-8.3,6.7-15,15-15h334.4c8.3,0,15,6.7,15,15v470    C447.9,499.3,441.1,506,432.8,506z" fill="#FCE379" id="XMLID_173_"/><rect fill="#FFFFFF" height="469.3" id="XMLID_172_" width="333.8" x="98.7" y="21.3"/><g id="XMLID_165_"><polygon fill="#FFC42E" id="XMLID_169_" points="352.4,180.6 64.1,180.6 64.1,64.9 352.4,64.9 288.6,122.8    "/><polygon fill="#FAAA20" id="XMLID_166_" points="64.1,180.6 83.4,194.9 83.4,180.6    "/></g><g id="XMLID_142_"><path d="M402.1,234.4h-273c-4.4,0-8-3.6-8-8v-0.3c0-4.4,3.6-8,8-8h273c4.4,0,8,3.6,8,8v0.3     C410.1,230.8,406.5,234.4,402.1,234.4z" fill="#FFC42E" id="XMLID_161_"/><path d="M402.1,269.3h-273c-4.4,0-8-3.6-8-8V261c0-4.4,3.6-8,8-8h273c4.4,0,8,3.6,8,8v0.3     C410.1,265.7,406.5,269.3,402.1,269.3z" fill="#FFC42E" id="XMLID_158_"/><path d="M402.1,304.2h-273c-4.4,0-8-3.6-8-8v-0.3c0-4.4,3.6-8,8-8h273c4.4,0,8,3.6,8,8v0.3     C410.1,300.7,406.5,304.2,402.1,304.2z" fill="#FFC42E" id="XMLID_155_"/><path d="M402.1,339.2h-273c-4.4,0-8-3.6-8-8v-0.3c0-4.4,3.6-8,8-8h273c4.4,0,8,3.6,8,8v0.3     C410.1,335.6,406.5,339.2,402.1,339.2z" fill="#FFC42E" id="XMLID_152_"/><path d="M402.1,374.1h-273c-4.4,0-8-3.6-8-8v-0.3c0-4.4,3.6-8,8-8h273c4.4,0,8,3.6,8,8v0.3     C410.1,370.5,406.5,374.1,402.1,374.1z" fill="#FFC42E" id="XMLID_149_"/><path d="M402.1,409h-273c-4.4,0-8-3.6-8-8v-0.3c0-4.4,3.6-8,8-8h273c4.4,0,8,3.6,8,8v0.3     C410.1,405.5,406.5,409,402.1,409z" fill="#FFC42E" id="XMLID_146_"/><path d="M336.9,444H129.1c-4.4,0-8-3.6-8-8v-0.3c0-4.4,3.6-8,8-8h207.8c4.4,0,8,3.6,8,8v0.3     C344.9,440.4,341.3,444,336.9,444z" fill="#FFC42E" id="XMLID_143_"/></g></g><g id="XMLID_3501_"><path d="M127.8,115l12.6-22h11.8l-18.3,29.5l19,30h-11.9L128,130.2l-12.9,22.4h-11.8l18.7-30    L103.7,93h11.7L127.8,115z" fill="#FFFFFF" id="XMLID_3506_"/><path d="M173.1,144.6H201v7.9h-37.8V93h9.9V144.6z" fill="#FFFFFF" id="XMLID_3504_"/><path d="M243.3,137.2c0-2.5-0.9-4.5-2.6-6.1c-1.8-1.6-4.9-3-9.3-4.3c-6.4-1.8-11.4-4.1-14.8-7    c-3.5-2.9-5.2-6.6-5.2-11.3c0-4.8,1.9-8.8,5.7-11.9c3.8-3.1,8.7-4.7,14.7-4.7c6.4,0,11.6,1.7,15.4,5.2c3.9,3.5,5.7,7.7,5.6,12.8    l-0.1,0.2h-9.6c0-3.1-1-5.6-3.1-7.5c-2.1-1.9-4.9-2.8-8.3-2.8c-3.4,0-5.9,0.8-7.8,2.4c-1.8,1.6-2.7,3.6-2.7,6.1c0,2.3,1,4.2,3,5.7    c2,1.5,5.3,2.9,9.9,4.2c6.2,1.7,11,4.1,14.3,7.1c3.3,3,4.9,6.9,4.9,11.6c0,4.9-1.9,8.9-5.8,11.8c-3.9,2.9-9,4.4-15.3,4.4    c-6.1,0-11.3-1.6-15.8-4.8c-4.5-3.2-6.7-7.8-6.5-13.6l0.1-0.2h9.6c0,3.6,1.2,6.3,3.7,8.1c2.5,1.8,5.5,2.7,9,2.7    c3.5,0,6.3-0.7,8.2-2.2C242.4,141.8,243.3,139.8,243.3,137.2z" fill="#FFFFFF" id="XMLID_3502_"/></g></g></svg>