<?xml version="1.0" ?><svg baseProfile="tiny" id="Layer_1" version="1.2" viewBox="0 0 512 512" xml:space="preserve" xmlns="http://www.w3.org/2000/svg" xmlns:xlink="http://www.w3.org/1999/xlink"><g id="XMLID_1736_"><g id="XMLID_1236_"><path d="M432.8,506H98.4c-8.3,0-15-6.7-15-15V21c0-8.3,6.7-15,15-15h334.4c8.3,0,15,6.7,15,15    v470C447.9,499.3,441.1,506,432.8,506z" fill="#FCE379" id="XMLID_1267_"/><rect fill="#FFFFFF" height="469.3" id="XMLID_1266_" width="333.8" x="98.7" y="21.3"/><g id="XMLID_1259_"><polygon fill="#FFC42E" id="XMLID_1263_" points="352.4,180.6 64.1,180.6 64.1,64.9 352.4,64.9 288.6,122.8    "/><polygon fill="#FAAA20" id="XMLID_1260_" points="64.1,180.6 83.4,194.9 83.4,180.6    "/></g><g id="XMLID_1237_"><path d="M402.1,234.4h-273c-4.4,0-8-3.6-8-8v-0.3c0-4.4,3.6-8,8-8h273c4.4,0,8,3.6,8,8v0.3     C410.1,230.8,406.5,234.4,402.1,234.4z" fill="#FFC42E" id="XMLID_1256_"/><path d="M402.1,269.3h-273c-4.4,0-8-3.6-8-8V261c0-4.4,3.6-8,8-8h273c4.4,0,8,3.6,8,8v0.3     C410.1,265.7,406.5,269.3,402.1,269.3z" fill="#FFC42E" id="XMLID_1253_"/><path d="M402.1,304.2h-273c-4.4,0-8-3.6-8-8v-0.3c0-4.4,3.6-8,8-8h273c4.4,0,8,3.6,8,8v0.3     C410.1,300.7,406.5,304.2,402.1,304.2z" fill="#FFC42E" id="XMLID_1250_"/><path d="M402.1,339.2h-273c-4.4,0-8-3.6-8-8v-0.3c0-4.4,3.6-8,8-8h273c4.4,0,8,3.6,8,8v0.3     C410.1,335.6,406.5,339.2,402.1,339.2z" fill="#FFC42E" id="XMLID_1247_"/><path d="M402.1,374.1h-273c-4.4,0-8-3.6-8-8v-0.3c0-4.4,3.6-8,8-8h273c4.4,0,8,3.6,8,8v0.3     C410.1,370.5,406.5,374.1,402.1,374.1z" fill="#FFC42E" id="XMLID_1244_"/><path d="M402.1,409h-273c-4.4,0-8-3.6-8-8v-0.3c0-4.4,3.6-8,8-8h273c4.4,0,8,3.6,8,8v0.3     C410.1,405.5,406.5,409,402.1,409z" fill="#FFC42E" id="XMLID_1241_"/><path d="M336.9,444H129.1c-4.4,0-8-3.6-8-8v-0.3c0-4.4,3.6-8,8-8h207.8c4.4,0,8,3.6,8,8v0.3     C344.9,440.4,341.3,444,336.9,444z" fill="#FFC42E" id="XMLID_1238_"/></g></g><g id="XMLID_1861_"><path d="M121,117.2l9.1-15.9h8.5l-13.2,21.3l13.7,21.6h-8.6l-9.3-16.1l-9.3,16.1h-8.5l13.5-21.6    l-13.2-21.3h8.4L121,117.2z" fill="#FFFFFF" id="XMLID_1872_"/><path d="M153.6,138.5h20.1v5.7h-27.3v-42.9h7.2V138.5z" fill="#FFFFFF" id="XMLID_1869_"/><path d="M204.3,133.2c0-1.8-0.6-3.3-1.9-4.4c-1.3-1.1-3.5-2.2-6.7-3.1c-4.6-1.3-8.2-3-10.7-5    c-2.5-2.1-3.8-4.8-3.8-8.1c0-3.5,1.4-6.3,4.1-8.6c2.8-2.2,6.3-3.4,10.6-3.4c4.6,0,8.4,1.2,11.1,3.7c2.8,2.5,4.1,5.6,4,9.2    l-0.1,0.2h-6.9c0-2.3-0.8-4.1-2.3-5.4c-1.5-1.3-3.5-2-6-2c-2.4,0-4.3,0.6-5.6,1.7c-1.3,1.1-2,2.6-2,4.4c0,1.7,0.7,3,2.2,4.1    c1.4,1.1,3.8,2.1,7.1,3.1c4.5,1.3,7.9,3,10.3,5.1c2.4,2.2,3.5,4.9,3.5,8.3c0,3.6-1.4,6.4-4.2,8.5c-2.8,2.1-6.5,3.2-11,3.2    c-4.4,0-8.2-1.2-11.4-3.5c-3.2-2.3-4.8-5.6-4.7-9.8l0.1-0.2h6.9c0,2.6,0.9,4.5,2.7,5.8c1.8,1.3,3.9,2,6.5,2c2.5,0,4.5-0.5,5.9-1.6    C203.6,136.5,204.3,135,204.3,133.2z" fill="#FFFFFF" id="XMLID_1866_"/><path d="M235.2,117.2l9.1-15.9h8.5l-13.2,21.3l13.7,21.6h-8.6l-9.3-16.1l-9.3,16.1h-8.5    l13.5-21.6l-13.2-21.3h8.4L235.2,117.2z" fill="#FFFFFF" id="XMLID_1863_"/></g></g></svg>