<?xml version="1.0" ?><svg baseProfile="tiny" id="Layer_1" version="1.2" viewBox="0 0 512 512" xml:space="preserve" xmlns="http://www.w3.org/2000/svg" xmlns:xlink="http://www.w3.org/1999/xlink"><g id="XMLID_1701_"><g id="XMLID_33_"><path d="M432.8,506H98.4c-8.3,0-15-6.7-15-15V21c0-8.3,6.7-15,15-15h334.4c8.3,0,15,6.7,15,15v470    C447.9,499.3,441.1,506,432.8,506z" fill="#475563" id="XMLID_182_"/><rect fill="#FFFFFF" height="469.3" id="XMLID_181_" width="333.8" x="98.7" y="21.3"/><g id="XMLID_121_"><polygon fill="#24323D" id="XMLID_164_" points="352.4,180.6 64.1,180.6 64.1,64.9 352.4,64.9 288.6,122.8    "/><polygon fill="#151F26" id="XMLID_122_" points="64.1,180.6 83.4,194.9 83.4,180.6    "/></g><g id="XMLID_95_"><path d="M402.1,234.4h-273c-4.4,0-8-3.6-8-8v-0.3c0-4.4,3.6-8,8-8h273c4.4,0,8,3.6,8,8v0.3     C410.1,230.8,406.5,234.4,402.1,234.4z" fill="#24323D" id="XMLID_119_"/><path d="M402.1,269.3h-273c-4.4,0-8-3.6-8-8V261c0-4.4,3.6-8,8-8h273c4.4,0,8,3.6,8,8v0.3     C410.1,265.7,406.5,269.3,402.1,269.3z" fill="#24323D" id="XMLID_118_"/><path d="M402.1,304.2h-273c-4.4,0-8-3.6-8-8v-0.3c0-4.4,3.6-8,8-8h273c4.4,0,8,3.6,8,8v0.3     C410.1,300.7,406.5,304.2,402.1,304.2z" fill="#24323D" id="XMLID_113_"/><path d="M402.1,339.2h-273c-4.4,0-8-3.6-8-8v-0.3c0-4.4,3.6-8,8-8h273c4.4,0,8,3.6,8,8v0.3     C410.1,335.6,406.5,339.2,402.1,339.2z" fill="#24323D" id="XMLID_112_"/><path d="M402.1,374.1h-273c-4.4,0-8-3.6-8-8v-0.3c0-4.4,3.6-8,8-8h273c4.4,0,8,3.6,8,8v0.3     C410.1,370.5,406.5,374.1,402.1,374.1z" fill="#24323D" id="XMLID_110_"/><path d="M402.1,409h-273c-4.4,0-8-3.6-8-8v-0.3c0-4.4,3.6-8,8-8h273c4.4,0,8,3.6,8,8v0.3     C410.1,405.5,406.5,409,402.1,409z" fill="#24323D" id="XMLID_109_"/><path d="M336.9,444H129.1c-4.4,0-8-3.6-8-8v-0.3c0-4.4,3.6-8,8-8h207.8c4.4,0,8,3.6,8,8v0.3     C344.9,440.4,341.3,444,336.9,444z" fill="#24323D" id="XMLID_107_"/></g></g><g id="XMLID_3804_"><path d="M117.4,149.1h36.4v9.6h-50.5v-7.5l35-54.6h-34.7v-9.6h48.9v7.2L117.4,149.1z" fill="#FFFFFF" id="XMLID_3810_"/><path d="M181.4,158.6h-12V86.9h12V158.6z" fill="#FFFFFF" id="XMLID_3808_"/><path d="M212.4,131.4v27.2h-12V86.9H228c7.9,0,14.1,2,18.6,6.1c4.5,4.1,6.7,9.5,6.7,16.1    c0,6.7-2.2,12.1-6.7,16.2c-4.5,4.1-10.7,6.1-18.6,6.1H212.4z M212.4,121.8H228c4.4,0,7.8-1.2,10-3.5c2.2-2.4,3.3-5.4,3.3-9    c0-3.6-1.1-6.7-3.3-9.1c-2.2-2.4-5.6-3.6-10-3.6h-15.5V121.8z" fill="#FFFFFF" id="XMLID_3805_"/></g></g></svg>